<svg id="Group_178" data-name="Group 178" xmlns="http://www.w3.org/2000/svg" xmlns:xlink="http://www.w3.org/1999/xlink" width="303.603" height="78.578" viewBox="0 0 303.603 78.578">
  <defs>
    <clipPath id="clip-path">
      <rect id="Rectangle_36" data-name="Rectangle 36" width="303.603" height="78.578" fill="none"/>
    </clipPath>
  </defs>
  <g id="Group_176" data-name="Group 176" clip-path="url(#clip-path)">
    <path id="Path_570" data-name="Path 570" d="M55.717,48.563l3.367-7.454a.2.2,0,0,1,.187-.122h.112a.2.2,0,0,1,.187.122l3.345,7.454a.2.2,0,0,1-.187.287h-.444a.2.2,0,0,1-.187-.122l-.82-1.826H57.345l-.809,1.826a.2.2,0,0,1-.187.122h-.443a.2.2,0,0,1-.189-.287m5.26-2.348c-.543-1.207-1.074-2.425-1.617-3.633h-.089l-1.616,3.633Z" transform="translate(12.074 8.886)" fill="#323233"/>
    <path id="Path_571" data-name="Path 571" d="M62.125,47.639c.044-.067.122-.221.156-.276a.2.2,0,0,1,.3-.034,1.865,1.865,0,0,0,1.042.388c.454,0,.719-.232.719-.532,0-.388-.332-.566-.973-.886-.588-.288-1.263-.677-1.263-1.43a1.245,1.245,0,0,1,1.407-1.151,2.265,2.265,0,0,1,1.229.343.266.266,0,0,1,.066.343l-.088.178a.245.245,0,0,1-.321.1,2.2,2.2,0,0,0-.886-.266c-.5,0-.632.256-.632.444,0,.365.365.531.82.752.764.366,1.45.708,1.45,1.506a1.4,1.4,0,0,1-1.528,1.251,2.25,2.25,0,0,1-1.441-.5.222.222,0,0,1-.055-.232" transform="translate(13.463 9.478)" fill="#323233"/>
    <path id="Path_572" data-name="Path 572" d="M65.366,47.639c.044-.067.122-.221.156-.276a.2.2,0,0,1,.3-.034,1.865,1.865,0,0,0,1.042.388c.454,0,.719-.232.719-.532,0-.388-.332-.566-.973-.886-.588-.288-1.263-.677-1.263-1.43a1.245,1.245,0,0,1,1.407-1.151,2.265,2.265,0,0,1,1.229.343.266.266,0,0,1,.066.343l-.088.178a.245.245,0,0,1-.321.1,2.2,2.2,0,0,0-.886-.266c-.5,0-.632.256-.632.444,0,.365.365.531.82.752.764.366,1.45.708,1.45,1.506a1.4,1.4,0,0,1-1.528,1.251,2.25,2.25,0,0,1-1.441-.5.222.222,0,0,1-.055-.232" transform="translate(14.166 9.478)" fill="#323233"/>
    <path id="Path_573" data-name="Path 573" d="M70.761,43.719a2.329,2.329,0,1,1-2.2,2.313,2.27,2.27,0,0,1,2.2-2.313m0,3.931A1.526,1.526,0,0,0,72.2,46.032a1.446,1.446,0,1,0-2.879,0,1.526,1.526,0,0,0,1.439,1.618" transform="translate(14.863 9.478)" fill="#323233"/>
    <path id="Path_574" data-name="Path 574" d="M75.217,43.718a1.913,1.913,0,0,1,1.583.775.218.218,0,0,1-.044.31l-.212.178c-.165.155-.221.044-.321-.045a1.366,1.366,0,0,0-1.018-.465,1.588,1.588,0,0,0-.011,3.167,1.473,1.473,0,0,0,1.174-.576c.134-.133.209-.112.332-.023l.123.089a.223.223,0,0,1,.075.31,1.983,1.983,0,0,1-1.694.93,2.274,2.274,0,0,1-2.269-2.313,2.333,2.333,0,0,1,2.281-2.337" transform="translate(15.812 9.478)" fill="#323233"/>
    <path id="Path_575" data-name="Path 575" d="M77.1,41.793a.526.526,0,1,1,.521.52.522.522,0,0,1-.521-.52m.155,2.779a.218.218,0,0,1,.211-.211H77.8a.218.218,0,0,1,.211.211v4.009a.218.218,0,0,1-.211.211H77.46a.218.218,0,0,1-.211-.211Z" transform="translate(16.714 8.945)" fill="#323233"/>
    <path id="Path_576" data-name="Path 576" d="M80.652,45.446a3.616,3.616,0,0,1,.941.145c.011-.819-.089-1.2-.72-1.2a3.921,3.921,0,0,0-1.329.243c-.111.045-.178-.011-.211-.111l-.089-.277c-.044-.133.023-.2.122-.243a4.187,4.187,0,0,1,1.54-.287c1.129,0,1.407.576,1.407,1.871v2.458a.218.218,0,0,1-.21.211h-.211c-.122,0-.155-.066-.189-.165l-.089-.3a1.914,1.914,0,0,1-1.373.576,1.345,1.345,0,0,1-1.363-1.45c0-.842.632-1.474,1.773-1.474m-.288,2.26a1.57,1.57,0,0,0,1.218-.621V46.21a1.994,1.994,0,0,0-.93-.176c-.621,0-1.063.31-1.063.886a.746.746,0,0,0,.775.786" transform="translate(17.1 9.478)" fill="#323233"/>
    <path id="Path_577" data-name="Path 577" d="M84.984,43.718a1.916,1.916,0,0,1,1.584.775.217.217,0,0,1-.045.31l-.209.178c-.167.155-.223.044-.322-.045a1.364,1.364,0,0,0-1.018-.465,1.588,1.588,0,0,0-.011,3.167,1.477,1.477,0,0,0,1.174-.576.209.209,0,0,1,.332-.023l.122.089a.223.223,0,0,1,.077.31,1.968,1.968,0,0,1-1.527.92v.487A1.18,1.18,0,0,1,86.3,49.987a1.145,1.145,0,0,1-2,.763.2.2,0,0,1,0-.287l.155-.122a.2.2,0,0,1,.256,0,.635.635,0,0,0,.454.2.479.479,0,0,0,.487-.52c0-.51-.543-.632-.919-.7a.219.219,0,0,1-.189-.221v-.776A2.267,2.267,0,0,1,82.7,46.055a2.333,2.333,0,0,1,2.281-2.337" transform="translate(17.929 9.478)" fill="#323233"/>
    <path id="Path_578" data-name="Path 578" d="M88.508,46a3.631,3.631,0,0,1,.942.145c.011-.819-.089-1.2-.72-1.2a3.908,3.908,0,0,0-1.329.243c-.111.045-.178-.011-.211-.111L87.1,44.8c-.045-.133.022-.2.122-.243a4.177,4.177,0,0,1,1.539-.287c1.129,0,1.407.576,1.407,1.871V48.6a.218.218,0,0,1-.211.211h-.211c-.122,0-.155-.066-.189-.165l-.088-.3a1.918,1.918,0,0,1-1.374.576,1.344,1.344,0,0,1-1.362-1.45c0-.842.63-1.474,1.772-1.474m-1.528-3.654c-.089-.045-.078-.167-.045-.243.1-.2.288-.931,1.02-.931.664,0,.875.82,1.218.82.31,0,.443-.377.5-.566.033-.111.133-.144.254-.089l.176.089c.134.067.067.21.045.288-.111.321-.377.9-.986.9s-.908-.83-1.218-.83-.41.321-.488.552a.177.177,0,0,1-.277.112Zm1.24,5.914a1.568,1.568,0,0,0,1.218-.621v-.875a1.994,1.994,0,0,0-.93-.176c-.621,0-1.063.31-1.063.886a.747.747,0,0,0,.775.786" transform="translate(18.804 8.925)" fill="#323233"/>
    <path id="Path_579" data-name="Path 579" d="M92.753,43.719a2.329,2.329,0,1,1-2.2,2.313,2.27,2.27,0,0,1,2.2-2.313m0,3.931a1.526,1.526,0,0,0,1.439-1.618,1.446,1.446,0,1,0-2.879,0,1.526,1.526,0,0,0,1.439,1.618" transform="translate(19.63 9.478)" fill="#323233"/>
    <path id="Path_580" data-name="Path 580" d="M99.084,44.29a2.374,2.374,0,0,1,1.184.287V41.289a.218.218,0,0,1,.211-.211h.343a.218.218,0,0,1,.211.211V48.62a.218.218,0,0,1-.211.211h-.232a.2.2,0,0,1-.189-.176l-.066-.3a1.983,1.983,0,0,1-1.363.586A2.193,2.193,0,0,1,96.957,46.6a2.122,2.122,0,0,1,2.127-2.314m-.034,3.953a1.5,1.5,0,0,0,1.207-.73V45.3a2.374,2.374,0,0,0-1.074-.266,1.42,1.42,0,0,0-1.45,1.584,1.465,1.465,0,0,0,1.318,1.628" transform="translate(21.02 8.905)" fill="#323233"/>
    <path id="Path_581" data-name="Path 581" d="M103.516,43.718a1.955,1.955,0,0,1,2,2.026,2.73,2.73,0,0,1-.022.3.2.2,0,0,1-.2.189h-3.189a1.554,1.554,0,0,0,1.483,1.439,2.108,2.108,0,0,0,1.1-.332c.156-.089.223-.144.31-.022.067.089.123.167.189.254s.122.167-.045.288a2.746,2.746,0,0,1-1.627.51,2.331,2.331,0,0,1,0-4.652m1.24,1.893a1.28,1.28,0,0,0-1.24-1.218,1.378,1.378,0,0,0-1.4,1.218Z" transform="translate(21.971 9.478)" fill="#323233"/>
    <path id="Path_582" data-name="Path 582" d="M108.072,41.29a.211.211,0,0,1,.211-.211h4.363a.211.211,0,0,1,.211.211v.321a.211.211,0,0,1-.211.211h-3.721v3.033H112.1a.219.219,0,0,1,.21.211v.322a.218.218,0,0,1-.21.211h-3.178v3.023a.218.218,0,0,1-.211.211h-.432a.211.211,0,0,1-.211-.211Z" transform="translate(23.429 8.906)" fill="#323233"/>
    <path id="Path_583" data-name="Path 583" d="M114.086,45.446a3.631,3.631,0,0,1,.942.145c.011-.819-.089-1.2-.72-1.2a3.908,3.908,0,0,0-1.329.243c-.111.045-.178-.011-.211-.111l-.089-.277c-.045-.133.022-.2.122-.243a4.177,4.177,0,0,1,1.539-.287c1.129,0,1.407.576,1.407,1.871v2.458a.218.218,0,0,1-.211.211h-.211c-.122,0-.155-.066-.189-.165l-.088-.3a1.917,1.917,0,0,1-1.374.576,1.344,1.344,0,0,1-1.362-1.45c0-.842.63-1.474,1.772-1.474m-.288,2.26a1.568,1.568,0,0,0,1.218-.621V46.21a1.994,1.994,0,0,0-.93-.176c-.621,0-1.063.31-1.063.886a.747.747,0,0,0,.775.786" transform="translate(24.349 9.478)" fill="#323233"/>
    <path id="Path_584" data-name="Path 584" d="M116.41,41.289a.218.218,0,0,1,.21-.211h.343a.218.218,0,0,1,.211.211v3.289a2.374,2.374,0,0,1,1.184-.287,2.122,2.122,0,0,1,2.127,2.314,2.193,2.193,0,0,1-2.015,2.336,1.983,1.983,0,0,1-1.363-.586l-.067.3a.2.2,0,0,1-.189.176h-.231a.218.218,0,0,1-.21-.211Zm1.982,6.955a1.465,1.465,0,0,0,1.318-1.628,1.42,1.42,0,0,0-1.45-1.584,2.374,2.374,0,0,0-1.074.266v2.216a1.5,1.5,0,0,0,1.207.73" transform="translate(25.237 8.905)" fill="#323233"/>
    <path id="Path_585" data-name="Path 585" d="M120.788,44.039a.218.218,0,0,1,.21-.211h.211a.19.19,0,0,1,.189.156l.089.321a1.635,1.635,0,0,1,1.329-.588c.332,0,.886.056.775.365l-.133.377c-.056.145-.156.145-.266.1a1.15,1.15,0,0,0-.432-.089,1.422,1.422,0,0,0-1.207.621v2.957a.218.218,0,0,1-.211.211H121a.218.218,0,0,1-.21-.211Z" transform="translate(26.186 9.478)" fill="#323233"/>
    <path id="Path_586" data-name="Path 586" d="M123.7,41.793a.526.526,0,1,1,.521.52.522.522,0,0,1-.521-.52m.155,2.779a.218.218,0,0,1,.211-.211h.343a.218.218,0,0,1,.211.211v4.009a.218.218,0,0,1-.211.211h-.343a.218.218,0,0,1-.211-.211Z" transform="translate(26.818 8.945)" fill="#323233"/>
    <path id="Path_587" data-name="Path 587" d="M127.757,43.718a1.916,1.916,0,0,1,1.584.775.218.218,0,0,1-.045.31l-.211.178c-.165.155-.221.044-.321-.045a1.366,1.366,0,0,0-1.018-.465,1.588,1.588,0,0,0-.011,3.167,1.477,1.477,0,0,0,1.174-.576c.133-.133.209-.112.332-.023l.122.089a.223.223,0,0,1,.077.31,1.983,1.983,0,0,1-1.694.93,2.275,2.275,0,0,1-2.271-2.313,2.333,2.333,0,0,1,2.281-2.337" transform="translate(27.202 9.478)" fill="#323233"/>
    <path id="Path_588" data-name="Path 588" d="M131.273,45.446a3.615,3.615,0,0,1,.941.145c.011-.819-.089-1.2-.72-1.2a3.922,3.922,0,0,0-1.329.243c-.111.045-.178-.011-.211-.111l-.089-.277c-.044-.133.023-.2.122-.243a4.187,4.187,0,0,1,1.54-.287c1.129,0,1.407.576,1.407,1.871v2.458a.218.218,0,0,1-.211.211h-.211c-.122,0-.155-.066-.189-.165l-.089-.3a1.914,1.914,0,0,1-1.373.576,1.345,1.345,0,0,1-1.363-1.45c0-.842.632-1.474,1.773-1.474m-.288,2.26a1.57,1.57,0,0,0,1.218-.621V46.21a1.994,1.994,0,0,0-.93-.176c-.621,0-1.063.31-1.063.886a.746.746,0,0,0,.775.786" transform="translate(28.075 9.478)" fill="#323233"/>
    <path id="Path_589" data-name="Path 589" d="M133.587,44.039a.218.218,0,0,1,.21-.211h.211a.161.161,0,0,1,.178.133l.1.344a2.471,2.471,0,0,1,1.55-.588c1.285,0,1.717.842,1.717,1.993v2.337a.218.218,0,0,1-.21.211h-.355a.219.219,0,0,1-.211-.211V45.711c0-.841-.376-1.251-1-1.251a2.183,2.183,0,0,0-1.429.632v2.957a.218.218,0,0,1-.21.211H133.8a.218.218,0,0,1-.21-.211Z" transform="translate(28.961 9.478)" fill="#323233"/>
    <path id="Path_590" data-name="Path 590" d="M138.467,44.734H137.9a.21.21,0,0,1-.211-.211V44.28a.2.2,0,0,1,.211-.211h.565V42.841a.217.217,0,0,1,.211-.211l.354-.023a.209.209,0,0,1,.2.211V44.07h1.285a.2.2,0,0,1,.211.211v.243a.21.21,0,0,1-.211.211h-1.285v2.592c0,.444.111.532.365.532a2.128,2.128,0,0,0,.809-.243c.167-.089.211-.022.266.067l.165.276c.078.133.045.2-.077.276a2.9,2.9,0,0,1-1.274.377c-.887,0-1.02-.532-1.02-1.218Z" transform="translate(29.851 9.237)" fill="#323233"/>
    <path id="Path_591" data-name="Path 591" d="M143.114,43.718a1.955,1.955,0,0,1,2,2.026,2.728,2.728,0,0,1-.022.3.2.2,0,0,1-.2.189h-3.189a1.554,1.554,0,0,0,1.483,1.439,2.108,2.108,0,0,0,1.1-.332c.156-.089.223-.144.31-.022.067.089.123.167.189.254s.122.167-.045.288a2.746,2.746,0,0,1-1.627.51,2.331,2.331,0,0,1,0-4.652m1.24,1.893a1.28,1.28,0,0,0-1.24-1.218,1.378,1.378,0,0,0-1.4,1.218Z" transform="translate(30.555 9.478)" fill="#323233"/>
    <path id="Path_592" data-name="Path 592" d="M145.152,47.639c.044-.067.122-.221.156-.276a.2.2,0,0,1,.3-.034,1.865,1.865,0,0,0,1.042.388c.454,0,.719-.232.719-.532,0-.388-.332-.566-.973-.886-.588-.288-1.263-.677-1.263-1.43a1.245,1.245,0,0,1,1.407-1.151,2.265,2.265,0,0,1,1.229.343.266.266,0,0,1,.066.343l-.088.178a.245.245,0,0,1-.321.1,2.2,2.2,0,0,0-.886-.266c-.5,0-.632.256-.632.444,0,.365.365.531.82.752.764.366,1.45.708,1.45,1.506a1.4,1.4,0,0,1-1.528,1.251,2.25,2.25,0,0,1-1.441-.5.222.222,0,0,1-.055-.232" transform="translate(31.463 9.478)" fill="#323233"/>
    <path id="Path_593" data-name="Path 593" d="M149.1,46.5c.354,0,.73.2.73,1a3.045,3.045,0,0,1-.93,2.049c-.111.1-.2.088-.265.022l-.156-.155c-.055-.056-.044-.167.067-.266a1.888,1.888,0,0,0,.686-1.394.614.614,0,0,1-.133.01.639.639,0,0,1-.632-.632.631.631,0,0,1,.632-.63" transform="translate(32.181 10.082)" fill="#323233"/>
    <path id="Path_594" data-name="Path 594" d="M153.03,41.289a.211.211,0,0,1,.211-.211h2.447a2.469,2.469,0,1,1,.012,4.939h-1.828v2.6a.219.219,0,0,1-.211.211h-.421a.211.211,0,0,1-.211-.211Zm2.6,3.91a1.692,1.692,0,0,0,1.683-1.694,1.634,1.634,0,0,0-1.683-1.584h-1.761V45.2Z" transform="translate(33.176 8.905)" fill="#323233"/>
    <path id="Path_595" data-name="Path 595" d="M157.973,44.039a.218.218,0,0,1,.21-.211h.211a.19.19,0,0,1,.189.156l.089.321A1.635,1.635,0,0,1,160,43.718c.332,0,.886.056.775.365l-.133.377c-.056.145-.156.145-.266.1a1.15,1.15,0,0,0-.432-.089,1.422,1.422,0,0,0-1.207.621v2.957a.218.218,0,0,1-.211.211h-.343a.218.218,0,0,1-.21-.211Z" transform="translate(34.247 9.478)" fill="#323233"/>
    <path id="Path_596" data-name="Path 596" d="M162.894,43.718a1.955,1.955,0,0,1,2,2.026,2.728,2.728,0,0,1-.022.3.2.2,0,0,1-.2.189h-3.189a1.554,1.554,0,0,0,1.483,1.439,2.108,2.108,0,0,0,1.1-.332c.156-.089.223-.144.31-.022.067.089.123.167.189.254s.122.167-.045.288a2.746,2.746,0,0,1-1.627.51,2.331,2.331,0,0,1,0-4.652m1.24,1.893a1.28,1.28,0,0,0-1.24-1.218,1.378,1.378,0,0,0-1.4,1.218Z" transform="translate(34.843 9.478)" fill="#323233"/>
    <path id="Path_597" data-name="Path 597" d="M164.932,47.639c.044-.067.122-.221.156-.276a.2.2,0,0,1,.3-.034,1.865,1.865,0,0,0,1.042.388c.454,0,.719-.232.719-.532,0-.388-.332-.566-.973-.886-.588-.288-1.263-.677-1.263-1.43a1.245,1.245,0,0,1,1.407-1.151,2.265,2.265,0,0,1,1.229.343.266.266,0,0,1,.066.343l-.088.178a.245.245,0,0,1-.321.1,2.2,2.2,0,0,0-.886-.266c-.5,0-.632.256-.632.444,0,.365.365.531.82.752.764.366,1.45.708,1.45,1.506a1.4,1.4,0,0,1-1.528,1.251,2.25,2.25,0,0,1-1.441-.5.222.222,0,0,1-.055-.232" transform="translate(35.751 9.478)" fill="#323233"/>
    <path id="Path_598" data-name="Path 598" d="M168.761,44.734H168.2a.21.21,0,0,1-.211-.211V44.28a.2.2,0,0,1,.211-.211h.565V42.841a.217.217,0,0,1,.211-.211l.354-.023a.209.209,0,0,1,.2.211V44.07h1.285a.2.2,0,0,1,.21.211v.243a.21.21,0,0,1-.21.211h-1.285v2.592c0,.444.111.532.365.532a2.128,2.128,0,0,0,.809-.243c.167-.089.211-.022.266.067l.165.276c.078.133.045.2-.077.276a2.9,2.9,0,0,1-1.274.377c-.887,0-1.02-.532-1.02-1.218Z" transform="translate(36.418 9.237)" fill="#323233"/>
    <path id="Path_599" data-name="Path 599" d="M173.009,45.446a3.628,3.628,0,0,1,.941.145c.011-.819-.089-1.2-.72-1.2a3.9,3.9,0,0,0-1.328.243c-.112.045-.178-.011-.212-.111l-.089-.277c-.045-.133.023-.2.123-.243a4.163,4.163,0,0,1,1.539-.287c1.128,0,1.405.576,1.405,1.871v2.458a.218.218,0,0,1-.211.211h-.209c-.123,0-.155-.066-.189-.165l-.089-.3a1.915,1.915,0,0,1-1.374.576,1.344,1.344,0,0,1-1.362-1.45c0-.842.632-1.474,1.773-1.474m-.288,2.26a1.567,1.567,0,0,0,1.217-.621V46.21a1.988,1.988,0,0,0-.928-.176c-.622,0-1.065.31-1.065.886a.747.747,0,0,0,.776.786" transform="translate(37.123 9.478)" fill="#323233"/>
    <path id="Path_600" data-name="Path 600" d="M177.186,44.29a2.374,2.374,0,0,1,1.184.287V41.289a.218.218,0,0,1,.211-.211h.343a.218.218,0,0,1,.211.211V48.62a.218.218,0,0,1-.211.211h-.232a.2.2,0,0,1-.189-.176l-.066-.3a1.983,1.983,0,0,1-1.363.586,2.193,2.193,0,0,1-2.015-2.336,2.122,2.122,0,0,1,2.127-2.314m-.034,3.953a1.5,1.5,0,0,0,1.207-.73V45.3a2.374,2.374,0,0,0-1.074-.266,1.42,1.42,0,0,0-1.45,1.584,1.465,1.465,0,0,0,1.318,1.628" transform="translate(37.951 8.905)" fill="#323233"/>
    <path id="Path_601" data-name="Path 601" d="M181.651,43.719a2.329,2.329,0,1,1-2.2,2.313,2.27,2.27,0,0,1,2.2-2.313m0,3.931a1.526,1.526,0,0,0,1.439-1.618,1.446,1.446,0,1,0-2.879,0,1.526,1.526,0,0,0,1.439,1.618" transform="translate(38.903 9.478)" fill="#323233"/>
    <path id="Path_602" data-name="Path 602" d="M184.1,44.039a.218.218,0,0,1,.21-.211h.211a.19.19,0,0,1,.189.156l.089.321a1.635,1.635,0,0,1,1.329-.588c.332,0,.886.056.775.365l-.133.377c-.056.145-.156.145-.266.1a1.15,1.15,0,0,0-.432-.089,1.422,1.422,0,0,0-1.207.621v2.957a.218.218,0,0,1-.211.211h-.343a.218.218,0,0,1-.21-.211Z" transform="translate(39.911 9.478)" fill="#323233"/>
    <path id="Path_603" data-name="Path 603" d="M189.019,43.718a1.955,1.955,0,0,1,2,2.026,2.728,2.728,0,0,1-.022.3.2.2,0,0,1-.2.189h-3.189a1.554,1.554,0,0,0,1.483,1.439,2.108,2.108,0,0,0,1.1-.332c.156-.089.223-.144.31-.022.067.089.123.167.189.254s.122.167-.045.288a2.746,2.746,0,0,1-1.627.51,2.331,2.331,0,0,1,0-4.652m1.24,1.893a1.28,1.28,0,0,0-1.24-1.218,1.378,1.378,0,0,0-1.4,1.218Z" transform="translate(40.507 9.478)" fill="#323233"/>
    <path id="Path_604" data-name="Path 604" d="M191.057,47.639c.044-.067.122-.221.156-.276a.2.2,0,0,1,.3-.034,1.865,1.865,0,0,0,1.042.388c.454,0,.719-.232.719-.532,0-.388-.332-.566-.973-.886-.588-.288-1.263-.677-1.263-1.43a1.245,1.245,0,0,1,1.407-1.151,2.265,2.265,0,0,1,1.229.343.266.266,0,0,1,.066.343l-.088.178a.245.245,0,0,1-.321.1,2.2,2.2,0,0,0-.886-.266c-.5,0-.632.256-.632.444,0,.365.365.531.82.752.764.366,1.45.708,1.45,1.506a1.4,1.4,0,0,1-1.528,1.251,2.25,2.25,0,0,1-1.441-.5.222.222,0,0,1-.055-.232" transform="translate(41.415 9.478)" fill="#323233"/>
    <path id="Path_605" data-name="Path 605" d="M198.4,44.29a2.374,2.374,0,0,1,1.184.287V41.289a.218.218,0,0,1,.21-.211h.343a.218.218,0,0,1,.21.211V48.62a.218.218,0,0,1-.21.211H199.9a.2.2,0,0,1-.189-.176l-.066-.3a1.983,1.983,0,0,1-1.363.586,2.193,2.193,0,0,1-2.015-2.336A2.122,2.122,0,0,1,198.4,44.29m-.034,3.953a1.5,1.5,0,0,0,1.207-.73V45.3a2.374,2.374,0,0,0-1.074-.266,1.42,1.42,0,0,0-1.45,1.584,1.465,1.465,0,0,0,1.318,1.628" transform="translate(42.55 8.905)" fill="#323233"/>
    <path id="Path_606" data-name="Path 606" d="M202.827,43.718a1.955,1.955,0,0,1,2,2.026,2.735,2.735,0,0,1-.022.3.2.2,0,0,1-.2.189h-3.189a1.551,1.551,0,0,0,1.482,1.439,2.108,2.108,0,0,0,1.1-.332c.157-.089.223-.144.311-.022.066.089.122.167.187.254s.122.167-.045.288a2.746,2.746,0,0,1-1.627.51,2.331,2.331,0,0,1,0-4.652m1.241,1.893a1.282,1.282,0,0,0-1.241-1.218,1.376,1.376,0,0,0-1.394,1.218Z" transform="translate(43.501 9.478)" fill="#323233"/>
    <path id="Path_607" data-name="Path 607" d="M206.984,47.688c.055-.067.111-.145.167-.211.11-.145.232-.232.387-.1a3.057,3.057,0,0,0,1.871.842A1.336,1.336,0,0,0,210.893,47c0-.763-.664-1.217-1.938-1.75-1.218-.531-1.949-1.029-1.949-2.292a2.108,2.108,0,0,1,2.359-1.97,3.625,3.625,0,0,1,1.893.563.247.247,0,0,1,.067.377c-.044.066-.089.145-.133.211a.251.251,0,0,1-.388.1,3.106,3.106,0,0,0-1.45-.51c-1.174,0-1.53.753-1.53,1.219,0,.741.566,1.173,1.5,1.561,1.494.61,2.458,1.173,2.458,2.458a2.2,2.2,0,0,1-2.392,1.993,3.6,3.6,0,0,1-2.336-.9.242.242,0,0,1-.067-.376" transform="translate(44.859 8.886)" fill="#323233"/>
    <path id="Path_608" data-name="Path 608" d="M213.86,43.718a1.955,1.955,0,0,1,2,2.026,2.735,2.735,0,0,1-.022.3.2.2,0,0,1-.2.189h-3.189a1.554,1.554,0,0,0,1.483,1.439,2.108,2.108,0,0,0,1.1-.332c.156-.089.223-.144.31-.022.067.089.123.167.189.254s.122.167-.045.288a2.746,2.746,0,0,1-1.627.51,2.331,2.331,0,0,1,0-4.652m1.24,1.893a1.28,1.28,0,0,0-1.24-1.218,1.378,1.378,0,0,0-1.4,1.218Z" transform="translate(45.892 9.478)" fill="#323233"/>
    <path id="Path_609" data-name="Path 609" d="M216.112,44.039a.218.218,0,0,1,.211-.211h.21a.19.19,0,0,1,.189.156l.089.321a1.635,1.635,0,0,1,1.329-.588c.332,0,.886.056.775.365l-.133.377c-.056.145-.156.145-.266.1a1.15,1.15,0,0,0-.432-.089,1.422,1.422,0,0,0-1.207.621v2.957a.218.218,0,0,1-.211.211h-.343a.218.218,0,0,1-.211-.211Z" transform="translate(46.851 9.478)" fill="#323233"/>
    <path id="Path_610" data-name="Path 610" d="M218.71,44.063c-.066-.144,0-.254.167-.254h.343a.216.216,0,0,1,.2.122l1.374,3.167h.01l1.463-3.167a.21.21,0,0,1,.189-.122h.287c.167,0,.232.111.167.254l-1.895,4.176a.2.2,0,0,1-.187.11h-.056a.2.2,0,0,1-.187-.11Z" transform="translate(47.409 9.497)" fill="#323233"/>
    <path id="Path_611" data-name="Path 611" d="M222.822,41.793a.526.526,0,1,1,.521.52.522.522,0,0,1-.521-.52m.155,2.779a.218.218,0,0,1,.21-.211h.343a.218.218,0,0,1,.21.211v4.009a.218.218,0,0,1-.21.211h-.343a.218.218,0,0,1-.21-.211Z" transform="translate(48.306 8.945)" fill="#323233"/>
    <path id="Path_612" data-name="Path 612" d="M226.886,43.718a1.916,1.916,0,0,1,1.584.775.217.217,0,0,1-.045.31l-.211.178c-.165.155-.221.044-.321-.045a1.364,1.364,0,0,0-1.018-.465,1.588,1.588,0,0,0-.011,3.167,1.477,1.477,0,0,0,1.174-.576.209.209,0,0,1,.332-.023l.122.089a.224.224,0,0,1,.078.31,1.973,1.973,0,0,1-1.528.92v.487a1.18,1.18,0,0,1,1.162,1.141,1.145,1.145,0,0,1-2,.763.2.2,0,0,1,0-.287l.155-.122a.2.2,0,0,1,.256,0,.635.635,0,0,0,.454.2.479.479,0,0,0,.487-.52c0-.51-.543-.632-.919-.7a.219.219,0,0,1-.189-.221v-.776a2.267,2.267,0,0,1-1.839-2.269,2.333,2.333,0,0,1,2.281-2.337" transform="translate(48.693 9.478)" fill="#323233"/>
    <path id="Path_613" data-name="Path 613" d="M230.842,43.719a2.329,2.329,0,1,1-2.2,2.313,2.27,2.27,0,0,1,2.2-2.313m0,3.931a1.526,1.526,0,0,0,1.439-1.618,1.446,1.446,0,1,0-2.879,0,1.526,1.526,0,0,0,1.439,1.618" transform="translate(49.567 9.478)" fill="#323233"/>
    <path id="Path_614" data-name="Path 614" d="M233.075,47.639c.044-.067.122-.221.156-.276a.2.2,0,0,1,.3-.034,1.865,1.865,0,0,0,1.042.388c.454,0,.719-.232.719-.532,0-.388-.332-.566-.973-.886-.588-.288-1.263-.677-1.263-1.43a1.245,1.245,0,0,1,1.407-1.151,2.265,2.265,0,0,1,1.229.343.266.266,0,0,1,.066.343l-.088.178a.245.245,0,0,1-.321.1,2.2,2.2,0,0,0-.886-.266c-.5,0-.632.256-.632.444,0,.365.365.531.82.752.764.366,1.45.708,1.45,1.506a1.4,1.4,0,0,1-1.528,1.251,2.25,2.25,0,0,1-1.441-.5.222.222,0,0,1-.055-.232" transform="translate(50.524 9.478)" fill="#323233"/>
    <path id="Path_615" data-name="Path 615" d="M237.019,46.5c.355,0,.731.2.731,1a3.04,3.04,0,0,1-.931,2.049c-.111.1-.2.088-.265.022l-.156-.155c-.055-.056-.044-.167.067-.266a1.888,1.888,0,0,0,.686-1.394.609.609,0,0,1-.133.01.639.639,0,0,1-.632-.632.631.631,0,0,1,.632-.63" transform="translate(51.242 10.082)" fill="#323233"/>
    <path id="Path_616" data-name="Path 616" d="M55.695,49.808a.208.208,0,0,1,.2-.211h2.48a3.876,3.876,0,1,1,0,7.752h-2.48a.208.208,0,0,1-.2-.211Zm2.5,6.778a3.117,3.117,0,1,0,0-6.235H56.536v6.235Z" transform="translate(12.074 10.752)" fill="#323233"/>
    <path id="Path_617" data-name="Path 617" d="M61.967,50.311a.526.526,0,1,1,.521.52.522.522,0,0,1-.521-.52m.155,2.779a.218.218,0,0,1,.211-.211h.343a.218.218,0,0,1,.211.211V57.1a.218.218,0,0,1-.211.211h-.343a.218.218,0,0,1-.211-.211Z" transform="translate(13.434 10.792)" fill="#323233"/>
    <path id="Path_618" data-name="Path 618" d="M63.8,56.158c.044-.067.122-.221.156-.276a.2.2,0,0,1,.3-.034,1.865,1.865,0,0,0,1.042.388c.454,0,.72-.232.72-.532,0-.388-.333-.566-.975-.886-.588-.288-1.263-.677-1.263-1.43a1.245,1.245,0,0,1,1.407-1.151,2.265,2.265,0,0,1,1.229.343.266.266,0,0,1,.066.343l-.088.178a.245.245,0,0,1-.321.1,2.2,2.2,0,0,0-.886-.266c-.5,0-.632.256-.632.444,0,.365.365.531.82.752.764.366,1.45.708,1.45,1.506A1.4,1.4,0,0,1,65.3,56.888a2.25,2.25,0,0,1-1.441-.5.222.222,0,0,1-.055-.232" transform="translate(13.827 11.325)" fill="#323233"/>
    <path id="Path_619" data-name="Path 619" d="M67.63,53.252h-.565a.21.21,0,0,1-.211-.211V52.8a.2.2,0,0,1,.211-.211h.565V51.359a.217.217,0,0,1,.211-.211l.354-.023a.209.209,0,0,1,.2.211v1.252h1.285a.2.2,0,0,1,.211.211v.243a.21.21,0,0,1-.211.211H68.394v2.592c0,.444.111.532.365.532a2.128,2.128,0,0,0,.809-.243c.167-.089.211-.022.266.067l.165.276c.078.133.045.2-.077.276a2.9,2.9,0,0,1-1.274.377c-.887,0-1.02-.532-1.02-1.218Z" transform="translate(14.494 11.083)" fill="#323233"/>
    <path id="Path_620" data-name="Path 620" d="M70.369,52.557a.218.218,0,0,1,.21-.211h.211a.19.19,0,0,1,.189.156l.089.321a1.635,1.635,0,0,1,1.329-.588c.332,0,.886.056.775.365l-.133.377c-.056.145-.156.145-.266.1a1.15,1.15,0,0,0-.432-.089,1.422,1.422,0,0,0-1.207.621v2.957a.218.218,0,0,1-.211.211H70.58a.218.218,0,0,1-.21-.211Z" transform="translate(15.255 11.324)" fill="#323233"/>
    <path id="Path_621" data-name="Path 621" d="M73.282,50.311a.526.526,0,1,1,.521.52.522.522,0,0,1-.521-.52m.155,2.779a.218.218,0,0,1,.211-.211h.343a.218.218,0,0,1,.211.211V57.1a.218.218,0,0,1-.211.211h-.343a.218.218,0,0,1-.211-.211Z" transform="translate(15.887 10.792)" fill="#323233"/>
    <path id="Path_622" data-name="Path 622" d="M75.339,49.808a.218.218,0,0,1,.211-.211h.343a.218.218,0,0,1,.211.211V53.1a2.374,2.374,0,0,1,1.184-.287,2.122,2.122,0,0,1,2.127,2.314A2.193,2.193,0,0,1,77.4,57.46a1.983,1.983,0,0,1-1.363-.586l-.067.3a.2.2,0,0,1-.187.176H75.55a.218.218,0,0,1-.211-.211Zm1.982,6.955a1.465,1.465,0,0,0,1.318-1.628,1.42,1.42,0,0,0-1.45-1.584,2.374,2.374,0,0,0-1.074.266v2.216a1.5,1.5,0,0,0,1.207.73" transform="translate(16.333 10.752)" fill="#323233"/>
    <path id="Path_623" data-name="Path 623" d="M79.672,52.538a.218.218,0,0,1,.211-.211h.354a.218.218,0,0,1,.21.211v2.337c0,.841.377,1.251,1,1.251a1.754,1.754,0,0,0,1.319-.632V52.538a.217.217,0,0,1,.211-.211h.342a.217.217,0,0,1,.21.211v4.009a.217.217,0,0,1-.21.211H83.1c-.122,0-.165-.078-.2-.187l-.078-.29a2.02,2.02,0,0,1-1.439.588c-1.285,0-1.717-.831-1.717-2.005Z" transform="translate(17.272 11.344)" fill="#323233"/>
    <path id="Path_624" data-name="Path 624" d="M84,50.311a.526.526,0,1,1,.521.52.522.522,0,0,1-.521-.52m.155,2.779a.218.218,0,0,1,.211-.211h.343a.218.218,0,0,1,.211.211V57.1a.218.218,0,0,1-.211.211H84.37a.218.218,0,0,1-.211-.211Z" transform="translate(18.212 10.792)" fill="#323233"/>
    <path id="Path_625" data-name="Path 625" d="M87.916,52.809A2.374,2.374,0,0,1,89.1,53.1V49.808a.218.218,0,0,1,.21-.211h.343a.218.218,0,0,1,.211.211v7.331a.218.218,0,0,1-.211.211h-.232a.2.2,0,0,1-.189-.176l-.066-.3a1.983,1.983,0,0,1-1.363.586,2.193,2.193,0,0,1-2.015-2.336,2.122,2.122,0,0,1,2.127-2.314m-.034,3.953a1.5,1.5,0,0,0,1.207-.73V53.817a2.374,2.374,0,0,0-1.074-.266,1.42,1.42,0,0,0-1.45,1.584,1.465,1.465,0,0,0,1.318,1.628" transform="translate(18.598 10.752)" fill="#323233"/>
    <path id="Path_626" data-name="Path 626" d="M92.381,52.237a2.329,2.329,0,1,1-2.2,2.313,2.27,2.27,0,0,1,2.2-2.313m0,3.931A1.526,1.526,0,0,0,93.82,54.55a1.446,1.446,0,1,0-2.879,0,1.526,1.526,0,0,0,1.439,1.618" transform="translate(19.55 11.325)" fill="#323233"/>
    <path id="Path_627" data-name="Path 627" d="M94.828,52.557a.218.218,0,0,1,.211-.211h.211a.19.19,0,0,1,.189.156l.089.321a1.635,1.635,0,0,1,1.329-.588c.332,0,.886.056.775.365l-.133.377c-.056.145-.156.145-.266.1a1.15,1.15,0,0,0-.432-.089,1.422,1.422,0,0,0-1.207.621v2.957a.218.218,0,0,1-.211.211h-.343a.218.218,0,0,1-.211-.211Z" transform="translate(20.558 11.324)" fill="#323233"/>
    <path id="Path_628" data-name="Path 628" d="M99.748,52.236a1.955,1.955,0,0,1,2,2.026,2.73,2.73,0,0,1-.022.3.2.2,0,0,1-.2.189H98.341a1.554,1.554,0,0,0,1.483,1.439,2.116,2.116,0,0,0,1.1-.332c.155-.089.221-.144.309-.022.067.089.123.167.189.254s.122.167-.045.288a2.746,2.746,0,0,1-1.627.51,2.331,2.331,0,0,1,0-4.652m1.241,1.893a1.281,1.281,0,0,0-1.241-1.218,1.376,1.376,0,0,0-1.394,1.218Z" transform="translate(21.154 11.324)" fill="#323233"/>
    <path id="Path_629" data-name="Path 629" d="M101.787,56.158c.044-.067.122-.221.156-.276a.2.2,0,0,1,.3-.034,1.865,1.865,0,0,0,1.042.388c.454,0,.719-.232.719-.532,0-.388-.332-.566-.973-.886-.588-.288-1.263-.677-1.263-1.43a1.245,1.245,0,0,1,1.407-1.151,2.265,2.265,0,0,1,1.229.343.266.266,0,0,1,.066.343l-.088.178a.245.245,0,0,1-.321.1,2.2,2.2,0,0,0-.886-.266c-.5,0-.632.256-.632.444,0,.365.365.531.82.752.764.366,1.45.708,1.45,1.506a1.4,1.4,0,0,1-1.528,1.251,2.25,2.25,0,0,1-1.441-.5.222.222,0,0,1-.055-.232" transform="translate(22.062 11.325)" fill="#323233"/>
    <path id="Path_630" data-name="Path 630" d="M109.169,52.236a1.955,1.955,0,0,1,2,2.026,2.732,2.732,0,0,1-.022.3.2.2,0,0,1-.2.189h-3.189a1.554,1.554,0,0,0,1.483,1.439,2.108,2.108,0,0,0,1.1-.332c.156-.089.223-.144.31-.022.067.089.123.167.189.254s.122.167-.045.288a2.746,2.746,0,0,1-1.627.51,2.331,2.331,0,0,1,0-4.652m1.24,1.893a1.28,1.28,0,0,0-1.24-1.218,1.378,1.378,0,0,0-1.4,1.218Z" transform="translate(23.196 11.324)" fill="#323233"/>
    <path id="Path_631" data-name="Path 631" d="M113.725,49.808a.211.211,0,0,1,.211-.211H116.8a2.381,2.381,0,0,1,2.415,2.358,2.472,2.472,0,0,1-1.639,2.26l1.516,2.813a.209.209,0,0,1-.187.321h-.566a.19.19,0,0,1-.176-.1l-1.474-2.935h-2.115v2.824a.218.218,0,0,1-.211.211h-.432a.211.211,0,0,1-.211-.211Zm3.024,3.776a1.589,1.589,0,1,0,0-3.178H114.6v3.178Z" transform="translate(24.655 10.752)" fill="#323233"/>
    <path id="Path_632" data-name="Path 632" d="M121.094,52.236a1.955,1.955,0,0,1,2,2.026,2.728,2.728,0,0,1-.022.3.2.2,0,0,1-.2.189h-3.189a1.554,1.554,0,0,0,1.483,1.439,2.108,2.108,0,0,0,1.1-.332c.156-.089.223-.144.31-.022.067.089.123.167.189.254s.122.167-.045.288a2.746,2.746,0,0,1-1.627.51,2.331,2.331,0,0,1,0-4.652m1.24,1.893a1.28,1.28,0,0,0-1.24-1.218,1.378,1.378,0,0,0-1.4,1.218Z" transform="translate(25.782 11.324)" fill="#323233"/>
    <path id="Path_633" data-name="Path 633" d="M122.85,52.582c-.066-.144,0-.254.167-.254h.343a.216.216,0,0,1,.2.122l1.374,3.167h.01l1.463-3.167a.21.21,0,0,1,.189-.122h.287c.167,0,.232.111.167.254l-1.895,4.176a.2.2,0,0,1-.187.11h-.056a.2.2,0,0,1-.187-.11Z" transform="translate(26.628 11.344)" fill="#323233"/>
    <path id="Path_634" data-name="Path 634" d="M128.995,52.236a1.955,1.955,0,0,1,2,2.026,2.736,2.736,0,0,1-.022.3.2.2,0,0,1-.2.189h-3.189a1.554,1.554,0,0,0,1.483,1.439,2.108,2.108,0,0,0,1.1-.332c.156-.089.223-.144.31-.022.067.089.123.167.189.254s.122.167-.045.288a2.746,2.746,0,0,1-1.627.51,2.331,2.331,0,0,1,0-4.652m1.24,1.893a1.28,1.28,0,0,0-1.24-1.218,1.378,1.378,0,0,0-1.4,1.218Z" transform="translate(27.494 11.324)" fill="#323233"/>
    <path id="Path_635" data-name="Path 635" d="M131.248,52.557a.218.218,0,0,1,.211-.211h.21a.161.161,0,0,1,.178.133l.1.344a2.47,2.47,0,0,1,1.55-.588c1.285,0,1.717.842,1.717,1.993v2.337a.218.218,0,0,1-.211.211h-.355a.219.219,0,0,1-.211-.211V54.229c0-.841-.376-1.251-1-1.251a2.183,2.183,0,0,0-1.429.632v2.957a.218.218,0,0,1-.211.211h-.343a.218.218,0,0,1-.211-.211Z" transform="translate(28.454 11.324)" fill="#323233"/>
    <path id="Path_636" data-name="Path 636" d="M137.617,52.809a2.374,2.374,0,0,1,1.184.287V49.808a.218.218,0,0,1,.211-.211h.343a.218.218,0,0,1,.211.211v7.331a.218.218,0,0,1-.211.211h-.232a.2.2,0,0,1-.189-.176l-.066-.3a1.983,1.983,0,0,1-1.363.586,2.193,2.193,0,0,1-2.015-2.336,2.122,2.122,0,0,1,2.127-2.314m-.034,3.953a1.5,1.5,0,0,0,1.207-.73V53.817a2.374,2.374,0,0,0-1.074-.266,1.42,1.42,0,0,0-1.45,1.584,1.465,1.465,0,0,0,1.318,1.628" transform="translate(29.373 10.752)" fill="#323233"/>
    <path id="Path_637" data-name="Path 637" d="M142.049,52.236a1.955,1.955,0,0,1,2,2.026,2.728,2.728,0,0,1-.022.3.2.2,0,0,1-.2.189h-3.189a1.554,1.554,0,0,0,1.483,1.439,2.108,2.108,0,0,0,1.1-.332c.156-.089.223-.144.31-.022.067.089.123.167.189.254s.122.167-.045.288a2.746,2.746,0,0,1-1.627.51,2.331,2.331,0,0,1,0-4.652m1.24,1.893a1.28,1.28,0,0,0-1.24-1.218,1.378,1.378,0,0,0-1.4,1.218Z" transform="translate(30.324 11.324)" fill="#323233"/>
    <path id="Path_638" data-name="Path 638" d="M146.164,52.809a2.374,2.374,0,0,1,1.184.287V49.808a.218.218,0,0,1,.211-.211h.343a.218.218,0,0,1,.211.211v7.331a.218.218,0,0,1-.211.211h-.232a.2.2,0,0,1-.189-.176l-.066-.3a1.983,1.983,0,0,1-1.363.586,2.193,2.193,0,0,1-2.015-2.336,2.122,2.122,0,0,1,2.127-2.314m-.034,3.953a1.5,1.5,0,0,0,1.207-.73V53.817a2.374,2.374,0,0,0-1.074-.266,1.42,1.42,0,0,0-1.45,1.584,1.465,1.465,0,0,0,1.318,1.628" transform="translate(31.226 10.752)" fill="#323233"/>
    <path id="Path_639" data-name="Path 639" d="M150.629,52.237a2.329,2.329,0,1,1-2.2,2.313,2.27,2.27,0,0,1,2.2-2.313m0,3.931a1.526,1.526,0,0,0,1.439-1.618,1.446,1.446,0,1,0-2.879,0,1.526,1.526,0,0,0,1.439,1.618" transform="translate(32.177 11.325)" fill="#323233"/>
    <path id="Path_640" data-name="Path 640" d="M153.076,52.557a.218.218,0,0,1,.21-.211h.211a.19.19,0,0,1,.189.156l.089.321a1.635,1.635,0,0,1,1.329-.588c.332,0,.886.056.775.365l-.133.377c-.056.145-.156.145-.266.1a1.15,1.15,0,0,0-.432-.089,1.422,1.422,0,0,0-1.207.621v2.957a.218.218,0,0,1-.21.211h-.343a.218.218,0,0,1-.21-.211Z" transform="translate(33.186 11.324)" fill="#323233"/>
    <path id="Path_641" data-name="Path 641" d="M158,52.236a1.955,1.955,0,0,1,2,2.026,2.728,2.728,0,0,1-.022.3.2.2,0,0,1-.2.189H156.59a1.554,1.554,0,0,0,1.483,1.439,2.108,2.108,0,0,0,1.1-.332c.156-.089.223-.144.31-.022.067.089.123.167.189.254s.122.167-.045.288a2.746,2.746,0,0,1-1.627.51,2.331,2.331,0,0,1,0-4.652m1.24,1.893A1.28,1.28,0,0,0,158,52.911a1.378,1.378,0,0,0-1.4,1.218Z" transform="translate(33.782 11.324)" fill="#323233"/>
    <path id="Path_642" data-name="Path 642" d="M160.035,56.158c.044-.067.122-.221.156-.276a.2.2,0,0,1,.3-.034,1.865,1.865,0,0,0,1.042.388c.454,0,.719-.232.719-.532,0-.388-.332-.566-.973-.886-.588-.288-1.263-.677-1.263-1.43a1.245,1.245,0,0,1,1.407-1.151,2.265,2.265,0,0,1,1.229.343.266.266,0,0,1,.066.343l-.088.178a.245.245,0,0,1-.321.1,2.2,2.2,0,0,0-.886-.266c-.5,0-.632.256-.632.444,0,.365.365.531.82.752.764.366,1.45.708,1.45,1.506a1.4,1.4,0,0,1-1.528,1.251,2.25,2.25,0,0,1-1.441-.5.222.222,0,0,1-.055-.232" transform="translate(34.69 11.325)" fill="#323233"/>
    <path id="Path_643" data-name="Path 643" d="M167.373,52.809a2.374,2.374,0,0,1,1.184.287V49.808a.218.218,0,0,1,.211-.211h.343a.218.218,0,0,1,.211.211v7.331a.218.218,0,0,1-.211.211h-.232a.2.2,0,0,1-.189-.176l-.066-.3a1.983,1.983,0,0,1-1.363.586,2.193,2.193,0,0,1-2.015-2.336,2.122,2.122,0,0,1,2.127-2.314m-.034,3.953a1.5,1.5,0,0,0,1.207-.73V53.817a2.374,2.374,0,0,0-1.074-.266,1.42,1.42,0,0,0-1.45,1.584,1.465,1.465,0,0,0,1.318,1.628" transform="translate(35.824 10.752)" fill="#323233"/>
    <path id="Path_644" data-name="Path 644" d="M171.8,52.236a1.955,1.955,0,0,1,2,2.026,2.728,2.728,0,0,1-.022.3.2.2,0,0,1-.2.189H170.4a1.554,1.554,0,0,0,1.483,1.439,2.108,2.108,0,0,0,1.1-.332c.156-.089.223-.144.31-.022.067.089.123.167.189.254s.122.167-.045.288a2.746,2.746,0,0,1-1.627.51,2.331,2.331,0,0,1,0-4.652m1.24,1.893a1.28,1.28,0,0,0-1.24-1.218,1.378,1.378,0,0,0-1.4,1.218Z" transform="translate(36.775 11.324)" fill="#323233"/>
    <path id="Path_645" data-name="Path 645" d="M176.361,49.808a.211.211,0,0,1,.211-.211h2.447a2.469,2.469,0,1,1,.012,4.939H177.2v2.6a.219.219,0,0,1-.21.211h-.421a.211.211,0,0,1-.211-.211Zm2.6,3.91a1.692,1.692,0,0,0,1.683-1.694,1.634,1.634,0,0,0-1.683-1.584H177.2v3.278Z" transform="translate(38.234 10.752)" fill="#323233"/>
    <path id="Path_646" data-name="Path 646" d="M183.056,52.236a1.955,1.955,0,0,1,2,2.026,2.728,2.728,0,0,1-.022.3.2.2,0,0,1-.2.189h-3.189a1.554,1.554,0,0,0,1.483,1.439,2.108,2.108,0,0,0,1.1-.332c.156-.089.223-.144.31-.022.067.089.123.167.189.254s.122.167-.045.288a2.746,2.746,0,0,1-1.627.51,2.331,2.331,0,0,1,0-4.652m1.24,1.893a1.28,1.28,0,0,0-1.24-1.218,1.378,1.378,0,0,0-1.4,1.218Z" transform="translate(39.214 11.324)" fill="#323233"/>
    <path id="Path_647" data-name="Path 647" d="M187.326,52.236a1.916,1.916,0,0,1,1.584.775.217.217,0,0,1-.045.31l-.209.178c-.167.155-.223.044-.322-.045a1.364,1.364,0,0,0-1.018-.465,1.588,1.588,0,0,0-.011,3.167,1.477,1.477,0,0,0,1.174-.576.209.209,0,0,1,.332-.023l.122.089a.223.223,0,0,1,.077.31,1.968,1.968,0,0,1-1.527.92v.487a1.18,1.18,0,0,1,1.162,1.141,1.145,1.145,0,0,1-2,.763.2.2,0,0,1,0-.287l.155-.122a.2.2,0,0,1,.256,0,.635.635,0,0,0,.454.2.479.479,0,0,0,.487-.52c0-.51-.543-.632-.919-.7a.219.219,0,0,1-.189-.221v-.776a2.267,2.267,0,0,1-1.839-2.269,2.333,2.333,0,0,1,2.281-2.337" transform="translate(40.116 11.324)" fill="#323233"/>
    <path id="Path_648" data-name="Path 648" d="M190.851,53.964a3.612,3.612,0,0,1,.939.145c.011-.819-.089-1.2-.72-1.2a3.922,3.922,0,0,0-1.329.243c-.111.045-.178-.011-.209-.111l-.09-.277c-.044-.133.023-.2.122-.243a4.187,4.187,0,0,1,1.54-.287c1.129,0,1.407.576,1.407,1.871v2.458a.218.218,0,0,1-.211.211h-.211c-.122,0-.155-.066-.189-.165l-.088-.3a1.92,1.92,0,0,1-1.374.576,1.345,1.345,0,0,1-1.363-1.45c0-.842.632-1.474,1.774-1.474m-.288,2.26a1.569,1.569,0,0,0,1.217-.621v-.875a1.992,1.992,0,0,0-.928-.176c-.622,0-1.065.31-1.065.886a.747.747,0,0,0,.776.786" transform="translate(40.99 11.325)" fill="#323233"/>
    <path id="Path_649" data-name="Path 649" d="M192.95,56.158c.044-.067.122-.221.156-.276a.2.2,0,0,1,.3-.034,1.865,1.865,0,0,0,1.042.388c.454,0,.719-.232.719-.532,0-.388-.332-.566-.973-.886-.588-.288-1.263-.677-1.263-1.43a1.245,1.245,0,0,1,1.407-1.151,2.265,2.265,0,0,1,1.229.343.266.266,0,0,1,.066.343l-.088.178a.245.245,0,0,1-.321.1,2.2,2.2,0,0,0-.886-.266c-.5,0-.632.256-.632.444,0,.365.365.531.82.752.764.366,1.45.708,1.45,1.506a1.4,1.4,0,0,1-1.528,1.251,2.25,2.25,0,0,1-1.441-.5.222.222,0,0,1-.055-.232" transform="translate(41.825 11.325)" fill="#323233"/>
    <path id="Path_650" data-name="Path 650" d="M200.333,52.236a1.955,1.955,0,0,1,2,2.026,2.728,2.728,0,0,1-.022.3.2.2,0,0,1-.2.189h-3.189a1.554,1.554,0,0,0,1.483,1.439,2.108,2.108,0,0,0,1.1-.332c.156-.089.223-.144.31-.022.067.089.123.167.189.254s.122.167-.045.288a2.746,2.746,0,0,1-1.627.51,2.331,2.331,0,0,1,0-4.652m1.24,1.893a1.28,1.28,0,0,0-1.24-1.218,1.378,1.378,0,0,0-1.4,1.218Z" transform="translate(42.96 11.324)" fill="#323233"/>
    <path id="Path_651" data-name="Path 651" d="M205.864,49.661a.212.212,0,0,1,.2-.155h.176a.21.21,0,0,1,.189.122l2.194,6.1h.055l2.16-6.1a.21.21,0,0,1,.187-.122h.178a.212.212,0,0,1,.2.155L212.83,57.1c.033.156-.033.266-.2.266h-.443a.229.229,0,0,1-.2-.155L211,51.51h-.044l-2.038,5.848a.223.223,0,0,1-.189.122h-.2a.223.223,0,0,1-.189-.122l-2.06-5.848h-.045l-.962,5.7a.217.217,0,0,1-.2.155h-.443c-.167,0-.234-.111-.2-.266Z" transform="translate(44.318 10.733)" fill="#323233"/>
    <path id="Path_652" data-name="Path 652" d="M214.312,52.237a2.329,2.329,0,1,1-2.2,2.313,2.27,2.27,0,0,1,2.2-2.313m0,3.931a1.526,1.526,0,0,0,1.439-1.618,1.446,1.446,0,1,0-2.879,0,1.526,1.526,0,0,0,1.439,1.618" transform="translate(45.983 11.325)" fill="#323233"/>
    <path id="Path_653" data-name="Path 653" d="M217.133,53.252h-.565a.21.21,0,0,1-.211-.211V52.8a.2.2,0,0,1,.211-.211h.565V51.359a.217.217,0,0,1,.211-.211l.354-.023a.209.209,0,0,1,.2.211v1.252h1.285a.2.2,0,0,1,.211.211v.243a.21.21,0,0,1-.211.211H217.9v2.592c0,.444.111.532.365.532a2.128,2.128,0,0,0,.809-.243c.167-.089.211-.022.267.067l.165.276c.078.133.045.2-.078.276a2.883,2.883,0,0,1-1.273.377c-.887,0-1.02-.532-1.02-1.218Z" transform="translate(46.905 11.083)" fill="#323233"/>
    <path id="Path_654" data-name="Path 654" d="M221.812,52.237a2.329,2.329,0,1,1-2.2,2.313,2.27,2.27,0,0,1,2.2-2.313m0,3.931a1.526,1.526,0,0,0,1.439-1.618,1.446,1.446,0,1,0-2.879,0,1.526,1.526,0,0,0,1.439,1.618" transform="translate(47.609 11.325)" fill="#323233"/>
    <path id="Path_655" data-name="Path 655" d="M226.268,52.236a1.916,1.916,0,0,1,1.584.775.218.218,0,0,1-.045.31l-.211.178c-.165.155-.221.044-.321-.045a1.366,1.366,0,0,0-1.018-.465,1.588,1.588,0,0,0-.011,3.167,1.477,1.477,0,0,0,1.174-.576c.133-.133.209-.112.332-.023l.122.089a.223.223,0,0,1,.077.31,1.983,1.983,0,0,1-1.694.93,2.275,2.275,0,0,1-2.271-2.313,2.333,2.333,0,0,1,2.281-2.337" transform="translate(48.559 11.324)" fill="#323233"/>
    <path id="Path_656" data-name="Path 656" d="M228.147,50.311a.526.526,0,1,1,.521.52.522.522,0,0,1-.521-.52m.155,2.779a.218.218,0,0,1,.211-.211h.343a.218.218,0,0,1,.21.211V57.1a.218.218,0,0,1-.21.211h-.343a.218.218,0,0,1-.211-.211Z" transform="translate(49.46 10.792)" fill="#323233"/>
    <path id="Path_657" data-name="Path 657" d="M232.2,52.236a1.916,1.916,0,0,1,1.584.775.218.218,0,0,1-.045.31l-.211.178c-.165.155-.221.044-.321-.045a1.366,1.366,0,0,0-1.018-.465,1.588,1.588,0,0,0-.011,3.167,1.477,1.477,0,0,0,1.174-.576c.133-.133.209-.112.332-.023l.122.089a.223.223,0,0,1,.077.31,1.983,1.983,0,0,1-1.694.93,2.275,2.275,0,0,1-2.271-2.313,2.333,2.333,0,0,1,2.281-2.337" transform="translate(49.845 11.324)" fill="#323233"/>
    <rect id="Rectangle_35" data-name="Rectangle 35" width="0.764" height="7.752" rx="0.173" transform="translate(284.995 60.349)" fill="#323233"/>
    <path id="Path_658" data-name="Path 658" d="M238.055,52.236a1.955,1.955,0,0,1,2,2.026,2.728,2.728,0,0,1-.022.3.2.2,0,0,1-.2.189h-3.189a1.554,1.554,0,0,0,1.483,1.439,2.108,2.108,0,0,0,1.1-.332c.156-.089.223-.144.31-.022.067.089.123.167.189.254s.122.167-.045.288a2.746,2.746,0,0,1-1.627.51,2.331,2.331,0,0,1,0-4.652m1.24,1.893a1.28,1.28,0,0,0-1.24-1.218,1.378,1.378,0,0,0-1.4,1.218Z" transform="translate(51.138 11.324)" fill="#323233"/>
    <path id="Path_659" data-name="Path 659" d="M240.682,53.252h-.565a.21.21,0,0,1-.211-.211V52.8a.2.2,0,0,1,.211-.211h.565V51.359a.217.217,0,0,1,.21-.211l.354-.023a.209.209,0,0,1,.2.211v1.252h1.285a.2.2,0,0,1,.211.211v.243a.21.21,0,0,1-.211.211h-1.285v2.592c0,.444.111.532.365.532a2.128,2.128,0,0,0,.809-.243c.167-.089.211-.022.267.067l.165.276c.078.133.045.2-.077.276a2.9,2.9,0,0,1-1.274.377c-.887,0-1.02-.532-1.02-1.218Z" transform="translate(52.01 11.083)" fill="#323233"/>
    <path id="Path_660" data-name="Path 660" d="M244.929,53.964a3.63,3.63,0,0,1,.942.145c.011-.819-.089-1.2-.72-1.2a3.908,3.908,0,0,0-1.329.243c-.111.045-.178-.011-.211-.111l-.089-.277c-.045-.133.022-.2.122-.243a4.177,4.177,0,0,1,1.539-.287c1.129,0,1.407.576,1.407,1.871v2.458a.218.218,0,0,1-.211.211h-.21c-.122,0-.155-.066-.189-.165l-.088-.3a1.918,1.918,0,0,1-1.374.576,1.344,1.344,0,0,1-1.362-1.45c0-.842.63-1.474,1.772-1.474m-.288,2.26a1.568,1.568,0,0,0,1.218-.621v-.875a1.994,1.994,0,0,0-.93-.176c-.621,0-1.064.31-1.064.886a.747.747,0,0,0,.775.786" transform="translate(52.714 11.325)" fill="#323233"/>
    <path id="Path_661" data-name="Path 661" d="M247.03,56.158c.044-.067.122-.221.156-.276a.2.2,0,0,1,.3-.034,1.865,1.865,0,0,0,1.042.388c.454,0,.719-.232.719-.532,0-.388-.332-.566-.973-.886-.588-.288-1.263-.677-1.263-1.43a1.245,1.245,0,0,1,1.407-1.151,2.265,2.265,0,0,1,1.229.343.266.266,0,0,1,.066.343l-.088.178a.245.245,0,0,1-.321.1,2.2,2.2,0,0,0-.886-.266c-.5,0-.632.256-.632.444,0,.365.365.531.82.752.764.366,1.45.708,1.45,1.506a1.4,1.4,0,0,1-1.528,1.251,2.25,2.25,0,0,1-1.441-.5.222.222,0,0,1-.055-.232" transform="translate(53.549 11.325)" fill="#323233"/>
    <path id="Path_662" data-name="Path 662" d="M57.822,61.328a2.374,2.374,0,0,1,1.184.287V58.327a.218.218,0,0,1,.211-.211h.343a.218.218,0,0,1,.211.211v7.331a.218.218,0,0,1-.211.21h-.232a.2.2,0,0,1-.189-.176l-.066-.3a1.983,1.983,0,0,1-1.363.586,2.193,2.193,0,0,1-2.015-2.336,2.122,2.122,0,0,1,2.127-2.314m-.034,3.953a1.5,1.5,0,0,0,1.207-.73V62.336a2.374,2.374,0,0,0-1.074-.266,1.42,1.42,0,0,0-1.45,1.584,1.465,1.465,0,0,0,1.318,1.628" transform="translate(12.074 12.599)" fill="#323233"/>
    <path id="Path_663" data-name="Path 663" d="M62.287,60.756a2.329,2.329,0,1,1-2.2,2.313,2.27,2.27,0,0,1,2.2-2.313m0,3.931a1.526,1.526,0,0,0,1.439-1.618,1.446,1.446,0,1,0-2.879,0,1.526,1.526,0,0,0,1.439,1.618" transform="translate(13.026 13.171)" fill="#323233"/>
    <path id="Path_664" data-name="Path 664" d="M67.037,58.225a.208.208,0,0,1,.21-.2h.276l4.995,6.224h.023v-5.9a.211.211,0,0,1,.211-.211h.387a.218.218,0,0,1,.21.211V65.8a.208.208,0,0,1-.21.2h-.2l-5.083-6.346h-.012v6.024a.211.211,0,0,1-.211.21h-.387a.218.218,0,0,1-.21-.21Z" transform="translate(14.533 12.579)" fill="#323233"/>
    <path id="Path_665" data-name="Path 665" d="M75.568,60.756a2.329,2.329,0,1,1-2.2,2.313,2.27,2.27,0,0,1,2.2-2.313m0,3.931a1.526,1.526,0,0,0,1.439-1.618,1.446,1.446,0,1,0-2.879,0,1.526,1.526,0,0,0,1.439,1.618" transform="translate(15.905 13.171)" fill="#323233"/>
    <path id="Path_666" data-name="Path 666" d="M78.014,61.076a.218.218,0,0,1,.211-.211h.211a.19.19,0,0,1,.189.156l.089.321a1.635,1.635,0,0,1,1.329-.588c.332,0,.886.056.775.365l-.133.377c-.056.145-.156.145-.266.1a1.15,1.15,0,0,0-.432-.089,1.422,1.422,0,0,0-1.207.621v2.957a.218.218,0,0,1-.211.21h-.343a.218.218,0,0,1-.211-.21Z" transform="translate(16.913 13.171)" fill="#323233"/>
    <path id="Path_667" data-name="Path 667" d="M82.918,61.328a2.374,2.374,0,0,1,1.184.287V58.327a.218.218,0,0,1,.211-.211h.343a.218.218,0,0,1,.211.211v7.331a.218.218,0,0,1-.211.21h-.232a.2.2,0,0,1-.189-.176l-.066-.3a1.983,1.983,0,0,1-1.363.586,2.193,2.193,0,0,1-2.015-2.336,2.122,2.122,0,0,1,2.127-2.314m-.034,3.953a1.5,1.5,0,0,0,1.207-.73V62.336a2.374,2.374,0,0,0-1.074-.266,1.42,1.42,0,0,0-1.45,1.584,1.465,1.465,0,0,0,1.318,1.628" transform="translate(17.515 12.599)" fill="#323233"/>
    <path id="Path_668" data-name="Path 668" d="M87.35,60.756a1.955,1.955,0,0,1,2,2.026,2.73,2.73,0,0,1-.022.3.2.2,0,0,1-.2.189H85.943a1.554,1.554,0,0,0,1.483,1.439,2.108,2.108,0,0,0,1.1-.332c.156-.089.223-.144.31-.022.067.089.123.167.189.254s.122.167-.045.288a2.746,2.746,0,0,1-1.627.51,2.331,2.331,0,0,1,0-4.652m1.24,1.893a1.28,1.28,0,0,0-1.24-1.218,1.378,1.378,0,0,0-1.4,1.218Z" transform="translate(18.466 13.171)" fill="#323233"/>
    <path id="Path_669" data-name="Path 669" d="M89.388,64.677c.044-.067.122-.221.156-.276a.2.2,0,0,1,.3-.034,1.865,1.865,0,0,0,1.042.388c.454,0,.719-.232.719-.532,0-.388-.332-.566-.973-.886-.588-.288-1.263-.677-1.263-1.43a1.245,1.245,0,0,1,1.407-1.151A2.265,2.265,0,0,1,92,61.1a.266.266,0,0,1,.066.343l-.088.178a.245.245,0,0,1-.321.1,2.2,2.2,0,0,0-.886-.266c-.5,0-.632.256-.632.444,0,.365.365.531.82.752.764.366,1.45.708,1.45,1.506a1.4,1.4,0,0,1-1.528,1.251,2.25,2.25,0,0,1-1.441-.5.222.222,0,0,1-.055-.232" transform="translate(19.374 13.171)" fill="#323233"/>
    <path id="Path_670" data-name="Path 670" d="M93.217,61.771h-.565a.21.21,0,0,1-.211-.211v-.243a.2.2,0,0,1,.211-.211h.565V59.878a.217.217,0,0,1,.211-.211l.354-.023a.209.209,0,0,1,.2.211v1.252h1.285a.2.2,0,0,1,.211.211v.243a.21.21,0,0,1-.211.211H93.981v2.592c0,.444.111.532.365.532a2.128,2.128,0,0,0,.809-.243c.167-.089.211-.022.266.067l.165.276c.078.133.045.2-.078.276a2.883,2.883,0,0,1-1.273.377c-.887,0-1.02-.532-1.02-1.218Z" transform="translate(20.041 12.93)" fill="#323233"/>
    <path id="Path_671" data-name="Path 671" d="M97.864,60.756a1.955,1.955,0,0,1,2,2.026,2.73,2.73,0,0,1-.022.3.2.2,0,0,1-.2.189H96.457a1.554,1.554,0,0,0,1.483,1.439,2.108,2.108,0,0,0,1.1-.332c.156-.089.223-.144.31-.022.067.089.123.167.189.254s.122.167-.045.288a2.746,2.746,0,0,1-1.627.51,2.331,2.331,0,0,1,0-4.652m1.24,1.893a1.28,1.28,0,0,0-1.24-1.218,1.378,1.378,0,0,0-1.4,1.218Z" transform="translate(20.745 13.171)" fill="#323233"/>
    <path id="Path_672" data-name="Path 672" d="M66.346,13.452h3.941l10.651,24.38H76.443l-2.455-5.844H62.541l-2.49,5.844H55.694Zm6.085,14.767-4.185-9.683L64.1,28.219Z" transform="translate(12.074 2.916)" fill="#323233"/>
    <path id="Path_673" data-name="Path 673" d="M78.173,34.335l2.559-3.043a11.143,11.143,0,0,0,7.643,3.148c2.628,0,4.287-1.211,4.287-3.043v-.069c0-1.729-.967-2.662-5.463-3.7-5.152-1.245-8.056-2.766-8.056-7.227v-.069c0-4.149,3.458-7.02,8.264-7.02a13.421,13.421,0,0,1,8.783,3.042l-2.281,3.216a11,11,0,0,0-6.571-2.49c-2.49,0-3.942,1.28-3.942,2.87v.069c0,1.868,1.107,2.7,5.741,3.8,5.118,1.245,7.78,3.078,7.78,7.089v.068c0,4.531-3.562,7.228-8.645,7.228a14.908,14.908,0,0,1-10.1-3.873" transform="translate(16.947 2.886)" fill="#323233"/>
    <path id="Path_674" data-name="Path 674" d="M96.077,34.335l2.559-3.043a11.143,11.143,0,0,0,7.643,3.148c2.628,0,4.287-1.211,4.287-3.043v-.069c0-1.729-.967-2.662-5.462-3.7-5.153-1.245-8.058-2.766-8.058-7.227v-.069c0-4.149,3.458-7.02,8.264-7.02a13.421,13.421,0,0,1,8.783,3.042l-2.281,3.216a11,11,0,0,0-6.571-2.49c-2.49,0-3.942,1.28-3.942,2.87v.069c0,1.868,1.107,2.7,5.741,3.8,5.118,1.245,7.78,3.078,7.78,7.089v.068c0,4.531-3.562,7.228-8.645,7.228a14.908,14.908,0,0,1-10.1-3.873" transform="translate(20.829 2.886)" fill="#323233"/>
    <path id="Path_675" data-name="Path 675" d="M114.719,25.842v-.069a12.658,12.658,0,0,1,25.313-.069v.069a12.658,12.658,0,0,1-25.313.069m20.852,0v-.069a8.293,8.293,0,0,0-8.23-8.611c-4.806,0-8.161,3.839-8.161,8.542v.069a8.294,8.294,0,0,0,8.23,8.61c4.806,0,8.161-3.838,8.161-8.541" transform="translate(24.87 2.873)" fill="#323233"/>
    <path id="Path_676" data-name="Path 676" d="M139.756,13.595h4.53l7.365,11.446,7.365-11.446h4.53V37.8h-4.254V20.442l-7.641,11.411h-.139L143.94,20.511V37.8h-4.185Z" transform="translate(30.298 2.947)" fill="#323233"/>
    <path id="Path_677" data-name="Path 677" d="M163.541,25.842v-.069a12.658,12.658,0,0,1,25.313-.069v.069a12.658,12.658,0,0,1-25.313.069m20.852,0v-.069a8.293,8.293,0,0,0-8.23-8.611C171.356,17.161,168,21,168,25.7v.069a8.294,8.294,0,0,0,8.23,8.61c4.806,0,8.161-3.838,8.161-8.541" transform="translate(35.454 2.873)" fill="#323233"/>
    <path id="Path_678" data-name="Path 678" d="M193.754,17.537h-7.677V13.595h19.641v3.942h-7.677V37.8h-4.288Z" transform="translate(40.34 2.947)" fill="#323233"/>
    <path id="Path_679" data-name="Path 679" d="M203.952,25.842v-.069a12.658,12.658,0,0,1,25.313-.069v.069a12.658,12.658,0,0,1-25.313.069m20.852,0v-.069a8.293,8.293,0,0,0-8.23-8.611c-4.806,0-8.161,3.839-8.161,8.542v.069a8.294,8.294,0,0,0,8.23,8.61c4.806,0,8.161-3.838,8.161-8.541" transform="translate(44.215 2.873)" fill="#323233"/>
    <path id="Path_680" data-name="Path 680" d="M227.511,34.335l2.559-3.043a11.143,11.143,0,0,0,7.643,3.148c2.628,0,4.287-1.211,4.287-3.043v-.069c0-1.729-.967-2.662-5.463-3.7-5.152-1.245-8.056-2.766-8.056-7.227v-.069c0-4.149,3.458-7.02,8.264-7.02a13.421,13.421,0,0,1,8.783,3.042l-2.281,3.216a11,11,0,0,0-6.571-2.49c-2.49,0-3.942,1.28-3.942,2.87v.069c0,1.868,1.107,2.7,5.741,3.8,5.118,1.245,7.78,3.078,7.78,7.089v.068c0,4.531-3.562,7.228-8.645,7.228a14.908,14.908,0,0,1-10.1-3.873" transform="translate(49.323 2.886)" fill="#323233"/>
    <path id="Path_681" data-name="Path 681" d="M52.453,17.112a32.661,32.661,0,0,0-15.1-8.827,8.833,8.833,0,0,1-16.662,0A32.682,32.682,0,0,0,5.578,17.112a32.848,32.848,0,0,0,.09,14.026c.141-.007.282-.011.427-.011a8.839,8.839,0,0,1,8.831,8.831c0,.082,0,.163,0,.249a8.79,8.79,0,0,1-1.944,5.276A32.641,32.641,0,0,0,29.016,55.494,32.684,32.684,0,0,0,44.9,45.655a8.729,8.729,0,0,1-1.781-4.9c-.011-.141-.015-.286-.015-.428A8.841,8.841,0,0,1,51.94,31.5c.114,0,.226,0,.338.007a32.824,32.824,0,0,0,.174-14.395M29.016,43.223A20.481,20.481,0,0,1,16.195,24.229c0-.673.034-1.338.1-2a23.24,23.24,0,0,1,25.448,0c.063.658.1,1.324.1,2A20.476,20.476,0,0,1,29.016,43.223" transform="translate(1.055 1.796)" fill="#f77e0b"/>
    <path id="Path_682" data-name="Path 682" d="M33.137,7.147c0,.067,0,.134,0,.2a7.147,7.147,0,0,1-14.283.145c-.007-.116-.011-.23-.011-.346a7.149,7.149,0,0,1,14.3,0" transform="translate(4.084 0)" fill="#f77e0b"/>
    <path id="Path_683" data-name="Path 683" d="M51.973,35.894c0,.067,0,.134,0,.2a7.146,7.146,0,0,1-13.067,3.8,7.079,7.079,0,0,1-1.216-3.652c-.007-.116-.011-.23-.011-.346a7.152,7.152,0,0,1,7.043-7.143,1.061,1.061,0,0,1,.108,0,7.153,7.153,0,0,1,7.146,7.146" transform="translate(8.168 6.232)" fill="#f77e0b"/>
    <path id="Path_684" data-name="Path 684" d="M14.3,35.588c0,.067,0,.134,0,.2a7.147,7.147,0,0,1-14.283.145C0,35.818,0,35.7,0,35.588a7.159,7.159,0,0,1,7.143-7.147h.009A7.154,7.154,0,0,1,14.3,35.588" transform="translate(0 6.166)" fill="#f77e0b"/>
  </g>
</svg>
