<svg xmlns="http://www.w3.org/2000/svg" xmlns:xlink="http://www.w3.org/1999/xlink" width="297" height="73.169" viewBox="0 0 297 73.169">
  <defs>
    <clipPath id="clip-path">
      <rect id="Rectangle_34" data-name="Rectangle 34" width="297" height="73.169" fill="none"/>
    </clipPath>
  </defs>
  <g id="Group_175" data-name="Group 175" transform="translate(0 0)">
    <path id="Path_504" data-name="Path 504" d="M66.761,12.994h4.095l11.066,25.33h-4.67L74.7,32.252H62.808l-2.587,6.072H55.694Zm6.322,15.343L68.736,18.276,64.425,28.337Z" transform="translate(14.715 3.433)" fill="#323233"/>
    <g id="Group_174" data-name="Group 174" transform="translate(0 0)">
      <g id="Group_173" data-name="Group 173" clip-path="url(#clip-path)">
        <path id="Path_505" data-name="Path 505" d="M78.173,34.7l2.659-3.162A11.578,11.578,0,0,0,88.772,34.8c2.731,0,4.454-1.258,4.454-3.162v-.072c0-1.8-1.005-2.766-5.676-3.844-5.353-1.293-8.37-2.874-8.37-7.508v-.072c0-4.311,3.593-7.293,8.587-7.293a13.944,13.944,0,0,1,9.125,3.161l-2.37,3.341a11.43,11.43,0,0,0-6.827-2.587c-2.587,0-4.1,1.33-4.1,2.982v.072c0,1.941,1.15,2.8,5.965,3.952,5.317,1.293,8.083,3.2,8.083,7.365v.071c0,4.708-3.7,7.509-8.982,7.509A15.489,15.489,0,0,1,78.173,34.7" transform="translate(20.655 3.396)" fill="#323233"/>
        <path id="Path_506" data-name="Path 506" d="M96.077,34.7l2.659-3.162a11.578,11.578,0,0,0,7.941,3.271c2.731,0,4.454-1.258,4.454-3.162v-.072c0-1.8-1.005-2.766-5.675-3.844-5.354-1.293-8.372-2.874-8.372-7.508v-.072c0-4.311,3.593-7.293,8.587-7.293a13.944,13.944,0,0,1,9.125,3.161l-2.37,3.341a11.43,11.43,0,0,0-6.827-2.587c-2.587,0-4.1,1.33-4.1,2.982v.072c0,1.941,1.15,2.8,5.965,3.952,5.317,1.293,8.083,3.2,8.083,7.365v.071c0,4.708-3.7,7.509-8.982,7.509A15.489,15.489,0,0,1,96.077,34.7" transform="translate(25.385 3.396)" fill="#323233"/>
        <path id="Path_507" data-name="Path 507" d="M114.719,25.874V25.8a13.151,13.151,0,0,1,26.3-.072V25.8a13.151,13.151,0,0,1-26.3.072m21.665,0V25.8c0-4.887-3.556-8.947-8.551-8.947s-8.479,3.989-8.479,8.875V25.8c0,4.886,3.557,8.946,8.551,8.946s8.479-3.987,8.479-8.874" transform="translate(30.311 3.381)" fill="#323233"/>
        <path id="Path_508" data-name="Path 508" d="M139.756,13.136h9.915c5.857,0,9.557,3.341,9.557,8.408v.071c0,5.641-4.527,8.587-10.061,8.587h-4.994v8.083h-4.418Zm9.556,13.078c3.341,0,5.425-1.869,5.425-4.492v-.072c0-2.946-2.119-4.49-5.425-4.49h-5.138v9.054Z" transform="translate(36.926 3.471)" fill="#323233"/>
        <path id="Path_509" data-name="Path 509" d="M158.739,13.137h18.646v3.952H163.159v6.54h12.611v3.951H163.159v6.755h14.406v3.952H158.739Z" transform="translate(41.942 3.471)" fill="#323233"/>
        <path id="Path_510" data-name="Path 510" d="M184.3,42.723l2.8-4.167a12.583,12.583,0,0,1-10.2-12.683V25.8A12.726,12.726,0,0,1,189.868,12.8a13.109,13.109,0,0,1,9.844,3.915l-2.838,3.269a10,10,0,0,0-7.042-3.125c-4.814,0-8.3,3.952-8.3,8.875V25.8c0,4.922,3.485,8.946,8.3,8.946,3.09,0,5.066-1.257,7.221-3.269l2.838,2.875a12.851,12.851,0,0,1-9.413,4.42l-2.37,5.569Z" transform="translate(46.739 3.381)" fill="#323233"/>
        <path id="Path_511" data-name="Path 511" d="M208.113,12.994h4.095l11.066,25.33H218.6l-2.551-6.072H204.16l-2.587,6.072h-4.527Zm6.322,15.343-4.348-10.061-4.311,10.061Z" transform="translate(52.063 3.434)" fill="#323233"/>
        <path id="Path_512" data-name="Path 512" d="M219.525,34.7l2.659-3.162a11.578,11.578,0,0,0,7.941,3.271c2.731,0,4.454-1.258,4.454-3.162v-.072c0-1.8-1.005-2.766-5.676-3.844-5.353-1.293-8.37-2.874-8.37-7.508v-.072c0-4.311,3.593-7.293,8.587-7.293a13.944,13.944,0,0,1,9.125,3.161l-2.37,3.341a11.43,11.43,0,0,0-6.827-2.587c-2.587,0-4.1,1.33-4.1,2.982v.072c0,1.941,1.15,2.8,5.965,3.952,5.317,1.293,8.083,3.2,8.083,7.365v.071c0,4.708-3.7,7.509-8.982,7.509a15.489,15.489,0,0,1-10.49-4.024" transform="translate(58.002 3.396)" fill="#323233"/>
        <path id="Path_513" data-name="Path 513" d="M54.307,17.456A33.934,33.934,0,0,0,38.615,8.285a9.177,9.177,0,0,1-17.311,0,33.956,33.956,0,0,0-15.7,9.171A34.128,34.128,0,0,0,5.7,32.028c.147-.008.293-.011.444-.011a9.184,9.184,0,0,1,9.176,9.176c0,.085,0,.169,0,.259a9.133,9.133,0,0,1-2.02,5.482,33.913,33.913,0,0,0,16.662,10.4,33.958,33.958,0,0,0,16.5-10.222,9.069,9.069,0,0,1-1.851-5.088c-.011-.147-.015-.3-.015-.445A9.186,9.186,0,0,1,53.775,32.4c.119,0,.235,0,.351.008a34.1,34.1,0,0,0,.181-14.956M29.957,44.584A21.28,21.28,0,0,1,16.636,24.85c0-.7.035-1.391.1-2.075a24.146,24.146,0,0,1,26.44,0c.066.684.1,1.375.1,2.075A21.274,21.274,0,0,1,29.957,44.584" transform="translate(1.285 2.189)" fill="#c0051e"/>
        <path id="Path_514" data-name="Path 514" d="M33.695,7.426c0,.07,0,.139,0,.209a7.426,7.426,0,0,1-14.839.15c-.008-.12-.011-.239-.011-.359a7.427,7.427,0,0,1,14.855,0" transform="translate(4.978 0.001)" fill="#c0051e"/>
        <path id="Path_515" data-name="Path 515" d="M52.531,36.173c0,.07,0,.139,0,.209A7.425,7.425,0,0,1,38.95,40.326a7.355,7.355,0,0,1-1.263-3.794c-.008-.12-.011-.239-.011-.359a7.431,7.431,0,0,1,7.317-7.421,1.1,1.1,0,0,1,.113,0,7.432,7.432,0,0,1,7.425,7.425" transform="translate(9.955 7.596)" fill="#c0051e"/>
        <path id="Path_516" data-name="Path 516" d="M14.855,35.867c0,.07,0,.139,0,.209a7.426,7.426,0,0,1-14.839.15C0,36.106,0,35.987,0,35.867a7.438,7.438,0,0,1,7.421-7.426H7.43a7.433,7.433,0,0,1,7.425,7.426" transform="translate(0 7.515)" fill="#c0051e"/>
        <path id="Path_517" data-name="Path 517" d="M55.717,48.432,59.1,40.946a.2.2,0,0,1,.188-.121H59.4a.2.2,0,0,1,.188.121l3.359,7.485a.2.2,0,0,1-.188.29h-.445a.2.2,0,0,1-.188-.123L61.3,46.763H57.353L56.54,48.6a.2.2,0,0,1-.188.123h-.445a.2.2,0,0,1-.19-.29M61,46.074c-.546-1.212-1.08-2.435-1.625-3.647h-.088l-1.625,3.647Z" transform="translate(14.715 10.787)" fill="#323233"/>
        <path id="Path_518" data-name="Path 518" d="M61.911,47.4c.046-.067.124-.223.157-.278a.207.207,0,0,1,.3-.034,1.871,1.871,0,0,0,1.046.391c.455,0,.722-.234.722-.534,0-.391-.332-.569-.979-.89-.588-.29-1.267-.679-1.267-1.436A1.251,1.251,0,0,1,63.3,43.464a2.264,2.264,0,0,1,1.235.345.269.269,0,0,1,.066.345l-.089.177a.244.244,0,0,1-.322.1,2.22,2.22,0,0,0-.89-.267c-.5,0-.633.255-.633.445,0,.367.367.534.823.756.767.368,1.456.712,1.456,1.512a1.409,1.409,0,0,1-1.535,1.258,2.264,2.264,0,0,1-1.446-.5.223.223,0,0,1-.056-.234" transform="translate(16.352 11.484)" fill="#323233"/>
        <path id="Path_519" data-name="Path 519" d="M65.045,47.4c.044-.067.123-.223.156-.278a.207.207,0,0,1,.3-.034,1.877,1.877,0,0,0,1.047.391c.455,0,.722-.234.722-.534,0-.391-.332-.569-.979-.89-.589-.29-1.268-.679-1.268-1.436a1.252,1.252,0,0,1,1.413-1.155,2.262,2.262,0,0,1,1.234.345.268.268,0,0,1,.067.345l-.088.177a.245.245,0,0,1-.322.1,2.22,2.22,0,0,0-.89-.267c-.5,0-.635.255-.635.445,0,.367.368.534.823.756.767.368,1.456.712,1.456,1.512a1.408,1.408,0,0,1-1.533,1.258,2.258,2.258,0,0,1-1.446-.5.223.223,0,0,1-.056-.234" transform="translate(17.18 11.484)" fill="#323233"/>
        <path id="Path_520" data-name="Path 520" d="M70.342,43.464a2.339,2.339,0,1,1-2.214,2.325,2.28,2.28,0,0,1,2.214-2.325m0,3.948a1.531,1.531,0,0,0,1.445-1.623,1.452,1.452,0,1,0-2.891,0,1.531,1.531,0,0,0,1.446,1.623" transform="translate(18.001 11.484)" fill="#323233"/>
        <path id="Path_521" data-name="Path 521" d="M74.652,43.464a1.921,1.921,0,0,1,1.59.779.218.218,0,0,1-.044.311l-.211.178c-.168.155-.224.044-.324-.044a1.37,1.37,0,0,0-1.021-.466,1.594,1.594,0,0,0-.013,3.18,1.481,1.481,0,0,0,1.18-.578c.133-.134.211-.111.334-.021l.121.089a.223.223,0,0,1,.078.311,1.994,1.994,0,0,1-1.7.934,2.286,2.286,0,0,1-2.281-2.325,2.343,2.343,0,0,1,2.291-2.346" transform="translate(19.119 11.484)" fill="#323233"/>
        <path id="Path_522" data-name="Path 522" d="M76.382,41.623a.528.528,0,1,1,.523.523.525.525,0,0,1-.523-.523m.155,2.791a.22.22,0,0,1,.212-.211h.344a.218.218,0,0,1,.211.211V48.44a.218.218,0,0,1-.211.211H76.75a.22.22,0,0,1-.212-.211Z" transform="translate(20.181 10.857)" fill="#323233"/>
        <path id="Path_523" data-name="Path 523" d="M79.887,45.2a3.657,3.657,0,0,1,.944.144c.011-.823-.089-1.2-.723-1.2a3.924,3.924,0,0,0-1.334.244c-.111.046-.178-.01-.211-.11L78.474,44c-.044-.133.023-.2.123-.244a4.19,4.19,0,0,1,1.546-.29c1.134,0,1.412.579,1.412,1.88v2.469a.218.218,0,0,1-.211.211h-.211c-.123,0-.157-.066-.19-.167l-.088-.3a1.927,1.927,0,0,1-1.379.579,1.35,1.35,0,0,1-1.368-1.456c0-.846.635-1.479,1.78-1.479M79.6,47.468a1.57,1.57,0,0,0,1.222-.623v-.877a1.975,1.975,0,0,0-.933-.178c-.623,0-1.068.311-1.068.89a.75.75,0,0,0,.779.789" transform="translate(20.637 11.484)" fill="#323233"/>
        <path id="Path_524" data-name="Path 524" d="M84.094,43.464a1.919,1.919,0,0,1,1.59.779.217.217,0,0,1-.044.311l-.211.178c-.167.155-.222.044-.324-.044a1.367,1.367,0,0,0-1.021-.466,1.594,1.594,0,0,0-.011,3.18,1.478,1.478,0,0,0,1.178-.578c.134-.134.211-.111.334-.021l.123.089a.223.223,0,0,1,.077.311,1.974,1.974,0,0,1-1.534.923v.489a1.185,1.185,0,0,1,1.167,1.145,1.149,1.149,0,0,1-2.013.767.2.2,0,0,1,0-.288l.156-.123a.2.2,0,0,1,.255,0,.649.649,0,0,0,.456.2.482.482,0,0,0,.489-.522c0-.512-.545-.635-.923-.7a.221.221,0,0,1-.19-.224v-.777A2.277,2.277,0,0,1,81.8,45.81a2.343,2.343,0,0,1,2.291-2.346" transform="translate(21.614 11.484)" fill="#323233"/>
        <path id="Path_525" data-name="Path 525" d="M87.481,45.851a3.657,3.657,0,0,1,.944.144c.011-.823-.088-1.2-.723-1.2a3.924,3.924,0,0,0-1.334.244c-.111.046-.178-.01-.211-.11l-.09-.279c-.044-.133.023-.2.123-.244a4.19,4.19,0,0,1,1.546-.29c1.134,0,1.412.579,1.412,1.88v2.469a.218.218,0,0,1-.211.211h-.211c-.123,0-.157-.066-.19-.167l-.088-.3a1.927,1.927,0,0,1-1.379.579A1.35,1.35,0,0,1,85.7,47.33c0-.846.635-1.479,1.78-1.479m-1.535-3.67c-.09-.044-.078-.168-.046-.245.1-.2.29-.934,1.024-.934.666,0,.877.823,1.223.823.312,0,.445-.378.5-.568.034-.111.133-.144.257-.088l.178.088c.133.067.066.211.044.29-.113.322-.379.9-.99.9s-.913-.834-1.224-.834-.411.322-.489.556a.178.178,0,0,1-.278.11Zm1.245,5.938a1.57,1.57,0,0,0,1.223-.623v-.877a1.975,1.975,0,0,0-.933-.178c-.623,0-1.068.311-1.068.89a.75.75,0,0,0,.779.789" transform="translate(22.644 10.834)" fill="#323233"/>
        <path id="Path_526" data-name="Path 526" d="M91.6,43.464a2.339,2.339,0,1,1-2.212,2.325A2.281,2.281,0,0,1,91.6,43.464m0,3.948a1.531,1.531,0,0,0,1.446-1.623,1.453,1.453,0,1,0-2.893,0A1.532,1.532,0,0,0,91.6,47.412" transform="translate(23.618 11.484)" fill="#323233"/>
        <path id="Path_527" data-name="Path 527" d="M97.717,44.137a2.375,2.375,0,0,1,1.19.29v-3.3a.22.22,0,0,1,.212-.211h.345a.218.218,0,0,1,.211.211v7.362a.218.218,0,0,1-.211.211h-.234a.2.2,0,0,1-.19-.177l-.067-.3a1.988,1.988,0,0,1-1.368.59,2.2,2.2,0,0,1-2.024-2.348,2.133,2.133,0,0,1,2.135-2.325m-.033,3.971a1.5,1.5,0,0,0,1.212-.735V45.149a2.4,2.4,0,0,0-1.08-.267,1.426,1.426,0,0,0-1.456,1.59,1.471,1.471,0,0,0,1.324,1.635" transform="translate(25.254 10.81)" fill="#323233"/>
        <path id="Path_528" data-name="Path 528" d="M101.6,45.2a3.657,3.657,0,0,1,.944.144c.011-.823-.089-1.2-.723-1.2a3.924,3.924,0,0,0-1.334.244c-.111.046-.178-.01-.211-.11l-.09-.279c-.044-.133.023-.2.123-.244a4.19,4.19,0,0,1,1.546-.29c1.134,0,1.412.579,1.412,1.88v2.469a.218.218,0,0,1-.211.211h-.211c-.123,0-.157-.066-.19-.167l-.089-.3a1.927,1.927,0,0,1-1.379.579,1.35,1.35,0,0,1-1.368-1.456c0-.846.635-1.479,1.78-1.479m-.29,2.268a1.57,1.57,0,0,0,1.222-.623v-.877a1.974,1.974,0,0,0-.933-.178c-.623,0-1.068.311-1.068.89a.75.75,0,0,0,.779.789" transform="translate(26.375 11.484)" fill="#323233"/>
        <rect id="Rectangle_32" data-name="Rectangle 32" width="0.867" height="7.785" rx="0.167" transform="translate(134.008 51.723)" fill="#323233"/>
        <path id="Path_529" data-name="Path 529" d="M108.095,43.786a.22.22,0,0,1,.212-.211h.211a.164.164,0,0,1,.178.133l.1.345a2.481,2.481,0,0,1,1.558-.589c1.289,0,1.723.846,1.723,2v2.346a.219.219,0,0,1-.211.211h-.357a.218.218,0,0,1-.211-.211V45.467c0-.846-.378-1.258-1-1.258a2.194,2.194,0,0,0-1.435.635v2.97a.218.218,0,0,1-.211.211h-.344a.22.22,0,0,1-.212-.211Z" transform="translate(28.561 11.484)" fill="#323233"/>
        <path id="Path_530" data-name="Path 530" d="M114.331,44.137a2.381,2.381,0,0,1,1.19.29v-3.3a.218.218,0,0,1,.211-.211h.345a.218.218,0,0,1,.211.211v7.362a.218.218,0,0,1-.211.211h-.233a.2.2,0,0,1-.191-.177l-.066-.3a1.988,1.988,0,0,1-1.368.59,2.2,2.2,0,0,1-2.024-2.348,2.132,2.132,0,0,1,2.135-2.325m-.034,3.971a1.5,1.5,0,0,0,1.212-.735V45.149a2.387,2.387,0,0,0-1.078-.267,1.425,1.425,0,0,0-1.456,1.59,1.47,1.47,0,0,0,1.322,1.635" transform="translate(29.644 10.81)" fill="#323233"/>
        <path id="Path_531" data-name="Path 531" d="M116.649,44.436a.218.218,0,0,1,.211-.211h.355a.218.218,0,0,1,.211.211v2.346c0,.846.379,1.258,1,1.258a1.761,1.761,0,0,0,1.324-.635v-2.97a.218.218,0,0,1,.211-.211h.345a.218.218,0,0,1,.211.211v4.027a.218.218,0,0,1-.211.211H120.1c-.123,0-.168-.078-.2-.188l-.078-.29a2.027,2.027,0,0,1-1.445.589c-1.291,0-1.723-.833-1.723-2.013Zm.9-2.247a.155.155,0,0,1,.067-.211l1.667-.934c.067-.044.234-.067.29.034l.2.4a.164.164,0,0,1-.066.234l-1.791.745c-.155.068-.211.068-.255-.021Z" transform="translate(30.821 10.835)" fill="#323233"/>
        <path id="Path_532" data-name="Path 532" d="M120.753,47.4c.046-.067.124-.223.157-.278a.207.207,0,0,1,.3-.034,1.871,1.871,0,0,0,1.046.391c.455,0,.722-.234.722-.534,0-.391-.333-.569-.979-.89-.588-.29-1.267-.679-1.267-1.436a1.251,1.251,0,0,1,1.412-1.155,2.264,2.264,0,0,1,1.235.345.269.269,0,0,1,.066.345l-.088.177a.244.244,0,0,1-.322.1,2.22,2.22,0,0,0-.89-.267c-.5,0-.633.255-.633.445,0,.367.367.534.823.756.767.368,1.456.712,1.456,1.512a1.409,1.409,0,0,1-1.535,1.258,2.264,2.264,0,0,1-1.446-.5.223.223,0,0,1-.056-.234" transform="translate(31.899 11.484)" fill="#323233"/>
        <path id="Path_533" data-name="Path 533" d="M124.484,44.525h-.568a.211.211,0,0,1-.211-.211V44.07a.2.2,0,0,1,.211-.211h.568V42.624a.219.219,0,0,1,.211-.211l.357-.023a.21.21,0,0,1,.2.212v1.257h1.291a.2.2,0,0,1,.211.211v.244a.211.211,0,0,1-.211.211h-1.291v2.6c0,.445.111.534.367.534a2.117,2.117,0,0,0,.813-.244c.166-.09.211-.023.267.066l.166.279c.078.133.046.2-.077.277a2.9,2.9,0,0,1-1.278.379c-.89,0-1.024-.535-1.024-1.225Z" transform="translate(32.685 11.201)" fill="#323233"/>
        <path id="Path_534" data-name="Path 534" d="M127.1,43.786a.218.218,0,0,1,.211-.211h.211a.191.191,0,0,1,.19.156l.09.322a1.64,1.64,0,0,1,1.334-.589c.334,0,.89.056.779.368l-.134.377c-.056.145-.155.145-.267.1a1.125,1.125,0,0,0-.434-.09,1.428,1.428,0,0,0-1.212.623v2.97a.219.219,0,0,1-.211.211h-.345a.218.218,0,0,1-.211-.211Z" transform="translate(33.583 11.484)" fill="#323233"/>
        <path id="Path_535" data-name="Path 535" d="M129.918,41.623a.528.528,0,1,1,.522.523.525.525,0,0,1-.522-.523m.155,2.791a.218.218,0,0,1,.211-.211h.345a.219.219,0,0,1,.211.211V48.44a.219.219,0,0,1-.211.211h-.345a.218.218,0,0,1-.211-.211Z" transform="translate(34.327 10.857)" fill="#323233"/>
        <path id="Path_536" data-name="Path 536" d="M133.422,45.2a3.673,3.673,0,0,1,.946.144c.01-.823-.09-1.2-.724-1.2a3.915,3.915,0,0,0-1.332.244c-.113.046-.18-.01-.212-.11l-.09-.279c-.044-.133.024-.2.123-.244a4.192,4.192,0,0,1,1.547-.29c1.133,0,1.411.579,1.411,1.88v2.469a.218.218,0,0,1-.211.211h-.211c-.123,0-.157-.066-.19-.167l-.088-.3a1.926,1.926,0,0,1-1.378.579,1.349,1.349,0,0,1-1.368-1.456c0-.846.632-1.479,1.779-1.479m-.288,2.268a1.57,1.57,0,0,0,1.221-.623v-.877a1.966,1.966,0,0,0-.933-.178c-.623,0-1.068.311-1.068.89a.75.75,0,0,0,.78.789" transform="translate(34.782 11.484)" fill="#323233"/>
        <path id="Path_537" data-name="Path 537" d="M139.473,43.464a1.963,1.963,0,0,1,2.011,2.035,2.63,2.63,0,0,1-.021.3.2.2,0,0,1-.2.19h-3.2a1.563,1.563,0,0,0,1.491,1.446,2.119,2.119,0,0,0,1.1-.334c.156-.09.222-.145.311-.023.067.088.123.167.19.257s.121.166-.044.288a2.759,2.759,0,0,1-1.635.512,2.341,2.341,0,0,1,0-4.671m1.245,1.9a1.285,1.285,0,0,0-1.245-1.222,1.383,1.383,0,0,0-1.4,1.222Z" transform="translate(36.275 11.484)" fill="#323233"/>
        <path id="Path_538" data-name="Path 538" d="M147.36,40.825a3.911,3.911,0,0,1,2.692,1.034.215.215,0,0,1,.011.311l-.3.3c-.089.111-.178.1-.288-.011a3.373,3.373,0,0,0-2.124-.834,3.2,3.2,0,0,0,0,6.394,3.24,3.24,0,0,0,2.124-.833.211.211,0,0,1,.267-.034l.334.3a.211.211,0,0,1-.011.3,3.816,3.816,0,0,1-2.7,1.08,4,4,0,1,1,0-8.008" transform="translate(37.874 10.787)" fill="#323233"/>
        <path id="Path_539" data-name="Path 539" d="M151.594,43.464a2.339,2.339,0,1,1-2.212,2.325,2.281,2.281,0,0,1,2.212-2.325m0,3.948a1.531,1.531,0,0,0,1.446-1.623,1.453,1.453,0,1,0-2.893,0,1.532,1.532,0,0,0,1.446,1.623" transform="translate(39.469 11.484)" fill="#323233"/>
        <path id="Path_540" data-name="Path 540" d="M153.879,43.786a.218.218,0,0,1,.211-.211h.211a.163.163,0,0,1,.178.133l.1.345a2.024,2.024,0,0,1,1.445-.589,1.564,1.564,0,0,1,1.424.723,2.717,2.717,0,0,1,1.656-.723c1.291,0,1.724.846,1.724,2v2.346a.218.218,0,0,1-.211.211h-.357a.218.218,0,0,1-.211-.211V45.467c0-.834-.355-1.258-1-1.258a1.989,1.989,0,0,0-1.355.623,3.7,3.7,0,0,1,.054.635v2.346a.218.218,0,0,1-.211.211h-.357a.219.219,0,0,1-.211-.211V45.467c0-.846-.378-1.258-1.056-1.258a1.717,1.717,0,0,0-1.268.635v2.97a.219.219,0,0,1-.211.211h-.345a.218.218,0,0,1-.211-.211Z" transform="translate(40.657 11.484)" fill="#323233"/>
        <path id="Path_541" data-name="Path 541" d="M162.509,44.113a1.964,1.964,0,0,1,2.013,2.035,2.681,2.681,0,0,1-.021.3.2.2,0,0,1-.2.188h-3.2a1.564,1.564,0,0,0,1.492,1.446,2.123,2.123,0,0,0,1.1-.334c.155-.088.221-.144.311-.023.067.09.121.168.19.257s.121.166-.046.288a2.755,2.755,0,0,1-1.635.512,2.341,2.341,0,0,1,0-4.671m1.245,1.9a1.284,1.284,0,0,0-1.245-1.222,1.382,1.382,0,0,0-1.4,1.222Zm-2.4-3.826a.156.156,0,0,1,.067-.211l1.669-.934c.066-.044.233-.067.288.034l.2.4a.163.163,0,0,1-.066.234l-1.791.745c-.155.068-.211.068-.255-.021Z" transform="translate(42.362 10.835)" fill="#323233"/>
        <path id="Path_542" data-name="Path 542" d="M164.6,43.786a.218.218,0,0,1,.211-.211h.211a.191.191,0,0,1,.19.156l.09.322a1.64,1.64,0,0,1,1.334-.589c.334,0,.89.056.779.368l-.134.377c-.056.145-.156.145-.267.1a1.125,1.125,0,0,0-.434-.09,1.428,1.428,0,0,0-1.212.623v2.97a.219.219,0,0,1-.211.211h-.345a.218.218,0,0,1-.211-.211Z" transform="translate(43.491 11.484)" fill="#323233"/>
        <path id="Path_543" data-name="Path 543" d="M169.536,43.464a1.918,1.918,0,0,1,1.59.779.218.218,0,0,1-.043.311l-.212.178c-.167.155-.223.044-.322-.044a1.372,1.372,0,0,0-1.023-.466,1.594,1.594,0,0,0-.011,3.18,1.478,1.478,0,0,0,1.178-.578c.134-.134.212-.111.334-.021l.123.089a.222.222,0,0,1,.077.311,1.993,1.993,0,0,1-1.7.934,2.286,2.286,0,0,1-2.281-2.325,2.344,2.344,0,0,1,2.291-2.346" transform="translate(44.189 11.484)" fill="#323233"/>
        <path id="Path_544" data-name="Path 544" d="M171.266,41.623a.528.528,0,1,1,.523.523.525.525,0,0,1-.523-.523m.156,2.791a.219.219,0,0,1,.212-.211h.344a.218.218,0,0,1,.211.211V48.44a.218.218,0,0,1-.211.211h-.344a.219.219,0,0,1-.212-.211Z" transform="translate(45.251 10.857)" fill="#323233"/>
        <path id="Path_545" data-name="Path 545" d="M175.2,43.464a2.339,2.339,0,1,1-2.214,2.325,2.28,2.28,0,0,1,2.214-2.325m0,3.948a1.531,1.531,0,0,0,1.445-1.623,1.452,1.452,0,1,0-2.891,0,1.531,1.531,0,0,0,1.446,1.623" transform="translate(45.707 11.484)" fill="#323233"/>
        <path id="Path_546" data-name="Path 546" d="M57.83,52.657a2.375,2.375,0,0,1,1.19.29v-3.3a.221.221,0,0,1,.212-.212h.345a.22.22,0,0,1,.211.212v7.362a.217.217,0,0,1-.211.211h-.234a.2.2,0,0,1-.19-.177l-.067-.3a1.988,1.988,0,0,1-1.368.59,2.2,2.2,0,0,1-2.024-2.348,2.133,2.133,0,0,1,2.135-2.325M57.8,56.628a1.5,1.5,0,0,0,1.212-.735V53.67a2.4,2.4,0,0,0-1.08-.267,1.426,1.426,0,0,0-1.456,1.59A1.471,1.471,0,0,0,57.8,56.628" transform="translate(14.716 13.061)" fill="#323233"/>
        <path id="Path_547" data-name="Path 547" d="M62.117,51.983a1.963,1.963,0,0,1,2.011,2.035,2.653,2.653,0,0,1-.021.3.2.2,0,0,1-.2.19H60.7a1.561,1.561,0,0,0,1.491,1.445,2.119,2.119,0,0,0,1.1-.332c.156-.09.223-.145.311-.023.067.089.123.167.19.257s.121.166-.044.29a2.768,2.768,0,0,1-1.635.511,2.341,2.341,0,0,1,0-4.671m1.245,1.9a1.285,1.285,0,0,0-1.245-1.222,1.383,1.383,0,0,0-1.4,1.222Z" transform="translate(15.836 13.735)" fill="#323233"/>
        <path id="Path_548" data-name="Path 548" d="M65.608,49.721a.2.2,0,0,1,.188-.29h.445a.2.2,0,0,1,.19.124L69.2,55.782h.046l2.769-6.228a.217.217,0,0,1,.188-.124h.445a.2.2,0,0,1,.19.29l-3.381,7.485a.213.213,0,0,1-.19.123h-.11a.225.225,0,0,1-.19-.123Z" transform="translate(17.329 13.061)" fill="#323233"/>
        <path id="Path_549" data-name="Path 549" d="M73.257,51.983a1.963,1.963,0,0,1,2.011,2.035,2.651,2.651,0,0,1-.021.3.2.2,0,0,1-.2.19h-3.2a1.561,1.561,0,0,0,1.491,1.445,2.119,2.119,0,0,0,1.1-.332c.156-.09.222-.145.311-.023.067.089.123.167.19.257s.121.166-.044.29a2.768,2.768,0,0,1-1.635.511,2.341,2.341,0,0,1,0-4.671m1.245,1.9a1.285,1.285,0,0,0-1.245-1.222,1.383,1.383,0,0,0-1.4,1.222Z" transform="translate(18.779 13.735)" fill="#323233"/>
        <path id="Path_550" data-name="Path 550" d="M74.784,50.708a.156.156,0,0,1,.067-.211l1.669-.934c.067-.044.233-.066.288.033l.2.4a.163.163,0,0,1-.067.234l-1.791.745c-.154.067-.211.067-.254-.021Zm.723,2.247a.22.22,0,0,1,.212-.211h.344a.218.218,0,0,1,.211.211v4.027a.218.218,0,0,1-.211.211h-.344a.22.22,0,0,1-.212-.211Z" transform="translate(19.755 13.086)" fill="#323233"/>
        <path id="Path_551" data-name="Path 551" d="M79.237,51.983a1.921,1.921,0,0,1,1.59.779.218.218,0,0,1-.044.311l-.211.178c-.168.156-.224.046-.324-.046a1.373,1.373,0,0,0-1.021-.465,1.594,1.594,0,0,0-.013,3.18,1.481,1.481,0,0,0,1.18-.578c.133-.134.211-.111.334-.021l.121.088a.223.223,0,0,1,.078.311,1.994,1.994,0,0,1-1.7.934,2.286,2.286,0,0,1-2.281-2.325,2.343,2.343,0,0,1,2.291-2.346" transform="translate(20.33 13.735)" fill="#323233"/>
        <path id="Path_552" data-name="Path 552" d="M81.046,52.282a.218.218,0,0,1,.211-.211h.357a.219.219,0,0,1,.211.211v2.346c0,.846.378,1.258,1,1.258a1.757,1.757,0,0,0,1.322-.635v-2.97a.219.219,0,0,1,.211-.211H84.7a.218.218,0,0,1,.211.211v4.027a.218.218,0,0,1-.211.211h-.211c-.123,0-.167-.078-.2-.188l-.078-.29a2.024,2.024,0,0,1-1.445.589c-1.289,0-1.723-.834-1.723-2.013Z" transform="translate(21.414 13.758)" fill="#323233"/>
        <path id="Rectangle_33" data-name="Rectangle 33" d="M.168,0H.6A.167.167,0,0,1,.767.167V7.619A.167.167,0,0,1,.6,7.786H.167A.167.167,0,0,1,0,7.619V.168A.168.168,0,0,1,.168,0Z" transform="translate(107.922 62.492)" fill="#323233"/>
        <path id="Path_553" data-name="Path 553" d="M89.191,51.983a2.339,2.339,0,1,1-2.215,2.325,2.281,2.281,0,0,1,2.215-2.325m0,3.948a1.531,1.531,0,0,0,1.444-1.623,1.452,1.452,0,1,0-2.891,0,1.531,1.531,0,0,0,1.448,1.623" transform="translate(22.981 13.735)" fill="#323233"/>
        <path id="Path_554" data-name="Path 554" d="M91.267,55.92c.044-.067.123-.223.156-.278a.206.206,0,0,1,.3-.033A1.881,1.881,0,0,0,92.769,56c.455,0,.722-.234.722-.534,0-.389-.332-.568-.979-.89-.589-.29-1.268-.679-1.268-1.436a1.251,1.251,0,0,1,1.413-1.155,2.262,2.262,0,0,1,1.234.345.266.266,0,0,1,.067.344l-.088.178a.245.245,0,0,1-.322.1,2.22,2.22,0,0,0-.89-.267c-.5,0-.635.257-.635.445,0,.367.368.534.823.756.767.368,1.456.712,1.456,1.512a1.408,1.408,0,0,1-1.534,1.258,2.258,2.258,0,0,1-1.446-.5.223.223,0,0,1-.056-.234" transform="translate(24.108 13.735)" fill="#323233"/>
        <path id="Path_555" data-name="Path 555" d="M95.1,54.675c.357,0,.734.2.734,1a3.054,3.054,0,0,1-.936,2.057c-.111.1-.2.09-.267.023L94.48,57.6c-.056-.056-.044-.167.067-.267a1.9,1.9,0,0,0,.689-1.4.524.524,0,0,1-.133.011.642.642,0,0,1-.635-.635.634.634,0,0,1,.635-.633" transform="translate(24.955 14.446)" fill="#323233"/>
        <path id="Path_556" data-name="Path 556" d="M98.882,49.643a.212.212,0,0,1,.211-.212h2.458a2.48,2.48,0,1,1,.011,4.961H99.727V57a.217.217,0,0,1-.211.211h-.422A.21.21,0,0,1,98.882,57Zm2.614,3.925a1.7,1.7,0,0,0,1.689-1.7,1.641,1.641,0,0,0-1.689-1.59h-1.77v3.292Z" transform="translate(26.126 13.061)" fill="#323233"/>
        <path id="Path_557" data-name="Path 557" d="M105.436,51.983a1.964,1.964,0,0,1,2.013,2.035,2.391,2.391,0,0,1-.023.3.2.2,0,0,1-.2.19h-3.2a1.562,1.562,0,0,0,1.492,1.445,2.118,2.118,0,0,0,1.1-.332c.156-.09.223-.145.311-.023.068.089.123.167.19.257s.123.166-.044.29a2.765,2.765,0,0,1-1.635.511,2.341,2.341,0,0,1,0-4.671m1.245,1.9a1.284,1.284,0,0,0-1.245-1.222,1.383,1.383,0,0,0-1.4,1.222Z" transform="translate(27.282 13.735)" fill="#323233"/>
        <path id="Path_558" data-name="Path 558" d="M109.568,51.983a1.919,1.919,0,0,1,1.59.779.217.217,0,0,1-.044.311l-.211.178c-.167.156-.222.046-.324-.046a1.371,1.371,0,0,0-1.021-.465,1.594,1.594,0,0,0-.011,3.18,1.478,1.478,0,0,0,1.178-.578c.134-.134.211-.111.334-.021l.123.088a.223.223,0,0,1,.077.311,1.977,1.977,0,0,1-1.534.923v.489a1.186,1.186,0,0,1,1.167,1.147,1.15,1.15,0,0,1-2.013.766.2.2,0,0,1,0-.288l.155-.123a.2.2,0,0,1,.255,0,.649.649,0,0,0,.456.2.482.482,0,0,0,.489-.522c0-.512-.545-.635-.923-.7a.221.221,0,0,1-.19-.223V56.61a2.277,2.277,0,0,1-1.846-2.281,2.343,2.343,0,0,1,2.291-2.346" transform="translate(28.344 13.735)" fill="#323233"/>
        <path id="Path_559" data-name="Path 559" d="M112.955,53.719a3.657,3.657,0,0,1,.944.144c.011-.823-.088-1.2-.723-1.2a3.924,3.924,0,0,0-1.334.244c-.111.046-.178-.01-.211-.11l-.09-.279a.179.179,0,0,1,.123-.244,4.19,4.19,0,0,1,1.546-.29c1.134,0,1.412.579,1.412,1.88v2.469a.218.218,0,0,1-.211.211H114.2c-.123,0-.157-.067-.19-.167l-.089-.3a1.927,1.927,0,0,1-1.379.579,1.35,1.35,0,0,1-1.368-1.456c0-.846.635-1.479,1.78-1.479m-.29,2.268a1.57,1.57,0,0,0,1.223-.623v-.877a1.974,1.974,0,0,0-.933-.178c-.623,0-1.068.311-1.068.89a.75.75,0,0,0,.779.789" transform="translate(29.374 13.735)" fill="#323233"/>
        <path id="Path_560" data-name="Path 560" d="M114.92,55.92c.044-.067.123-.223.156-.278a.206.206,0,0,1,.3-.033,1.88,1.88,0,0,0,1.047.389c.455,0,.722-.234.722-.534,0-.389-.332-.568-.979-.89-.589-.29-1.268-.679-1.268-1.436a1.251,1.251,0,0,1,1.413-1.155,2.262,2.262,0,0,1,1.234.345.266.266,0,0,1,.067.344l-.088.178a.245.245,0,0,1-.322.1,2.22,2.22,0,0,0-.89-.267c-.5,0-.635.257-.635.445,0,.367.368.534.823.756.767.368,1.456.712,1.456,1.512a1.408,1.408,0,0,1-1.533,1.258,2.258,2.258,0,0,1-1.446-.5.223.223,0,0,1-.056-.234" transform="translate(30.358 13.735)" fill="#323233"/>
        <path id="Path_561" data-name="Path 561" d="M122.137,51.983a1.963,1.963,0,0,1,2.011,2.035,2.651,2.651,0,0,1-.021.3.2.2,0,0,1-.2.19h-3.2a1.561,1.561,0,0,0,1.491,1.445,2.119,2.119,0,0,0,1.1-.332c.155-.09.223-.145.311-.023.067.089.123.167.19.257s.121.166-.044.29a2.768,2.768,0,0,1-1.635.511,2.341,2.341,0,0,1,0-4.671m1.245,1.9a1.285,1.285,0,0,0-1.245-1.222,1.383,1.383,0,0,0-1.4,1.222Z" transform="translate(31.694 13.735)" fill="#323233"/>
        <path id="Path_562" data-name="Path 562" d="M126.076,56.072c.056-.067.11-.144.166-.212.113-.144.234-.233.389-.1a3.074,3.074,0,0,0,1.88.846A1.342,1.342,0,0,0,130,55.382c0-.767-.666-1.224-1.947-1.757-1.222-.534-1.957-1.034-1.957-2.3a2.117,2.117,0,0,1,2.369-1.98,3.639,3.639,0,0,1,1.9.566.247.247,0,0,1,.068.378c-.046.067-.09.145-.134.211a.252.252,0,0,1-.389.1,3.138,3.138,0,0,0-1.458-.511c-1.178,0-1.535.756-1.535,1.223,0,.746.568,1.18,1.5,1.569,1.5.612,2.469,1.18,2.469,2.469a2.211,2.211,0,0,1-2.4,2,3.619,3.619,0,0,1-2.346-.9.242.242,0,0,1-.067-.377" transform="translate(33.295 13.038)" fill="#323233"/>
        <path id="Path_563" data-name="Path 563" d="M132.8,51.983a1.964,1.964,0,0,1,2.013,2.035,2.391,2.391,0,0,1-.023.3.2.2,0,0,1-.2.19h-3.2a1.562,1.562,0,0,0,1.492,1.445,2.118,2.118,0,0,0,1.1-.332c.156-.09.223-.145.311-.023.068.089.123.167.19.257s.123.166-.044.29a2.765,2.765,0,0,1-1.635.511,2.341,2.341,0,0,1,0-4.671m1.245,1.9a1.284,1.284,0,0,0-1.245-1.222,1.383,1.383,0,0,0-1.4,1.222Z" transform="translate(34.513 13.735)" fill="#323233"/>
        <path id="Path_564" data-name="Path 564" d="M134.9,52.305a.218.218,0,0,1,.211-.211h.211a.191.191,0,0,1,.19.156l.09.322a1.64,1.64,0,0,1,1.334-.589c.334,0,.89.056.779.368l-.134.377c-.056.145-.155.145-.267.1a1.125,1.125,0,0,0-.434-.09,1.428,1.428,0,0,0-1.212.623v2.97a.219.219,0,0,1-.211.211h-.345a.218.218,0,0,1-.211-.211Z" transform="translate(35.642 13.735)" fill="#323233"/>
        <path id="Path_565" data-name="Path 565" d="M137.411,52.328c-.067-.144,0-.257.166-.257h.345a.217.217,0,0,1,.2.123l1.378,3.181h.013l1.468-3.181a.211.211,0,0,1,.19-.123h.288c.167,0,.234.113.167.257l-1.9,4.192a.2.2,0,0,1-.19.111h-.054a.2.2,0,0,1-.191-.111Z" transform="translate(36.3 13.758)" fill="#323233"/>
        <path id="Path_566" data-name="Path 566" d="M141.383,50.141a.528.528,0,1,1,.523.523.525.525,0,0,1-.523-.523m.155,2.791a.22.22,0,0,1,.212-.211h.344a.218.218,0,0,1,.211.211v4.027a.218.218,0,0,1-.211.211h-.344a.22.22,0,0,1-.212-.211Z" transform="translate(37.356 13.108)" fill="#323233"/>
        <path id="Path_567" data-name="Path 567" d="M145.4,51.983a1.919,1.919,0,0,1,1.59.779.217.217,0,0,1-.044.311l-.211.178c-.167.156-.223.046-.324-.046a1.371,1.371,0,0,0-1.021-.465,1.594,1.594,0,0,0-.011,3.18,1.478,1.478,0,0,0,1.178-.578c.134-.134.211-.111.334-.021l.123.088a.223.223,0,0,1,.077.311,1.977,1.977,0,0,1-1.533.923v.489a1.186,1.186,0,0,1,1.167,1.147,1.15,1.15,0,0,1-2.013.766.2.2,0,0,1,0-.288l.156-.123a.2.2,0,0,1,.255,0,.649.649,0,0,0,.456.2.482.482,0,0,0,.489-.522c0-.512-.545-.635-.923-.7a.221.221,0,0,1-.19-.223V56.61a2.277,2.277,0,0,1-1.846-2.281,2.343,2.343,0,0,1,2.291-2.346" transform="translate(37.811 13.735)" fill="#323233"/>
        <path id="Path_568" data-name="Path 568" d="M149.218,51.983a2.339,2.339,0,1,1-2.212,2.325,2.281,2.281,0,0,1,2.212-2.325m0,3.948a1.531,1.531,0,0,0,1.446-1.623,1.453,1.453,0,1,0-2.893,0,1.532,1.532,0,0,0,1.446,1.623" transform="translate(38.842 13.735)" fill="#323233"/>
        <path id="Path_569" data-name="Path 569" d="M151.3,55.92c.046-.067.124-.223.157-.278a.206.206,0,0,1,.3-.033A1.874,1.874,0,0,0,152.8,56c.455,0,.722-.234.722-.534,0-.389-.332-.568-.979-.89-.588-.29-1.267-.679-1.267-1.436a1.25,1.25,0,0,1,1.412-1.155,2.263,2.263,0,0,1,1.235.345.268.268,0,0,1,.066.344l-.088.178a.244.244,0,0,1-.322.1,2.22,2.22,0,0,0-.89-.267c-.5,0-.633.257-.633.445,0,.367.367.534.823.756.767.368,1.456.712,1.456,1.512a1.409,1.409,0,0,1-1.535,1.258,2.264,2.264,0,0,1-1.446-.5.223.223,0,0,1-.056-.234" transform="translate(39.969 13.735)" fill="#323233"/>
      </g>
    </g>
  </g>
</svg>
