<svg id="Group_154" data-name="Group 154" xmlns="http://www.w3.org/2000/svg" width="48.944" height="58.858" viewBox="0 0 48.944 58.858">
  <g id="Group_7" data-name="Group 7" transform="translate(0 0)">
    <g id="Group_4" data-name="Group 4" transform="translate(0.077 38.063)">
      <path id="Path_7" data-name="Path 7" d="M1571.227,1124.962c0-6.45,4.973-10.4,11.061-10.4a9.369,9.369,0,0,1,8.83,5.244l-5.124,2.622a4.2,4.2,0,0,0-3.707-2.5,5.035,5.035,0,0,0,0,10.066,5.936,5.936,0,0,0,3.135-.9v-.724h-3.737v-5.3h9.795v8.228a11.932,11.932,0,0,1-9.192,4.069C1576.2,1135.359,1571.227,1131.381,1571.227,1124.962Z" transform="translate(-1571.227 -1114.564)" fill="#8c8b8b"/>
      <path id="Path_8" data-name="Path 8" d="M1639.372,1124.962c0-6.178,4.792-10.4,11-10.4s11,4.22,11,10.4-4.792,10.4-11,10.4S1639.372,1131.14,1639.372,1124.962Zm15.823,0a4.826,4.826,0,1,0-4.822,5.033A4.758,4.758,0,0,0,1655.194,1124.962Z" transform="translate(-1618.999 -1114.564)" fill="#8c8b8b"/>
      <path id="Path_9" data-name="Path 9" d="M1713.875,1128.3l-.814-12.628h6.449l-.753,12.628Zm-.754,4.611a3.195,3.195,0,1,1,3.195,3.195A3.242,3.242,0,0,1,1713.121,1132.912Z" transform="translate(-1670.659 -1115.341)" fill="#8c8b8b"/>
    </g>
    <g id="Group_5" data-name="Group 5" transform="translate(0 0)">
      <path id="Path_10" data-name="Path 10" d="M1576.426,998.379v-4.69c0-.985-.517-1.3-1.335-1.3a1.98,1.98,0,0,0-1.552.785v5.207h-2.57V987.246h2.57V991.3a3.644,3.644,0,0,1,2.787-1.185,2.355,2.355,0,0,1,2.671,2.521v5.742Z" transform="translate(-1570.968 -987.246)" fill="#8c8b8b"/>
      <path id="Path_11" data-name="Path 11" d="M1599.219,1001.072a4.147,4.147,0,0,1,4.273-4.223c2.387,0,4.122,1.753,4.122,4.49v.584h-5.742a1.892,1.892,0,0,0,2.02,1.318,3.353,3.353,0,0,0,1.969-.684l1.118,1.686a5.258,5.258,0,0,1-3.371,1.068A4.114,4.114,0,0,1,1599.219,1001.072Zm4.273-2.153a1.5,1.5,0,0,0-1.652,1.252h3.321C1605.094,999.6,1604.677,998.919,1603.492,998.919Z" transform="translate(-1590.773 -993.978)" fill="#8c8b8b"/>
      <path id="Path_12" data-name="Path 12" d="M1626.035,1006.432a1.418,1.418,0,0,0,.634.15c.584,0,.952-.117,1.1-.451l.184-.434-3.222-8.179h2.7l1.836,5.108,1.819-5.108h2.721l-3.638,9.214c-.651,1.7-1.853,2.086-3.405,2.12a5.218,5.218,0,0,1-1.1-.133Z" transform="translate(-1608.659 -994.448)" fill="#8c8b8b"/>
      <path id="Path_13" data-name="Path 13" d="M1671.226,998.379v-4.69c0-.985-.517-1.3-1.335-1.3a1.981,1.981,0,0,0-1.552.785v5.207h-2.571V987.246h2.571V991.3a3.645,3.645,0,0,1,2.788-1.185,2.354,2.354,0,0,1,2.67,2.521v5.742Z" transform="translate(-1637.427 -987.246)" fill="#8c8b8b"/>
      <path id="Path_14" data-name="Path 14" d="M1694.019,1001.072a4.393,4.393,0,1,1,4.373,4.24A4.143,4.143,0,0,1,1694.019,1001.072Zm6.143,0a1.765,1.765,0,1,0-1.769,1.969A1.778,1.778,0,0,0,1700.161,1001.072Z" transform="translate(-1657.232 -993.978)" fill="#8c8b8b"/>
      <path id="Path_15" data-name="Path 15" d="M1725.111,1019.968l-1.068-.868a3.209,3.209,0,0,0,1.419-1.586,1.777,1.777,0,0,1-.384.05,1.3,1.3,0,0,1-1.3-1.369,1.542,1.542,0,0,1,1.535-1.535,1.75,1.75,0,0,1,1.7,1.92A4.147,4.147,0,0,1,1725.111,1019.968Z" transform="translate(-1678.093 -1006.464)" fill="#8c8b8b"/>
    </g>
    <g id="Group_6" data-name="Group 6" transform="translate(0.062 14.509)">
      <path id="Path_16" data-name="Path 16" d="M1571.176,1056.954V1036.79h4.655v20.164Z" transform="translate(-1571.176 -1036.487)" fill="#8c8b8b"/>
      <path id="Path_17" data-name="Path 17" d="M1589.883,1061.83a7.51,7.51,0,0,1,7.739-7.648c4.323,0,7.467,3.174,7.467,8.132v1.058h-10.4c.332,1.3,1.542,2.388,3.657,2.388a6.076,6.076,0,0,0,3.567-1.24l2.026,3.053a9.523,9.523,0,0,1-6.107,1.935C1593.329,1069.509,1589.883,1066.577,1589.883,1061.83Zm7.739-3.9a2.72,2.72,0,0,0-2.993,2.267h6.016C1600.524,1059.17,1599.768,1057.931,1597.622,1057.931Z" transform="translate(-1584.29 -1048.68)" fill="#8c8b8b"/>
      <path id="Path_18" data-name="Path 18" d="M1640.94,1056.709v-6.651h-2.418v-4.021h2.418v-3.99h4.656v3.99h2.962v4.021H1645.6v5.351a1.318,1.318,0,0,0,1.27,1.481,1.811,1.811,0,0,0,1.179-.363l.906,3.507a5.08,5.08,0,0,1-3.446.968C1642.542,1061,1640.94,1059.521,1640.94,1056.709Z" transform="translate(-1618.388 -1040.173)" fill="#8c8b8b"/>
      <path id="Path_19" data-name="Path 19" d="M1675.522,1045.391l-1.935-1.542a5.754,5.754,0,0,0,2.57-2.9,1.92,1.92,0,0,1-.7.121,2.362,2.362,0,0,1-2.358-2.509,2.793,2.793,0,0,1,2.781-2.781c1.632,0,3.083,1.27,3.083,3.507A7.5,7.5,0,0,1,1675.522,1045.391Z" transform="translate(-1642.631 -1035.778)" fill="#8c8b8b"/>
      <path id="Path_20" data-name="Path 20" d="M1689.586,1067.242l1.935-3.325a9.131,9.131,0,0,0,5.139,1.965c1.391,0,1.965-.393,1.965-1.028,0-1.814-8.5.061-8.5-5.865,0-2.569,2.237-4.806,6.258-4.806a10.21,10.21,0,0,1,6.106,1.935l-1.783,3.3a6.526,6.526,0,0,0-4.293-1.6c-1.088,0-1.814.423-1.814,1,0,1.6,8.464-.06,8.464,5.925,0,2.781-2.448,4.776-6.62,4.776A10.749,10.749,0,0,1,1689.586,1067.242Z" transform="translate(-1654.187 -1048.68)" fill="#8c8b8b"/>
    </g>
  </g>
</svg>
