<svg xmlns="http://www.w3.org/2000/svg" xmlns:xlink="http://www.w3.org/1999/xlink" width="76.274" height="76.267" viewBox="0 0 76.274 76.267">
  <defs>
    <clipPath id="clip-path">
      <rect id="Rectangle_26" data-name="Rectangle 26" width="76.274" height="76.267" fill="#fff"/>
    </clipPath>
  </defs>
  <g id="Group_165" data-name="Group 165" transform="translate(0 0)">
    <g id="Group_164" data-name="Group 164" transform="translate(0 0)" clip-path="url(#clip-path)">
      <path id="Path_370" data-name="Path 370" d="M23.077,65.05a1.721,1.721,0,0,1-1.251-.52L7.02,49.724a1.748,1.748,0,0,1-.4-1.891A98.379,98.379,0,0,1,29.005,13.38l.5-.5A44.111,44.111,0,0,1,69.339.864a1.79,1.79,0,0,1,1.394,1.394A44.04,44.04,0,0,1,58.666,42.1l-.5.5A98.378,98.378,0,0,1,23.739,65.05a1.536,1.536,0,0,1-.662,0m-12.728-17L23.5,61.272A95.133,95.133,0,0,0,55.667,40.018l.5-.5A40.5,40.5,0,0,0,67.474,4.1,40.5,40.5,0,0,0,32,15.458l-.5.5a94.7,94.7,0,0,0-21.16,32.14Z" transform="translate(4.679 0)" fill="#fff"/>
      <path id="Path_371" data-name="Path 371" d="M35.234,10.935a7.085,7.085,0,1,1-5,2.071,7.082,7.082,0,0,1,5-2.071m0-3.542a10.65,10.65,0,1,0,7.51,3.117,10.65,10.65,0,0,0-7.51-3.117" transform="translate(17.697 5.326)" fill="#fff"/>
      <path id="Path_372" data-name="Path 372" d="M7.4,47.65a1.751,1.751,0,0,1-1.251-.52,1.769,1.769,0,0,1,0-2.5L23.933,26.845a1.772,1.772,0,0,1,2.593,2.416c-.029.029-.058.06-.089.088L8.654,47.131a1.718,1.718,0,0,1-1.251.52" transform="translate(4.059 18.934)" fill="#fff"/>
      <path id="Path_373" data-name="Path 373" d="M32.488,50.761a1.543,1.543,0,0,1-.9-.26l-12-7.32a1.771,1.771,0,0,1,1.843-3.023l10.319,6.187,8.337-18.892a1.781,1.781,0,0,1,3.259,1.44L34.188,49.6A1.865,1.865,0,0,1,33.1,50.6a2.18,2.18,0,0,1-.614.165" transform="translate(13.546 19.013)" fill="#fff"/>
      <path id="Path_374" data-name="Path 374" d="M12.828,35.976a1.769,1.769,0,0,1-1.511-.85L4.09,23.081a1.8,1.8,0,0,1,.628-2.459,1.215,1.215,0,0,1,.175-.091l20.757-9.163a1.8,1.8,0,0,1,2.362.92,1.771,1.771,0,0,1-.869,2.348l-.029.012L8.223,22.988l6.14,10.366a1.8,1.8,0,0,1-.52,2.362,1.652,1.652,0,0,1-1.015.26" transform="translate(2.766 8.081)" fill="#fff"/>
      <path id="Path_375" data-name="Path 375" d="M1.779,43.466a1.718,1.718,0,0,1-1.251-.52A1.746,1.746,0,0,1,.5,40.476l.033-.033,8.336-8.336a1.771,1.771,0,0,1,2.5,2.5L3.03,42.946a1.751,1.751,0,0,1-1.251.52" transform="translate(0 22.788)" fill="#fff"/>
      <path id="Path_376" data-name="Path 376" d="M7.65,49.184a1.751,1.751,0,0,1-1.251-.52,1.769,1.769,0,0,1,0-2.5l8.336-8.336a1.771,1.771,0,0,1,2.362,2.5L8.736,48.664a1.749,1.749,0,0,1-1.086.52" transform="translate(4.237 27.083)" fill="#fff"/>
    </g>
  </g>
</svg>
