<svg id="Group_172" data-name="Group 172" xmlns="http://www.w3.org/2000/svg" xmlns:xlink="http://www.w3.org/1999/xlink" width="280.608" height="117.982" viewBox="0 0 280.608 117.982">
  <defs>
    <clipPath id="clip-path">
      <rect id="Rectangle_31" data-name="Rectangle 31" width="280.608" height="117.982" fill="none"/>
    </clipPath>
  </defs>
  <g id="Group_171" data-name="Group 171" transform="translate(0 0)" clip-path="url(#clip-path)">
    <path id="Path_392" data-name="Path 392" d="M28.1,11.079a15.783,15.783,0,0,1-1.634,6.4h-.02V17.5c13.683-1.2,20.288-5.31,23.415-9.387C44.626,9.9,37.6,11.079,28.1,11.079" transform="translate(31.34 9.611)" fill="#a27012"/>
    <path id="Path_393" data-name="Path 393" d="M96.1,0H54.167c-9.19,0-18.573,4.954-22.915,8.061C10.3,23.037,0,53.32,0,53.32,2.908,48.257,24.28,9.112,53.267,9.112H83.9s.085,5.065-2.587,8.574C97.951,11.952,96.1,0,96.1,0" transform="translate(0 0)" fill="#a27012"/>
    <path id="Path_394" data-name="Path 394" d="M47.6,12.8s-2.967-.035-8.458-.162c-21.995-.5-32.406,15.5-37.491,23.284,5.085-5.307,15.024-15.2,33.047-14.856,13.969.264,19.134-4.252,21.21-8.666a74.411,74.411,0,0,1-8.308.4" transform="translate(1.953 14.692)" fill="#003b7c"/>
    <path id="Path_395" data-name="Path 395" d="M23.967,32.41a18.142,18.142,0,0,1,7.211,2.771A5.831,5.831,0,0,1,33.507,40.1a7.433,7.433,0,0,1-.752,3.306,8.241,8.241,0,0,1-2.076,2.674,9.943,9.943,0,0,1-3.155,1.787,11.816,11.816,0,0,1-4.018.653,17.741,17.741,0,0,1-9.846-2.808L16,43.68a14.01,14.01,0,0,0,7.617,2.076,7.739,7.739,0,0,0,2.672-.441,6.6,6.6,0,0,0,2.078-1.193A5.279,5.279,0,0,0,29.7,42.409a4.556,4.556,0,0,0,.461-2,4.237,4.237,0,0,0-.328-1.711,3.386,3.386,0,0,0-1.173-1.366A9.1,9.1,0,0,0,26.334,36.2a28.736,28.736,0,0,0-3.789-.981q-2.54-.5-4.385-1.058A11.959,11.959,0,0,1,15.1,32.814a5,5,0,0,1-1.79-1.923,6.205,6.205,0,0,1-.577-2.827,6.474,6.474,0,0,1,.712-3,6.927,6.927,0,0,1,2-2.364,9.92,9.92,0,0,1,3.039-1.54,12.559,12.559,0,0,1,3.826-.557,18.531,18.531,0,0,1,4.23.444,15.206,15.206,0,0,1,3.579,1.326v3.54a13.937,13.937,0,0,0-3.848-1.945,13.627,13.627,0,0,0-4.038-.594,7.379,7.379,0,0,0-4.558,1.267A3.83,3.83,0,0,0,16,27.8a3.414,3.414,0,0,0,.347,1.615,2.988,2.988,0,0,0,1.23,1.154,10.8,10.8,0,0,0,2.423.922q1.537.426,3.961.924" transform="translate(15.093 24.415)" fill="#003b7c"/>
    <path id="Path_396" data-name="Path 396" d="M27.565,23.2H24.143V20.62h3.422Zm-3.422,4.846h3.422V48H24.143Z" transform="translate(28.611 24.436)" fill="#003b7c"/>
    <path id="Path_397" data-name="Path 397" d="M37.644,23.859a9.37,9.37,0,0,1,3.712.749,9.757,9.757,0,0,1,3.037,2.021,9.478,9.478,0,0,1,2.039,2.978,8.967,8.967,0,0,1,.749,3.636V44.206H43.952V40.291h-.039V33.268a7.892,7.892,0,0,0-.4-2.5,6.744,6.744,0,0,0-1.191-2.187,6.021,6.021,0,0,0-1.962-1.554,6.462,6.462,0,0,0-5.423,0,6.207,6.207,0,0,0-1.98,1.554,6.519,6.519,0,0,0-1.213,2.187,7.954,7.954,0,0,0-.4,2.5V44.206H28.067V33.244a9,9,0,0,1,.749-3.636,9.478,9.478,0,0,1,2.039-2.978,9.741,9.741,0,0,1,3.039-2.021,9.449,9.449,0,0,1,3.75-.749" transform="translate(33.261 28.274)" fill="#003b7c"/>
    <path id="Path_398" data-name="Path 398" d="M52.257,44.55a13.983,13.983,0,0,1-1.846.116,13.314,13.314,0,0,1-4.731-.826,12.142,12.142,0,0,1-3.789-2.233,10.2,10.2,0,0,1-2.5-3.286,9.127,9.127,0,0,1-.9-4,9.244,9.244,0,0,1,.9-4.018,10.6,10.6,0,0,1,2.5-3.345,11.74,11.74,0,0,1,3.789-2.27,13.267,13.267,0,0,1,4.731-.828,14.365,14.365,0,0,1,1.846.116v2.655a9.558,9.558,0,0,0-1.884-.194,8.913,8.913,0,0,0-3.288.6,8.088,8.088,0,0,0-2.635,1.658,7.7,7.7,0,0,0-1.75,2.487,7.394,7.394,0,0,0-.634,3.046,7.2,7.2,0,0,0,.653,3.046,7.82,7.82,0,0,0,1.787,2.487A8.163,8.163,0,0,0,47.2,41.415a9.407,9.407,0,0,0,3.4.6,8.048,8.048,0,0,0,1.654-.155Z" transform="translate(45.609 28.273)" fill="#003b7c"/>
    <path id="Path_399" data-name="Path 399" d="M56.943,44.665a12.179,12.179,0,0,1-4.541-.826,11.264,11.264,0,0,1-3.575-2.231,10.148,10.148,0,0,1-2.347-3.286,10,10,0,0,1,0-8.061,10.2,10.2,0,0,1,2.364-3.326,11.317,11.317,0,0,1,3.616-2.251,12.321,12.321,0,0,1,4.558-.826,12.184,12.184,0,0,1,4.538.826,11.584,11.584,0,0,1,3.6,2.231A10.046,10.046,0,0,1,67.518,30.2a9.666,9.666,0,0,1,.846,4,9.561,9.561,0,0,1-.865,4.038,10.733,10.733,0,0,1-2.384,3.328A11.109,11.109,0,0,1,61.5,43.839a12.337,12.337,0,0,1-4.558.826M56.9,26.435a8.182,8.182,0,0,0-3.192.6,6.8,6.8,0,0,0-2.4,1.658,7.353,7.353,0,0,0-1.5,2.467,8.691,8.691,0,0,0-.518,3.026,8.3,8.3,0,0,0,.557,3.046A7.256,7.256,0,0,0,51.423,39.7a7.611,7.611,0,0,0,5.557,2.272,8.182,8.182,0,0,0,3.192-.6,6.926,6.926,0,0,0,2.4-1.639A7.358,7.358,0,0,0,64.1,37.29a8.418,8.418,0,0,0,.538-3.028,8.3,8.3,0,0,0-.557-3.046,7.359,7.359,0,0,0-4.02-4.163,7.851,7.851,0,0,0-3.153-.618" transform="translate(54.077 28.274)" fill="#003b7c"/>
    <path id="Path_400" data-name="Path 400" d="M68.079,23.824a11.214,11.214,0,0,1,4.307.806A10.48,10.48,0,0,1,75.75,26.8,9.6,9.6,0,0,1,77.925,30a9.843,9.843,0,0,1,.769,3.865,9.709,9.709,0,0,1-.769,3.846,9.572,9.572,0,0,1-2.154,3.153A10.2,10.2,0,0,1,72.444,43a11.288,11.288,0,0,1-4.289.789,11.135,11.135,0,0,1-4.173-.749,9.468,9.468,0,0,1-3.21-2.1V50.4H57.656V24.322h3.116v2.347a9.543,9.543,0,0,1,3.173-2.1,10.791,10.791,0,0,1,4.134-.749m0,17.461a7.693,7.693,0,0,0,3.02-.577,7.017,7.017,0,0,0,2.345-1.6,7.254,7.254,0,0,0,1.521-2.386,8.293,8.293,0,0,0,.017-5.828,7.151,7.151,0,0,0-1.46-2.347,6.723,6.723,0,0,0-2.31-1.575,7.779,7.779,0,0,0-3.057-.577,7.541,7.541,0,0,0-3,.577,7.055,7.055,0,0,0-2.327,1.6,7.249,7.249,0,0,0-1.519,2.384,7.829,7.829,0,0,0-.538,2.906,8.249,8.249,0,0,0,.5,2.884,6.818,6.818,0,0,0,3.769,3.961,7.646,7.646,0,0,0,3.039.577" transform="translate(68.325 28.233)" fill="#003b7c"/>
    <path id="Path_401" data-name="Path 401" d="M85.679,42.913a11.437,11.437,0,0,1-2.825,1.213,13.215,13.215,0,0,1-3.6.441,11.793,11.793,0,0,1-4.213-.749,10.48,10.48,0,0,1-3.441-2.1,9.912,9.912,0,0,1-2.327-3.269,10.193,10.193,0,0,1-.865-4.23,10.373,10.373,0,0,1,2.961-7.329,10.112,10.112,0,0,1,3.289-2.211,11.428,11.428,0,0,1,8.482.02,9.379,9.379,0,0,1,3.173,2.231,9.748,9.748,0,0,1,1.98,3.326,12.027,12.027,0,0,1,.693,4.117V34.8a3.455,3.455,0,0,1-.039.5H71.68a7.2,7.2,0,0,0,.846,2.849,7.24,7.24,0,0,0,4.077,3.4,8.525,8.525,0,0,0,2.731.439,9.412,9.412,0,0,0,3.6-.625,10.007,10.007,0,0,0,2.749-1.682ZM78.757,26.337A6.795,6.795,0,0,0,73.95,28.28a7.57,7.57,0,0,0-1.521,2.135,8.063,8.063,0,0,0-.749,2.692h14a9.22,9.22,0,0,0-.594-2.576,6.7,6.7,0,0,0-1.346-2.154,6.489,6.489,0,0,0-2.115-1.481,6.983,6.983,0,0,0-2.867-.557" transform="translate(81.07 28.296)" fill="#003b7c"/>
    <path id="Path_402" data-name="Path 402" d="M90.906,26.435a8.913,8.913,0,0,0-3.289.6,8.016,8.016,0,0,0-2.635,1.658,7.81,7.81,0,0,0-1.75,2.467,7.485,7.485,0,0,0,.02,6.072,7.656,7.656,0,0,0,1.807,2.487,8.414,8.414,0,0,0,2.712,1.658,9.34,9.34,0,0,0,3.365.6c.284,0,.566-.011.848-.037a7.454,7.454,0,0,0,.806-.116v2.692a14.331,14.331,0,0,1-1.844.116h-.5L89.06,47.936H84.6l2.731-3.769a11.94,11.94,0,0,1-5.98-3.752,9.606,9.606,0,0,1-1.693-2.862,9.358,9.358,0,0,1,.308-7.292,10.4,10.4,0,0,1,2.5-3.326,12.064,12.064,0,0,1,3.769-2.251,13.158,13.158,0,0,1,4.713-.826,14.331,14.331,0,0,1,1.844.116V26.63c-.282-.052-.577-.1-.885-.135a7.871,7.871,0,0,0-1-.059" transform="translate(93.691 28.274)" fill="#003b7c"/>
    <path id="Path_403" data-name="Path 403" d="M96.883,23.824q4.487,0,6.887,2.056a7.6,7.6,0,0,1,2.4,6.1V44.208h-3.116V41.169a7.351,7.351,0,0,1-1.46,1.309,11.57,11.57,0,0,1-1.982,1.095,12.554,12.554,0,0,1-2.423.769,12.906,12.906,0,0,1-2.749.288,10.754,10.754,0,0,1-2.924-.4,7.8,7.8,0,0,1-2.5-1.193,5.979,5.979,0,0,1-1.731-1.982,5.649,5.649,0,0,1-.656-2.768,5.579,5.579,0,0,1,2.423-4.9,11.4,11.4,0,0,1,6.577-1.674,34.275,34.275,0,0,1,4.02.229,25.44,25.44,0,0,1,3.4.616v-.538a5.029,5.029,0,0,0-1.707-4.154,7.369,7.369,0,0,0-4.772-1.385,13.585,13.585,0,0,0-3.529.424,21.549,21.549,0,0,0-3.068,1.077V25.131a20.186,20.186,0,0,1,3.2-.961,18.008,18.008,0,0,1,3.7-.345m6.208,10.96a31.491,31.491,0,0,0-3.164-.577A28.555,28.555,0,0,0,96,33.939a7.419,7.419,0,0,0-4.562,1.134,3.714,3.714,0,0,0-1.457,3.1,3.508,3.508,0,0,0,1.457,3.02,6.03,6.03,0,0,0,3.642,1.058,11.045,11.045,0,0,0,2.954-.4,9.021,9.021,0,0,0,2.567-1.134,6.473,6.473,0,0,0,1.8-1.731,3.834,3.834,0,0,0,.69-2.231Z" transform="translate(102.66 28.233)" fill="#003b7c"/>
    <path id="Path_404" data-name="Path 404" d="M105.952,32.807c.846.232,1.687.492,2.519.787a10.451,10.451,0,0,1,2.251,1.095,5.579,5.579,0,0,1,1.615,1.573,3.978,3.978,0,0,1,.616,2.264V38.6a5.282,5.282,0,0,1-.6,2.535,5.508,5.508,0,0,1-1.654,1.879,7.741,7.741,0,0,1-2.463,1.171,10.879,10.879,0,0,1-3.018.4,14.3,14.3,0,0,1-3.789-.518,17.948,17.948,0,0,1-3.6-1.4V39.513a14.939,14.939,0,0,0,3.673,1.857,12.022,12.022,0,0,0,3.865.642,5.717,5.717,0,0,0,3.232-.843,2.634,2.634,0,0,0,1.27-2.3v-.076a1.932,1.932,0,0,0-.444-1.267,3.92,3.92,0,0,0-1.193-.94,9.856,9.856,0,0,0-1.731-.71c-.653-.2-1.339-.4-2.056-.575q-1.272-.347-2.559-.749a10.466,10.466,0,0,1-2.327-1.036,5.48,5.48,0,0,1-1.674-1.554,3.986,3.986,0,0,1-.634-2.305v-.076a4.893,4.893,0,0,1,.557-2.321,5.477,5.477,0,0,1,1.538-1.8,7.481,7.481,0,0,1,2.327-1.169,9.856,9.856,0,0,1,2.963-.424,13.091,13.091,0,0,1,2.633.271,22.162,22.162,0,0,1,2.6.69V27.7a12.4,12.4,0,0,0-5.307-1.27,5.081,5.081,0,0,0-3.079.826,2.474,2.474,0,0,0-1.114,2.054v.076a1.756,1.756,0,0,0,.461,1.208,3.973,3.973,0,0,0,1.25.9,12.22,12.22,0,0,0,1.787.69c.669.205,1.359.411,2.078.614" transform="translate(115.258 28.274)" fill="#003b7c"/>
    <path id="Path_405" data-name="Path 405" d="M16.063,41.577a5.028,5.028,0,0,1,2.008.771,1.625,1.625,0,0,1,.647,1.37,2.094,2.094,0,0,1-.208.92,2.305,2.305,0,0,1-.579.745,2.776,2.776,0,0,1-.878.5,3.274,3.274,0,0,1-1.119.184,4.929,4.929,0,0,1-2.74-.782l.653-.568a4.032,4.032,0,0,0,.99.435,4.139,4.139,0,0,0,1.13.144,2.171,2.171,0,0,0,.743-.122,1.87,1.87,0,0,0,.579-.332,1.5,1.5,0,0,0,.369-.476,1.284,1.284,0,0,0,.129-.557,1.172,1.172,0,0,0-.092-.476.958.958,0,0,0-.326-.38,2.565,2.565,0,0,0-.649-.315,7.9,7.9,0,0,0-1.053-.273q-.708-.141-1.219-.295a3.377,3.377,0,0,1-.852-.374,1.389,1.389,0,0,1-.5-.538,1.721,1.721,0,0,1-.16-.787,1.813,1.813,0,0,1,.2-.835,1.958,1.958,0,0,1,.557-.658,2.823,2.823,0,0,1,.846-.428,3.522,3.522,0,0,1,1.066-.155,5.094,5.094,0,0,1,1.176.125,4.106,4.106,0,0,1,1,.369v.983a3.947,3.947,0,0,0-1.071-.54,3.746,3.746,0,0,0-1.123-.166,2.051,2.051,0,0,0-1.27.354,1.06,1.06,0,0,0-.465.876.96.96,0,0,0,.1.45.848.848,0,0,0,.343.321,3.106,3.106,0,0,0,.673.258q.429.118,1.1.256" transform="translate(15.332 45.377)" fill="#003b7c"/>
    <path id="Path_406" data-name="Path 406" d="M17.065,39.013h-.953V38.3h.953Zm-.953,1.348h.953v5.554h-.953Z" transform="translate(19.094 45.383)" fill="#003b7c"/>
    <path id="Path_407" data-name="Path 407" d="M19.869,39.2a2.594,2.594,0,0,1,1.034.21,2.71,2.71,0,0,1,.846.562,2.607,2.607,0,0,1,.566.828,2.49,2.49,0,0,1,.21,1.012v3.05h-.9V43.77h-.011V41.815a2.243,2.243,0,0,0-.111-.695,1.845,1.845,0,0,0-.332-.607,1.672,1.672,0,0,0-.546-.433,1.794,1.794,0,0,0-1.508,0,1.745,1.745,0,0,0-.553.433,1.855,1.855,0,0,0-.337.607,2.243,2.243,0,0,0-.111.695v3.044H17.2v-3.05a2.49,2.49,0,0,1,.21-1.012,2.643,2.643,0,0,1,.566-.828,2.7,2.7,0,0,1,.848-.562,2.6,2.6,0,0,1,1.042-.21" transform="translate(20.386 46.451)" fill="#003b7c"/>
    <path id="Path_408" data-name="Path 408" d="M26.405,38.208v7.814h-.931v-.706a2.864,2.864,0,0,1-.935.614,3.159,3.159,0,0,1-1.237.232,3.373,3.373,0,0,1-1.291-.24,3.165,3.165,0,0,1-1-.649,2.866,2.866,0,0,1-.647-.953,2.949,2.949,0,0,1-.229-1.156,2.873,2.873,0,0,1,.229-1.145,2.933,2.933,0,0,1,.642-.942,3.026,3.026,0,0,1,.99-.642A3.364,3.364,0,0,1,23.28,40.2a3.231,3.231,0,0,1,1.248.229,2.933,2.933,0,0,1,.946.627V38.208ZM23.28,45.39a2.27,2.27,0,0,0,.894-.17,2.076,2.076,0,0,0,.69-.476,2.211,2.211,0,0,0,.45-.708,2.361,2.361,0,0,0,.16-.872,2.539,2.539,0,0,0-.149-.867,2.029,2.029,0,0,0-.435-.706,2.057,2.057,0,0,0-.684-.472,2.3,2.3,0,0,0-.9-.17,2.236,2.236,0,0,0-.9.177,2.19,2.19,0,0,0-.7.476,2.094,2.094,0,0,0-.454.712,2.375,2.375,0,0,0-.16.872,2.335,2.335,0,0,0,.155.861,2.074,2.074,0,0,0,.439.7,1.99,1.99,0,0,0,.69.472,2.324,2.324,0,0,0,.909.17" transform="translate(23.86 45.279)" fill="#003b7c"/>
    <path id="Path_409" data-name="Path 409" d="M24.647,39.013h-.953V38.3h.953Zm-.95,1.348h.953v5.554H23.7Z" transform="translate(28.079 45.383)" fill="#003b7c"/>
    <path id="Path_410" data-name="Path 410" d="M28.453,44.956a3.878,3.878,0,0,1-.513.033,3.681,3.681,0,0,1-1.318-.232,3.4,3.4,0,0,1-1.053-.621,2.783,2.783,0,0,1-.695-.916,2.529,2.529,0,0,1-.253-1.112,2.571,2.571,0,0,1,.253-1.119,2.888,2.888,0,0,1,.695-.931,3.26,3.26,0,0,1,1.053-.631,3.728,3.728,0,0,1,1.318-.229,3.885,3.885,0,0,1,.513.031v.739a2.718,2.718,0,0,0-.524-.052,2.47,2.47,0,0,0-.916.166,2.231,2.231,0,0,0-.732.461,2.151,2.151,0,0,0-.487.693,2.1,2.1,0,0,0,0,1.7,2.21,2.21,0,0,0,1.248,1.152,2.613,2.613,0,0,0,.948.168,2.242,2.242,0,0,0,.459-.044Z" transform="translate(29.176 46.452)" fill="#003b7c"/>
    <path id="Path_411" data-name="Path 411" d="M29.556,39.188a2.855,2.855,0,0,1,1.916.572,2.109,2.109,0,0,1,.669,1.7v3.4h-.867v-.846a2.021,2.021,0,0,1-.406.365,3.3,3.3,0,0,1-.551.3,3.445,3.445,0,0,1-.675.214,3.52,3.52,0,0,1-.765.081,2.994,2.994,0,0,1-.815-.111,2.225,2.225,0,0,1-.695-.332,1.63,1.63,0,0,1-.481-.553,1.714,1.714,0,0,1,.492-2.135,3.175,3.175,0,0,1,1.829-.465,9.754,9.754,0,0,1,1.119.063,7.02,7.02,0,0,1,.948.173v-.151a1.4,1.4,0,0,0-.476-1.156,2.056,2.056,0,0,0-1.329-.385,3.785,3.785,0,0,0-.981.118,6,6,0,0,0-.854.3v-.793a5.664,5.664,0,0,1,.894-.267,4.878,4.878,0,0,1,1.029-.1m1.728,3.05a8.774,8.774,0,0,0-.881-.162A8.249,8.249,0,0,0,29.309,42a2.059,2.059,0,0,0-1.27.317,1.032,1.032,0,0,0-.406.861.976.976,0,0,0,.406.841,1.7,1.7,0,0,0,1.014.293,3.078,3.078,0,0,0,.822-.111,2.423,2.423,0,0,0,.715-.317,1.794,1.794,0,0,0,.5-.481,1.064,1.064,0,0,0,.192-.621Z" transform="translate(31.643 46.44)" fill="#003b7c"/>
    <path id="Path_412" data-name="Path 412" d="M32.311,45.331h-.472a1.928,1.928,0,0,1-1.4-.481,1.886,1.886,0,0,1-.494-1.414V38.791h.933V39.8h1.433v.719H30.878v2.878c0,.8.358,1.2,1.079,1.2h.354Z" transform="translate(35.486 45.969)" fill="#003b7c"/>
    <path id="Path_413" data-name="Path 413" d="M34.453,44.988a3.39,3.39,0,0,1-1.263-.229,3.155,3.155,0,0,1-1-.621,2.826,2.826,0,0,1-.651-.916,2.785,2.785,0,0,1,0-2.244,2.815,2.815,0,0,1,.658-.924,3.121,3.121,0,0,1,1.005-.627,3.609,3.609,0,0,1,2.532,0,3.211,3.211,0,0,1,1,.621,2.79,2.79,0,0,1,.658.916,2.682,2.682,0,0,1,.236,1.112A2.65,2.65,0,0,1,37.39,43.2a2.942,2.942,0,0,1-.662.924,3.109,3.109,0,0,1-1.007.634,3.43,3.43,0,0,1-1.267.229m-.011-5.074a2.271,2.271,0,0,0-.889.166,1.916,1.916,0,0,0-.669.461,2.041,2.041,0,0,0-.417.688,2.413,2.413,0,0,0-.144.841,2.319,2.319,0,0,0,.155.848,1.987,1.987,0,0,0,.439.686,2.084,2.084,0,0,0,.673.461,2.137,2.137,0,0,0,.874.173,2.261,2.261,0,0,0,.887-.166,1.944,1.944,0,0,0,.671-.457,2.049,2.049,0,0,0,.422-.682,2.408,2.408,0,0,0,0-1.689A2.127,2.127,0,0,0,36,40.553a2.09,2.09,0,0,0-.68-.465,2.166,2.166,0,0,0-.878-.173" transform="translate(37.1 46.452)" fill="#003b7c"/>
    <path id="Path_414" data-name="Path 414" d="M42.3,38.208v7.814h-.931v-.706a2.864,2.864,0,0,1-.935.614,3.159,3.159,0,0,1-1.237.232,3.373,3.373,0,0,1-1.291-.24,3.165,3.165,0,0,1-1-.649,2.866,2.866,0,0,1-.647-.953,2.949,2.949,0,0,1-.229-1.156,2.873,2.873,0,0,1,.229-1.145,2.933,2.933,0,0,1,.642-.942,3.026,3.026,0,0,1,.99-.642A3.372,3.372,0,0,1,39.17,40.2a3.231,3.231,0,0,1,1.248.229,2.933,2.933,0,0,1,.946.627V38.208ZM39.17,45.39a2.27,2.27,0,0,0,.894-.17,2.076,2.076,0,0,0,.69-.476,2.211,2.211,0,0,0,.45-.708,2.318,2.318,0,0,0,.16-.872,2.539,2.539,0,0,0-.149-.867,2.029,2.029,0,0,0-.435-.706,2.057,2.057,0,0,0-.684-.472,2.3,2.3,0,0,0-.9-.17,2.236,2.236,0,0,0-.9.177,2.19,2.19,0,0,0-.7.476,2.094,2.094,0,0,0-.454.712,2.375,2.375,0,0,0-.16.872,2.335,2.335,0,0,0,.155.861,2.074,2.074,0,0,0,.439.7,1.99,1.99,0,0,0,.69.472,2.324,2.324,0,0,0,.909.17" transform="translate(42.69 45.279)" fill="#003b7c"/>
    <path id="Path_415" data-name="Path 415" d="M42.423,44.988a3.39,3.39,0,0,1-1.263-.229,3.155,3.155,0,0,1-1-.621,2.826,2.826,0,0,1-.651-.916,2.785,2.785,0,0,1,0-2.244,2.815,2.815,0,0,1,.658-.924,3.121,3.121,0,0,1,1.005-.627,3.609,3.609,0,0,1,2.532,0,3.211,3.211,0,0,1,1,.621,2.79,2.79,0,0,1,.658.916,2.682,2.682,0,0,1,.236,1.112A2.65,2.65,0,0,1,45.36,43.2a2.942,2.942,0,0,1-.662.924,3.109,3.109,0,0,1-1.007.634,3.43,3.43,0,0,1-1.267.229m-.011-5.074a2.271,2.271,0,0,0-.889.166,1.916,1.916,0,0,0-.669.461,2.041,2.041,0,0,0-.417.688,2.413,2.413,0,0,0-.144.841,2.319,2.319,0,0,0,.155.848,1.987,1.987,0,0,0,.439.686,2.084,2.084,0,0,0,.673.461,2.137,2.137,0,0,0,.874.173,2.26,2.26,0,0,0,.887-.166,1.944,1.944,0,0,0,.671-.457,2.049,2.049,0,0,0,.422-.682,2.408,2.408,0,0,0,0-1.689,2.127,2.127,0,0,0-.439-.693,2.09,2.09,0,0,0-.68-.465,2.166,2.166,0,0,0-.878-.173" transform="translate(46.545 46.452)" fill="#003b7c"/>
    <path id="Path_416" data-name="Path 416" d="M48.6,46.008a6.018,6.018,0,0,1-.631.033,4.43,4.43,0,0,1-1.643-.3,4.144,4.144,0,0,1-1.307-.819,3.743,3.743,0,0,1-.861-1.221,3.834,3.834,0,0,1,0-3.022,3.83,3.83,0,0,1,.861-1.237,4.063,4.063,0,0,1,1.311-.835,4.453,4.453,0,0,1,1.672-.306,5.319,5.319,0,0,1,.6.033v.78c-.1-.013-.2-.024-.3-.031s-.2-.011-.31-.011a3.357,3.357,0,0,0-1.27.236,3.011,3.011,0,0,0-1.005.656,3.053,3.053,0,0,0-.664.983,3.089,3.089,0,0,0-.24,1.219,3.134,3.134,0,0,0,.24,1.224,2.98,2.98,0,0,0,.669.988,3.085,3.085,0,0,0,1.012.656,3.325,3.325,0,0,0,1.259.236c.107,0,.21,0,.31-.011s.2-.017.3-.031Z" transform="translate(51.967 45.389)" fill="#003b7c"/>
    <path id="Path_417" data-name="Path 417" d="M49.281,44.988a3.39,3.39,0,0,1-1.263-.229,3.155,3.155,0,0,1-1-.621,2.826,2.826,0,0,1-.651-.916,2.785,2.785,0,0,1,0-2.244,2.815,2.815,0,0,1,.658-.924,3.121,3.121,0,0,1,1.005-.627,3.609,3.609,0,0,1,2.532,0,3.211,3.211,0,0,1,1,.621,2.79,2.79,0,0,1,.658.916,2.682,2.682,0,0,1,.236,1.112,2.65,2.65,0,0,1-.243,1.125,2.942,2.942,0,0,1-.662.924,3.109,3.109,0,0,1-1.007.634,3.43,3.43,0,0,1-1.267.229m-.011-5.074a2.271,2.271,0,0,0-.889.166,1.916,1.916,0,0,0-.669.461,2.041,2.041,0,0,0-.417.688,2.413,2.413,0,0,0-.144.841,2.319,2.319,0,0,0,.155.848,1.987,1.987,0,0,0,.439.686,2.084,2.084,0,0,0,.673.461,2.137,2.137,0,0,0,.874.173,2.26,2.26,0,0,0,.887-.166,1.944,1.944,0,0,0,.671-.457,2.049,2.049,0,0,0,.422-.682,2.408,2.408,0,0,0,0-1.689,2.127,2.127,0,0,0-.439-.693,2.09,2.09,0,0,0-.68-.465,2.166,2.166,0,0,0-.878-.173" transform="translate(54.672 46.452)" fill="#003b7c"/>
    <path id="Path_418" data-name="Path 418" d="M56.441,39.188a2.594,2.594,0,0,1,1.034.21,2.71,2.71,0,0,1,.846.562,2.632,2.632,0,0,1,.566.828,2.519,2.519,0,0,1,.21,1.023v3.05h-.9V43.772h-.011V41.817a2.281,2.281,0,0,0-.111-.7,1.833,1.833,0,0,0-.332-.614,1.672,1.672,0,0,0-.546-.433,1.794,1.794,0,0,0-1.508,0,1.745,1.745,0,0,0-.553.433,1.816,1.816,0,0,0-.336.607,2.243,2.243,0,0,0-.111.695V44.86h-.9V41.806a2.243,2.243,0,0,0-.111-.695,1.821,1.821,0,0,0-.339-.607,1.712,1.712,0,0,0-.551-.433,1.8,1.8,0,0,0-1.51,0,1.663,1.663,0,0,0-.544.433,1.833,1.833,0,0,0-.332.614,2.284,2.284,0,0,0-.114.7V44.86h-.909V41.81a2.519,2.519,0,0,1,.21-1.023,2.6,2.6,0,0,1,.566-.828A2.685,2.685,0,0,1,51,39.4a2.689,2.689,0,0,1,2.307.107,2.612,2.612,0,0,1,.931.839,2.709,2.709,0,0,1,.937-.839,2.561,2.561,0,0,1,1.267-.317" transform="translate(58.514 46.44)" fill="#003b7c"/>
    <path id="Path_419" data-name="Path 419" d="M59.209,45.592a3.187,3.187,0,0,1-.787.337,3.637,3.637,0,0,1-1,.122,3.275,3.275,0,0,1-1.173-.208,2.948,2.948,0,0,1-.957-.583,2.729,2.729,0,0,1-.647-.911,2.807,2.807,0,0,1-.24-1.176,2.893,2.893,0,0,1,.219-1.125,2.837,2.837,0,0,1,.605-.913,2.8,2.8,0,0,1,.913-.616,3.177,3.177,0,0,1,2.36,0,2.6,2.6,0,0,1,.885.623,2.723,2.723,0,0,1,.551.924,3.35,3.35,0,0,1,.192,1.145v.118a1.09,1.09,0,0,1-.011.14h-4.8a2,2,0,0,0,.236.793,2.031,2.031,0,0,0,.481.586,2.01,2.01,0,0,0,.653.361,2.33,2.33,0,0,0,.76.122,2.628,2.628,0,0,0,1-.173,2.773,2.773,0,0,0,.765-.47ZM57.282,40.98a1.848,1.848,0,0,0-.739.144,1.893,1.893,0,0,0-.6.4,2.1,2.1,0,0,0-.424.594,2.267,2.267,0,0,0-.208.749h3.9a2.59,2.59,0,0,0-.166-.719,1.9,1.9,0,0,0-.374-.6,1.82,1.82,0,0,0-.59-.411,1.917,1.917,0,0,0-.8-.155m-.5-1.414,1.005-1.285H58.91l-1.444,1.285Z" transform="translate(64.471 45.365)" fill="#003b7c"/>
    <path id="Path_420" data-name="Path 420" d="M60.348,39.2v.824h-.332a1.621,1.621,0,0,0-.68.144,1.792,1.792,0,0,0-.551.391,1.934,1.934,0,0,0-.376.568,1.7,1.7,0,0,0-.138.675v3.039h-.9V41.8a2.493,2.493,0,0,1,.21-1.014,2.62,2.62,0,0,1,1.407-1.385,2.618,2.618,0,0,1,1.027-.2Z" transform="translate(67.989 46.456)" fill="#003b7c"/>
    <path id="Path_421" data-name="Path 421" d="M62.625,44.956a3.878,3.878,0,0,1-.513.033,3.681,3.681,0,0,1-1.318-.232,3.373,3.373,0,0,1-1.053-.621,2.783,2.783,0,0,1-.695-.916,2.529,2.529,0,0,1-.253-1.112,2.571,2.571,0,0,1,.253-1.119,2.888,2.888,0,0,1,.695-.931,3.237,3.237,0,0,1,1.053-.631,3.728,3.728,0,0,1,1.318-.229,3.885,3.885,0,0,1,.513.031v.739a2.719,2.719,0,0,0-.524-.052,2.47,2.47,0,0,0-.916.166,2.231,2.231,0,0,0-.732.461,2.151,2.151,0,0,0-.487.693,2.1,2.1,0,0,0,0,1.7,2.21,2.21,0,0,0,1.248,1.152,2.613,2.613,0,0,0,.948.168,2.242,2.242,0,0,0,.459-.044Z" transform="translate(69.671 46.452)" fill="#003b7c"/>
    <path id="Path_422" data-name="Path 422" d="M62.043,39.013H61.09V38.3h.953Zm-.953,1.348h.953v5.554H61.09Z" transform="translate(72.395 45.383)" fill="#003b7c"/>
    <path id="Path_423" data-name="Path 423" d="M65.059,44.988a3.39,3.39,0,0,1-1.263-.229,3.155,3.155,0,0,1-1-.621,2.826,2.826,0,0,1-.651-.916,2.785,2.785,0,0,1,0-2.244,2.816,2.816,0,0,1,.658-.924,3.121,3.121,0,0,1,1.005-.627,3.609,3.609,0,0,1,2.532,0,3.211,3.211,0,0,1,1,.621,2.79,2.79,0,0,1,.658.916,2.682,2.682,0,0,1,.236,1.112A2.65,2.65,0,0,1,68,43.2a2.942,2.942,0,0,1-.662.924,3.109,3.109,0,0,1-1.007.634,3.43,3.43,0,0,1-1.267.229m-.011-5.074a2.271,2.271,0,0,0-.889.166,1.916,1.916,0,0,0-.669.461,2.041,2.041,0,0,0-.417.688,2.413,2.413,0,0,0-.144.841,2.318,2.318,0,0,0,.155.848,1.987,1.987,0,0,0,.439.686,2.084,2.084,0,0,0,.673.461,2.137,2.137,0,0,0,.874.173,2.261,2.261,0,0,0,.887-.166,1.944,1.944,0,0,0,.671-.457,2.049,2.049,0,0,0,.422-.682,2.408,2.408,0,0,0,0-1.689,2.127,2.127,0,0,0-.439-.693,2.09,2.09,0,0,0-.68-.465,2.166,2.166,0,0,0-.878-.173" transform="translate(73.37 46.452)" fill="#003b7c"/>
    <path id="Path_424" data-name="Path 424" d="M72.9,38.208v7.814H71.97v-.706a2.864,2.864,0,0,1-.935.614,3.159,3.159,0,0,1-1.237.232,3.373,3.373,0,0,1-1.291-.24,3.165,3.165,0,0,1-1-.649,2.866,2.866,0,0,1-.647-.953,2.949,2.949,0,0,1-.229-1.156,2.873,2.873,0,0,1,.229-1.145,2.933,2.933,0,0,1,.642-.942,3.026,3.026,0,0,1,.99-.642,3.364,3.364,0,0,1,1.285-.236,3.231,3.231,0,0,1,1.248.229,2.932,2.932,0,0,1,.946.627V38.208ZM69.776,45.39a2.27,2.27,0,0,0,.894-.17,2.076,2.076,0,0,0,.69-.476,2.21,2.21,0,0,0,.45-.708,2.361,2.361,0,0,0,.16-.872,2.539,2.539,0,0,0-.149-.867,2.029,2.029,0,0,0-.435-.706,2.057,2.057,0,0,0-.684-.472,2.3,2.3,0,0,0-.9-.17,2.236,2.236,0,0,0-.9.177,2.19,2.19,0,0,0-.7.476,2.094,2.094,0,0,0-.454.712,2.375,2.375,0,0,0-.16.872,2.334,2.334,0,0,0,.155.861,2.074,2.074,0,0,0,.439.7,1.99,1.99,0,0,0,.69.472,2.324,2.324,0,0,0,.909.17" transform="translate(78.96 45.279)" fill="#003b7c"/>
    <path id="Path_425" data-name="Path 425" d="M74.8,44.5a3.191,3.191,0,0,1-.787.339,3.723,3.723,0,0,1-1,.122,3.268,3.268,0,0,1-1.173-.21,2.906,2.906,0,0,1-.957-.581,2.751,2.751,0,0,1-.647-.911,2.818,2.818,0,0,1-.243-1.178,2.876,2.876,0,0,1,.221-1.123,2.815,2.815,0,0,1,1.519-1.532,3.163,3.163,0,0,1,2.36.007,2.617,2.617,0,0,1,.885.621,2.713,2.713,0,0,1,.551.926,3.342,3.342,0,0,1,.192,1.145v.118a1.118,1.118,0,0,1-.011.14H70.9a2.017,2.017,0,0,0,.234.791,2.023,2.023,0,0,0,1.136.948,2.389,2.389,0,0,0,.76.122,2.634,2.634,0,0,0,1-.175A2.8,2.8,0,0,0,74.8,43.6ZM72.87,39.888a1.886,1.886,0,0,0-.739.144,1.931,1.931,0,0,0-.6.4,2.129,2.129,0,0,0-.424.594,2.282,2.282,0,0,0-.208.749h3.9a2.575,2.575,0,0,0-.166-.717,1.819,1.819,0,0,0-.376-.6,1.761,1.761,0,0,0-.588-.413,1.952,1.952,0,0,0-.8-.155" transform="translate(82.942 46.456)" fill="#003b7c"/>
    <path id="Path_426" data-name="Path 426" d="M77.278,43.2H75.6v2.644h-.911V38.355h2.742a4.439,4.439,0,0,1,1.245.166,2.916,2.916,0,0,1,.959.472,2.126,2.126,0,0,1,.614.749,2.374,2.374,0,0,1-.035,2.071,2.358,2.358,0,0,1-.693.769,3.057,3.057,0,0,1-1.016.465,4.689,4.689,0,0,1-1.226.155m.085-4.077H75.6v3.308h1.711a3.308,3.308,0,0,0,.916-.118,2.1,2.1,0,0,0,.7-.339,1.592,1.592,0,0,0,.45-.527,1.445,1.445,0,0,0,.16-.682,1.4,1.4,0,0,0-.592-1.23,2.725,2.725,0,0,0-1.58-.413" transform="translate(88.508 45.453)" fill="#003b7c"/>
    <path id="Path_427" data-name="Path 427" d="M82.38,44.5a3.172,3.172,0,0,1-.789.339,3.718,3.718,0,0,1-1,.122,3.268,3.268,0,0,1-1.173-.21,2.916,2.916,0,0,1-.959-.581,2.751,2.751,0,0,1-.647-.911,2.871,2.871,0,0,1,1.5-3.833,3.163,3.163,0,0,1,2.36.007,2.586,2.586,0,0,1,.883.621,2.717,2.717,0,0,1,.553.926,3.342,3.342,0,0,1,.192,1.145v.118a.816.816,0,0,1-.011.14H78.482a2.018,2.018,0,0,0,.236.791,2,2,0,0,0,1.136.948,2.366,2.366,0,0,0,.758.122,2.619,2.619,0,0,0,1-.175,2.81,2.81,0,0,0,.767-.468Zm-1.927-4.613a1.878,1.878,0,0,0-.739.144,1.905,1.905,0,0,0-.6.4,2.085,2.085,0,0,0-.424.594,2.231,2.231,0,0,0-.21.749h3.9a2.578,2.578,0,0,0-.168-.717,1.814,1.814,0,0,0-.374-.6,1.783,1.783,0,0,0-.588-.413,1.96,1.96,0,0,0-.8-.155" transform="translate(91.928 46.456)" fill="#003b7c"/>
    <path id="Path_428" data-name="Path 428" d="M83.834,39.915a2.47,2.47,0,0,0-.916.166,2.231,2.231,0,0,0-.732.461,2.123,2.123,0,0,0-.487.688,2.016,2.016,0,0,0-.177.841,1.99,1.99,0,0,0,.181.848,2.162,2.162,0,0,0,.5.693,2.342,2.342,0,0,0,.756.461,2.575,2.575,0,0,0,.935.166c.079,0,.157,0,.236-.011a1.8,1.8,0,0,0,.225-.033v.749a3.91,3.91,0,0,1-.516.033h-.138l-.387.92H82.08l.758-1.049a3.311,3.311,0,0,1-1.663-1.042,2.682,2.682,0,0,1-.472-.8,2.54,2.54,0,0,1-.166-.911,2.576,2.576,0,0,1,.251-1.119,2.9,2.9,0,0,1,.7-.924,3.308,3.308,0,0,1,1.049-.627,3.654,3.654,0,0,1,1.309-.229,4.333,4.333,0,0,1,.516.031v.741c-.079-.015-.162-.028-.247-.039a2.722,2.722,0,0,0-.277-.015" transform="translate(95.44 46.452)" fill="#003b7c"/>
    <path id="Path_429" data-name="Path 429" d="M85.5,39.188a2.861,2.861,0,0,1,1.918.572,2.115,2.115,0,0,1,.666,1.7v3.4h-.867v-.846a2.021,2.021,0,0,1-.406.365,3.3,3.3,0,0,1-.551.3,3.493,3.493,0,0,1-.675.214,3.535,3.535,0,0,1-.765.081A2.979,2.979,0,0,1,84,44.867a2.192,2.192,0,0,1-.7-.332,1.654,1.654,0,0,1-.481-.553,1.722,1.722,0,0,1,.492-2.135,3.175,3.175,0,0,1,1.829-.465,9.754,9.754,0,0,1,1.119.063,7.019,7.019,0,0,1,.948.173v-.151a1.407,1.407,0,0,0-.474-1.156,2.064,2.064,0,0,0-1.328-.385,3.791,3.791,0,0,0-.983.118,6.1,6.1,0,0,0-.854.3v-.793a5.664,5.664,0,0,1,.894-.267,4.879,4.879,0,0,1,1.029-.1m1.728,3.05a8.773,8.773,0,0,0-.881-.162A8.216,8.216,0,0,0,85.251,42a2.057,2.057,0,0,0-1.272.317,1.031,1.031,0,0,0-.406.861.976.976,0,0,0,.406.841,1.7,1.7,0,0,0,1.014.293,3.078,3.078,0,0,0,.822-.111,2.423,2.423,0,0,0,.714-.317,1.765,1.765,0,0,0,.5-.481,1.064,1.064,0,0,0,.192-.621Z" transform="translate(97.937 46.44)" fill="#003b7c"/>
    <path id="Path_430" data-name="Path 430" d="M88.022,41.688c.234.063.468.138.7.218a3.053,3.053,0,0,1,.623.3,1.57,1.57,0,0,1,.45.439,1.093,1.093,0,0,1,.173.629V43.3a1.464,1.464,0,0,1-.166.706,1.5,1.5,0,0,1-.461.522,2.12,2.12,0,0,1-.682.326,3.069,3.069,0,0,1-.841.114,4.028,4.028,0,0,1-1.058-.144,5.173,5.173,0,0,1-1-.391v-.878a4.187,4.187,0,0,0,1.025.518,3.357,3.357,0,0,0,1.073.177,1.6,1.6,0,0,0,.9-.234.734.734,0,0,0,.354-.64v-.022A.531.531,0,0,0,88.988,43a1.057,1.057,0,0,0-.328-.262,2.92,2.92,0,0,0-.483-.2c-.184-.057-.376-.109-.572-.16-.238-.063-.474-.133-.714-.208a2.961,2.961,0,0,1-.647-.288,1.472,1.472,0,0,1-.463-.433,1.1,1.1,0,0,1-.177-.64V40.79a1.317,1.317,0,0,1,.155-.647,1.485,1.485,0,0,1,.426-.5,2.115,2.115,0,0,1,.647-.326,2.749,2.749,0,0,1,.824-.118,3.7,3.7,0,0,1,.736.076,5.877,5.877,0,0,1,.723.192v.8a3.453,3.453,0,0,0-1.477-.352,1.417,1.417,0,0,0-.859.229.693.693,0,0,0-.312.57v.022a.493.493,0,0,0,.131.336,1.1,1.1,0,0,0,.345.251,3.829,3.829,0,0,0,.5.192c.188.057.38.114.581.17" transform="translate(101.444 46.451)" fill="#003b7c"/>
    <path id="Path_431" data-name="Path 431" d="M94.313,44.5a3.172,3.172,0,0,1-.789.339,3.718,3.718,0,0,1-1,.122,3.268,3.268,0,0,1-1.173-.21,2.916,2.916,0,0,1-.959-.581,2.751,2.751,0,0,1-.647-.911,2.871,2.871,0,0,1,1.5-3.833,3.163,3.163,0,0,1,2.36.007,2.586,2.586,0,0,1,.883.621,2.716,2.716,0,0,1,.553.926,3.394,3.394,0,0,1,.192,1.145v.118a1.121,1.121,0,0,1-.011.14H90.415a2.018,2.018,0,0,0,.236.791,2,2,0,0,0,1.136.948,2.366,2.366,0,0,0,.758.122,2.619,2.619,0,0,0,1-.175,2.81,2.81,0,0,0,.767-.468Zm-1.927-4.613a1.878,1.878,0,0,0-.739.144,1.905,1.905,0,0,0-.6.4,2.085,2.085,0,0,0-.424.594,2.232,2.232,0,0,0-.21.749h3.9a2.578,2.578,0,0,0-.168-.717,1.814,1.814,0,0,0-.374-.6,1.783,1.783,0,0,0-.588-.413,1.96,1.96,0,0,0-.8-.155" transform="translate(106.069 46.456)" fill="#003b7c"/>
    <path id="Path_432" data-name="Path 432" d="M97.051,41.577a5.028,5.028,0,0,1,2.008.771,1.625,1.625,0,0,1,.647,1.37,2.065,2.065,0,0,1-.21.92,2.269,2.269,0,0,1-.577.745,2.776,2.776,0,0,1-.878.5,3.274,3.274,0,0,1-1.119.184,4.929,4.929,0,0,1-2.74-.782l.653-.568a4.031,4.031,0,0,0,.99.435,4.128,4.128,0,0,0,1.13.144,2.193,2.193,0,0,0,.745-.122,1.883,1.883,0,0,0,.577-.332,1.47,1.47,0,0,0,.369-.476,1.284,1.284,0,0,0,.129-.557,1.172,1.172,0,0,0-.092-.476.94.94,0,0,0-.326-.38,2.565,2.565,0,0,0-.649-.315,7.9,7.9,0,0,0-1.053-.273q-.708-.141-1.221-.295a3.4,3.4,0,0,1-.85-.374,1.389,1.389,0,0,1-.5-.538,1.72,1.72,0,0,1-.162-.787,1.815,1.815,0,0,1,.2-.835,1.958,1.958,0,0,1,.557-.658,2.823,2.823,0,0,1,.846-.428,3.518,3.518,0,0,1,1.064-.155,5.133,5.133,0,0,1,1.18.125,4.124,4.124,0,0,1,.994.369v.983a3.916,3.916,0,0,0-1.071-.54,3.746,3.746,0,0,0-1.123-.166,2.051,2.051,0,0,0-1.27.354,1.06,1.06,0,0,0-.465.876.96.96,0,0,0,.1.45.848.848,0,0,0,.343.321,3.085,3.085,0,0,0,.675.258q.426.118,1.1.256" transform="translate(111.305 45.377)" fill="#003b7c"/>
    <path id="Path_433" data-name="Path 433" d="M101.705,44.5a3.172,3.172,0,0,1-.789.339,3.718,3.718,0,0,1-1,.122,3.268,3.268,0,0,1-1.173-.21,2.916,2.916,0,0,1-.959-.581,2.751,2.751,0,0,1-.647-.911,2.871,2.871,0,0,1,1.5-3.833,3.163,3.163,0,0,1,2.36.007,2.586,2.586,0,0,1,.883.621,2.682,2.682,0,0,1,.553.926,3.4,3.4,0,0,1,.192,1.145v.118a1.12,1.12,0,0,1-.011.14H97.807a2.019,2.019,0,0,0,.236.791,2,2,0,0,0,1.136.948,2.366,2.366,0,0,0,.758.122,2.619,2.619,0,0,0,1-.175,2.81,2.81,0,0,0,.767-.468Zm-1.927-4.613a1.878,1.878,0,0,0-.739.144,1.906,1.906,0,0,0-.6.4,2.085,2.085,0,0,0-.424.594,2.231,2.231,0,0,0-.21.749h3.9a2.579,2.579,0,0,0-.168-.717,1.814,1.814,0,0,0-.374-.6,1.783,1.783,0,0,0-.588-.413,1.96,1.96,0,0,0-.8-.155" transform="translate(114.829 46.456)" fill="#003b7c"/>
    <path id="Path_434" data-name="Path 434" d="M103,39.2v.824h-.332a1.614,1.614,0,0,0-.68.144,1.776,1.776,0,0,0-.553.391,1.928,1.928,0,0,0-.374.568,1.662,1.662,0,0,0-.14.675v3.039h-.9V41.8a2.493,2.493,0,0,1,.21-1.014,2.643,2.643,0,0,1,2.434-1.589Z" transform="translate(118.533 46.456)" fill="#003b7c"/>
    <path id="Path_435" data-name="Path 435" d="M106.757,39.251h.985l-2.657,5.576h-.8l-2.644-5.576h1.007l2.054,4.593Z" transform="translate(120.448 46.515)" fill="#003b7c"/>
    <path id="Path_436" data-name="Path 436" d="M105.968,39.013h-.953V38.3h.953Zm-.953,1.348h.953v5.554h-.953Z" transform="translate(124.448 45.383)" fill="#003b7c"/>
    <path id="Path_437" data-name="Path 437" d="M109.243,39.915a2.47,2.47,0,0,0-.916.166,2.231,2.231,0,0,0-.732.461,2.123,2.123,0,0,0-.487.688,2.017,2.017,0,0,0-.177.841,1.99,1.99,0,0,0,.181.848,2.162,2.162,0,0,0,.5.693,2.342,2.342,0,0,0,.756.461,2.575,2.575,0,0,0,.935.166c.079,0,.157,0,.236-.011a1.8,1.8,0,0,0,.225-.033v.749a3.91,3.91,0,0,1-.516.033h-.138l-.387.92h-1.239l.758-1.049a3.311,3.311,0,0,1-1.663-1.042,2.681,2.681,0,0,1-.472-.8,2.539,2.539,0,0,1-.166-.911,2.576,2.576,0,0,1,.251-1.119,2.9,2.9,0,0,1,.7-.924,3.308,3.308,0,0,1,1.049-.627,3.654,3.654,0,0,1,1.309-.229,4.333,4.333,0,0,1,.516.031v.741c-.079-.015-.162-.028-.247-.039a2.723,2.723,0,0,0-.277-.015" transform="translate(125.551 46.452)" fill="#003b7c"/>
    <path id="Path_438" data-name="Path 438" d="M111.105,44.988a3.39,3.39,0,0,1-1.263-.229,3.18,3.18,0,0,1-1-.621,2.859,2.859,0,0,1-.651-.916,2.785,2.785,0,0,1,0-2.244,2.815,2.815,0,0,1,.658-.924,3.121,3.121,0,0,1,1.005-.627,3.441,3.441,0,0,1,1.27-.229,3.407,3.407,0,0,1,1.263.229,3.175,3.175,0,0,1,1,.621,2.765,2.765,0,0,1,.66.916,2.747,2.747,0,0,1,0,2.237,2.984,2.984,0,0,1-.664.924,3.109,3.109,0,0,1-1.007.634,3.43,3.43,0,0,1-1.267.229m-.011-5.074a2.271,2.271,0,0,0-.889.166,1.9,1.9,0,0,0-.669.461,2.077,2.077,0,0,0-.417.688,2.413,2.413,0,0,0-.144.841,2.318,2.318,0,0,0,.155.848,2.02,2.02,0,0,0,.439.686,2.084,2.084,0,0,0,.673.461,2.13,2.13,0,0,0,.874.173,2.26,2.26,0,0,0,.887-.166,1.944,1.944,0,0,0,.671-.457,2.049,2.049,0,0,0,.422-.682,2.441,2.441,0,0,0,0-1.689,2.1,2.1,0,0,0-.441-.693,2.036,2.036,0,0,0-.677-.465,2.166,2.166,0,0,0-.878-.173" transform="translate(127.937 46.452)" fill="#003b7c"/>
    <path id="Path_439" data-name="Path 439" d="M113.558,41.688c.236.063.47.138.7.218a3.018,3.018,0,0,1,.625.3,1.57,1.57,0,0,1,.45.439,1.109,1.109,0,0,1,.17.629V43.3a1.488,1.488,0,0,1-.164.706,1.548,1.548,0,0,1-.461.522,2.132,2.132,0,0,1-.684.326,3.069,3.069,0,0,1-.841.114,4.012,4.012,0,0,1-1.055-.144,5.174,5.174,0,0,1-1-.391v-.878a4.174,4.174,0,0,0,1.023.518,3.38,3.38,0,0,0,1.075.177,1.589,1.589,0,0,0,.9-.234.734.734,0,0,0,.354-.64v-.022a.529.529,0,0,0-.125-.352,1.068,1.068,0,0,0-.33-.262,2.921,2.921,0,0,0-.483-.2c-.184-.057-.374-.109-.572-.16-.236-.063-.472-.133-.712-.208a3.028,3.028,0,0,1-.649-.288,1.52,1.52,0,0,1-.463-.433,1.1,1.1,0,0,1-.177-.64V40.79a1.341,1.341,0,0,1,.155-.647,1.517,1.517,0,0,1,.428-.5,2.115,2.115,0,0,1,.647-.326,2.729,2.729,0,0,1,.824-.118,3.676,3.676,0,0,1,.734.076,5.878,5.878,0,0,1,.723.192v.8a3.446,3.446,0,0,0-1.477-.352,1.421,1.421,0,0,0-.859.229.688.688,0,0,0-.308.57v.022a.489.489,0,0,0,.127.336,1.14,1.14,0,0,0,.347.251,3.711,3.711,0,0,0,.5.192c.186.057.378.114.579.17" transform="translate(131.705 46.451)" fill="#003b7c"/>
    <path id="Path_440" data-name="Path 440" d="M16.063,44.894a3.152,3.152,0,0,1,1.2.225,2.938,2.938,0,0,1,.935.605,2.67,2.67,0,0,1,.605.887,2.763,2.763,0,0,1,.214,1.077,2.7,2.7,0,0,1-.214,1.068,2.659,2.659,0,0,1-.6.878,2.871,2.871,0,0,1-.926.594,3.143,3.143,0,0,1-1.193.221,3.085,3.085,0,0,1-1.162-.21,2.662,2.662,0,0,1-.894-.583V52.29h-.865V45.034h.865v.653a2.615,2.615,0,0,1,.883-.583,3,3,0,0,1,1.152-.21m0,4.86a2.146,2.146,0,0,0,.841-.16,1.942,1.942,0,0,0,.651-.446,1.976,1.976,0,0,0,.424-.662,2.318,2.318,0,0,0,0-1.621,1.964,1.964,0,0,0-.406-.653,1.866,1.866,0,0,0-.642-.439,2.167,2.167,0,0,0-.85-.162,2.091,2.091,0,0,0-.835.162,1.982,1.982,0,0,0-.649.444,2,2,0,0,0-.422.664,2.17,2.17,0,0,0-.151.808,2.308,2.308,0,0,0,.14.8,1.936,1.936,0,0,0,.406.658,1.906,1.906,0,0,0,.642.446,2.122,2.122,0,0,0,.846.16" transform="translate(15.599 53.202)" fill="#003b7c"/>
    <path id="Path_441" data-name="Path 441" d="M18.994,44.9a2.855,2.855,0,0,1,1.916.572,2.109,2.109,0,0,1,.669,1.7v3.4h-.867v-.846a2.021,2.021,0,0,1-.406.365,3.3,3.3,0,0,1-.551.3,3.445,3.445,0,0,1-.675.214,3.52,3.52,0,0,1-.765.081,2.967,2.967,0,0,1-.813-.111,2.214,2.214,0,0,1-.7-.332,1.63,1.63,0,0,1-.481-.553,1.714,1.714,0,0,1,.492-2.135,3.175,3.175,0,0,1,1.829-.465,9.754,9.754,0,0,1,1.119.063,7.019,7.019,0,0,1,.948.173v-.151a1.4,1.4,0,0,0-.476-1.156,2.056,2.056,0,0,0-1.329-.385,3.785,3.785,0,0,0-.981.118,6,6,0,0,0-.854.3v-.793a5.663,5.663,0,0,1,.894-.267,4.878,4.878,0,0,1,1.029-.1m1.728,3.05a8.774,8.774,0,0,0-.881-.162,8.249,8.249,0,0,0-1.095-.074,2.059,2.059,0,0,0-1.27.317,1.031,1.031,0,0,0-.406.861.976.976,0,0,0,.406.841,1.7,1.7,0,0,0,1.014.293,3.078,3.078,0,0,0,.822-.111,2.423,2.423,0,0,0,.715-.317,1.794,1.794,0,0,0,.5-.481,1.064,1.064,0,0,0,.192-.621Z" transform="translate(19.127 53.203)" fill="#003b7c"/>
    <path id="Path_442" data-name="Path 442" d="M22.237,44.909v.824H21.9a1.621,1.621,0,0,0-.68.144,1.793,1.793,0,0,0-.551.391,1.934,1.934,0,0,0-.376.568,1.7,1.7,0,0,0-.138.675v3.039h-.9V47.511a2.493,2.493,0,0,1,.21-1.014,2.62,2.62,0,0,1,1.407-1.385,2.618,2.618,0,0,1,1.027-.2Z" transform="translate(22.825 53.22)" fill="#003b7c"/>
    <path id="Path_443" data-name="Path 443" d="M23.815,44.9a2.855,2.855,0,0,1,1.916.572,2.109,2.109,0,0,1,.669,1.7v3.4h-.867v-.846a2.021,2.021,0,0,1-.406.365,3.3,3.3,0,0,1-.551.3,3.445,3.445,0,0,1-.675.214,3.52,3.52,0,0,1-.765.081,2.994,2.994,0,0,1-.815-.111,2.225,2.225,0,0,1-.695-.332,1.63,1.63,0,0,1-.481-.553,1.714,1.714,0,0,1,.492-2.135,3.175,3.175,0,0,1,1.829-.465,9.753,9.753,0,0,1,1.119.063,7.019,7.019,0,0,1,.948.173v-.151a1.4,1.4,0,0,0-.476-1.156,2.056,2.056,0,0,0-1.329-.385,3.786,3.786,0,0,0-.981.118,6,6,0,0,0-.854.3v-.793a5.663,5.663,0,0,1,.894-.267,4.878,4.878,0,0,1,1.029-.1m1.728,3.05a8.774,8.774,0,0,0-.881-.162,8.249,8.249,0,0,0-1.095-.074,2.059,2.059,0,0,0-1.27.317,1.031,1.031,0,0,0-.406.861.976.976,0,0,0,.406.841,1.7,1.7,0,0,0,1.014.293,3.078,3.078,0,0,0,.822-.111,2.423,2.423,0,0,0,.715-.317,1.794,1.794,0,0,0,.5-.481,1.064,1.064,0,0,0,.192-.621Z" transform="translate(24.84 53.203)" fill="#003b7c"/>
    <path id="Path_444" data-name="Path 444" d="M32.177,44.062h1l-3.5,7.525h-.815L25.37,44.062h1.016l2.889,6.433Z" transform="translate(30.065 52.216)" fill="#003b7c"/>
    <path id="Path_445" data-name="Path 445" d="M33.4,50.208a3.191,3.191,0,0,1-.787.339,3.723,3.723,0,0,1-1,.122,3.268,3.268,0,0,1-1.173-.21,2.906,2.906,0,0,1-.957-.581,2.751,2.751,0,0,1-.647-.911,2.818,2.818,0,0,1-.243-1.178,2.876,2.876,0,0,1,.221-1.123,2.815,2.815,0,0,1,1.519-1.532,3.163,3.163,0,0,1,2.36.007,2.617,2.617,0,0,1,.885.621,2.712,2.712,0,0,1,.551.926,3.341,3.341,0,0,1,.192,1.145v.118a1.118,1.118,0,0,1-.011.14H29.5a2.017,2.017,0,0,0,.234.791,2.023,2.023,0,0,0,1.136.948,2.389,2.389,0,0,0,.76.122,2.635,2.635,0,0,0,1-.175,2.8,2.8,0,0,0,.765-.468ZM31.473,45.6a1.886,1.886,0,0,0-.739.144,1.931,1.931,0,0,0-.6.4,2.128,2.128,0,0,0-.424.594,2.281,2.281,0,0,0-.208.749h3.9a2.574,2.574,0,0,0-.166-.717,1.819,1.819,0,0,0-.376-.6,1.761,1.761,0,0,0-.588-.413,1.952,1.952,0,0,0-.8-.155" transform="translate(33.884 53.22)" fill="#003b7c"/>
    <path id="Path_446" data-name="Path 446" d="M31.748,45.273l1.005-1.285h1.123l-1.444,1.285Zm.009.835h.824v5.535h-.824Z" transform="translate(37.623 52.128)" fill="#003b7c"/>
    <path id="Path_447" data-name="Path 447" d="M36.756,50.663a3.878,3.878,0,0,1-.513.033,3.681,3.681,0,0,1-1.318-.232,3.373,3.373,0,0,1-1.053-.621,2.783,2.783,0,0,1-.695-.916,2.529,2.529,0,0,1-.253-1.112,2.571,2.571,0,0,1,.253-1.119,2.911,2.911,0,0,1,.695-.931,3.237,3.237,0,0,1,1.053-.631,3.728,3.728,0,0,1,1.318-.229,3.886,3.886,0,0,1,.513.031v.739a2.718,2.718,0,0,0-.524-.052,2.47,2.47,0,0,0-.916.166,2.231,2.231,0,0,0-.732.461,2.151,2.151,0,0,0-.487.693,2.1,2.1,0,0,0,0,1.7,2.21,2.21,0,0,0,1.248,1.152,2.613,2.613,0,0,0,.948.168,2.241,2.241,0,0,0,.459-.044Z" transform="translate(39.015 53.215)" fill="#003b7c"/>
    <path id="Path_448" data-name="Path 448" d="M37.8,50.626a2.638,2.638,0,0,1-2.447-1.591,2.536,2.536,0,0,1-.208-1.02V44.954h.9v1.09h.009v1.971a2.3,2.3,0,0,0,.114.7,1.854,1.854,0,0,0,.332.614,1.678,1.678,0,0,0,.546.435,1.816,1.816,0,0,0,1.508,0,1.718,1.718,0,0,0,.551-.435,1.83,1.83,0,0,0,.339-.614,2.294,2.294,0,0,0,.111-.7V44.954h.9v3.061a2.5,2.5,0,0,1-.21,1.02,2.588,2.588,0,0,1-.568.83,2.628,2.628,0,0,1-.843.557,2.666,2.666,0,0,1-1.034.2" transform="translate(41.645 53.273)" fill="#003b7c"/>
    <rect id="Rectangle_29" data-name="Rectangle 29" width="0.909" height="7.825" transform="translate(83.574 95.956)" fill="#003b7c"/>
    <path id="Path_449" data-name="Path 449" d="M42.193,50.7a3.39,3.39,0,0,1-1.263-.229,3.155,3.155,0,0,1-1-.621,2.826,2.826,0,0,1-.651-.916,2.785,2.785,0,0,1,0-2.244,2.816,2.816,0,0,1,.658-.924,3.121,3.121,0,0,1,1.005-.627,3.609,3.609,0,0,1,2.532,0,3.211,3.211,0,0,1,1,.621,2.79,2.79,0,0,1,.658.916,2.682,2.682,0,0,1,.236,1.112,2.65,2.65,0,0,1-.243,1.125,2.942,2.942,0,0,1-.662.924,3.109,3.109,0,0,1-1.007.634,3.43,3.43,0,0,1-1.267.229m-.011-5.074a2.272,2.272,0,0,0-.889.166,1.916,1.916,0,0,0-.669.461,2.041,2.041,0,0,0-.417.688,2.413,2.413,0,0,0-.144.841,2.319,2.319,0,0,0,.155.848,1.987,1.987,0,0,0,.439.686,2.084,2.084,0,0,0,.673.461,2.137,2.137,0,0,0,.874.173,2.261,2.261,0,0,0,.887-.166,1.944,1.944,0,0,0,.671-.457,2.049,2.049,0,0,0,.422-.682,2.408,2.408,0,0,0,0-1.689,2.127,2.127,0,0,0-.439-.693,2.09,2.09,0,0,0-.68-.465,2.166,2.166,0,0,0-.878-.173" transform="translate(46.273 53.215)" fill="#003b7c"/>
    <path id="Path_450" data-name="Path 450" d="M44.645,47.395c.236.063.47.138.7.219a3.037,3.037,0,0,1,.627.3,1.59,1.59,0,0,1,.448.439,1.093,1.093,0,0,1,.173.629v.022a1.489,1.489,0,0,1-.166.706,1.548,1.548,0,0,1-.461.522,2.132,2.132,0,0,1-.684.326,3.069,3.069,0,0,1-.841.114,4.013,4.013,0,0,1-1.055-.144,5.174,5.174,0,0,1-1-.391v-.878a4.252,4.252,0,0,0,1.023.518,3.383,3.383,0,0,0,1.077.177,1.586,1.586,0,0,0,.9-.234.734.734,0,0,0,.354-.64V49.06a.529.529,0,0,0-.125-.352,1.067,1.067,0,0,0-.33-.262,2.844,2.844,0,0,0-.483-.2c-.181-.057-.374-.109-.572-.16-.236-.063-.472-.133-.712-.208a2.962,2.962,0,0,1-.647-.288,1.528,1.528,0,0,1-.465-.433,1.1,1.1,0,0,1-.177-.64V46.5a1.366,1.366,0,0,1,.155-.647,1.543,1.543,0,0,1,.428-.5,2.115,2.115,0,0,1,.647-.326,2.743,2.743,0,0,1,.826-.118,3.654,3.654,0,0,1,.732.076,5.772,5.772,0,0,1,.723.192v.8a3.439,3.439,0,0,0-1.477-.352,1.414,1.414,0,0,0-.857.229.685.685,0,0,0-.31.57v.022a.491.491,0,0,0,.129.336,1.114,1.114,0,0,0,.347.251,3.675,3.675,0,0,0,.5.192c.186.057.38.114.579.17" transform="translate(50.04 53.214)" fill="#003b7c"/>
    <path id="Path_451" data-name="Path 451" d="M54.222,51.555h-.972l-.922-1.925H47.95l-.931,1.925h-.964l3.671-7.493h.857Zm-4.077-6.518L48.3,48.858h3.673Z" transform="translate(54.579 52.216)" fill="#003b7c"/>
    <path id="Path_452" data-name="Path 452" d="M52.831,50.626a2.638,2.638,0,0,1-2.447-1.591,2.536,2.536,0,0,1-.208-1.02V44.954h.9v1.09h.009v1.971a2.3,2.3,0,0,0,.114.7,1.854,1.854,0,0,0,.332.614,1.677,1.677,0,0,0,.546.435,1.816,1.816,0,0,0,1.508,0,1.751,1.751,0,0,0,.553-.435,1.825,1.825,0,0,0,.337-.614,2.294,2.294,0,0,0,.111-.7V44.954h.9v3.061a2.5,2.5,0,0,1-.21,1.02,2.587,2.587,0,0,1-.568.83,2.628,2.628,0,0,1-.843.557,2.666,2.666,0,0,1-1.034.2" transform="translate(59.461 53.273)" fill="#003b7c"/>
    <path id="Path_453" data-name="Path 453" d="M55.735,51.038h-.47a1.93,1.93,0,0,1-1.4-.481,1.886,1.886,0,0,1-.494-1.414V44.5H54.3V45.5h1.433v.719H54.3V49.1c0,.8.358,1.2,1.079,1.2h.354Z" transform="translate(63.245 52.733)" fill="#003b7c"/>
    <path id="Path_454" data-name="Path 454" d="M57.878,50.7a3.39,3.39,0,0,1-1.263-.229,3.155,3.155,0,0,1-1-.621,2.826,2.826,0,0,1-.651-.916,2.785,2.785,0,0,1,0-2.244,2.816,2.816,0,0,1,.658-.924,3.121,3.121,0,0,1,1.005-.627,3.441,3.441,0,0,1,1.27-.229,3.407,3.407,0,0,1,1.263.229,3.211,3.211,0,0,1,1,.621,2.79,2.79,0,0,1,.658.916,2.682,2.682,0,0,1,.236,1.112,2.65,2.65,0,0,1-.243,1.125,2.942,2.942,0,0,1-.662.924,3.109,3.109,0,0,1-1.007.634,3.43,3.43,0,0,1-1.267.229m-.011-5.074a2.253,2.253,0,0,0-.887.166,1.9,1.9,0,0,0-.671.461,2.041,2.041,0,0,0-.417.688,2.413,2.413,0,0,0-.144.841,2.319,2.319,0,0,0,.155.848,1.987,1.987,0,0,0,.439.686,2.108,2.108,0,0,0,.673.461,2.137,2.137,0,0,0,.874.173,2.261,2.261,0,0,0,.887-.166,1.944,1.944,0,0,0,.671-.457,2.049,2.049,0,0,0,.422-.682,2.408,2.408,0,0,0,0-1.689,2.127,2.127,0,0,0-.439-.693,2.09,2.09,0,0,0-.68-.465,2.166,2.166,0,0,0-.878-.173" transform="translate(64.86 53.215)" fill="#003b7c"/>
    <path id="Path_455" data-name="Path 455" d="M65.038,44.9a2.63,2.63,0,0,1,1.034.208,2.755,2.755,0,0,1,.846.564,2.632,2.632,0,0,1,.566.828,2.519,2.519,0,0,1,.21,1.023v3.05h-.9V49.479h-.011V47.524a2.281,2.281,0,0,0-.111-.7,1.833,1.833,0,0,0-.332-.614,1.672,1.672,0,0,0-.546-.433,1.794,1.794,0,0,0-1.508,0,1.745,1.745,0,0,0-.553.433,1.816,1.816,0,0,0-.337.607,2.243,2.243,0,0,0-.111.695v3.055h-.9V47.513a2.243,2.243,0,0,0-.111-.695,1.821,1.821,0,0,0-.339-.607,1.712,1.712,0,0,0-.551-.433,1.8,1.8,0,0,0-1.51,0,1.663,1.663,0,0,0-.544.433,1.833,1.833,0,0,0-.332.614,2.284,2.284,0,0,0-.114.7v3.044h-.909v-3.05a2.519,2.519,0,0,1,.21-1.023,2.6,2.6,0,0,1,.566-.828A2.729,2.729,0,0,1,59.6,45.1a2.662,2.662,0,0,1,3.238.948,2.709,2.709,0,0,1,.937-.839,2.561,2.561,0,0,1,1.267-.317" transform="translate(68.702 53.203)" fill="#003b7c"/>
    <path id="Path_456" data-name="Path 456" d="M66.039,50.7a3.39,3.39,0,0,1-1.263-.229,3.155,3.155,0,0,1-1-.621,2.826,2.826,0,0,1-.651-.916,2.785,2.785,0,0,1,0-2.244,2.815,2.815,0,0,1,.658-.924,3.121,3.121,0,0,1,1.005-.627,3.441,3.441,0,0,1,1.27-.229,3.406,3.406,0,0,1,1.263.229,3.211,3.211,0,0,1,1,.621,2.79,2.79,0,0,1,.658.916,2.682,2.682,0,0,1,.236,1.112,2.651,2.651,0,0,1-.243,1.125,2.943,2.943,0,0,1-.662.924,3.109,3.109,0,0,1-1.007.634,3.43,3.43,0,0,1-1.267.229m-.011-5.074a2.272,2.272,0,0,0-.889.166,1.916,1.916,0,0,0-.669.461,2.041,2.041,0,0,0-.417.688,2.413,2.413,0,0,0-.144.841,2.319,2.319,0,0,0,.155.848,1.988,1.988,0,0,0,.439.686,2.084,2.084,0,0,0,.673.461,2.137,2.137,0,0,0,.874.173,2.261,2.261,0,0,0,.887-.166,1.944,1.944,0,0,0,.671-.457,2.049,2.049,0,0,0,.422-.682,2.408,2.408,0,0,0,0-1.689,2.127,2.127,0,0,0-.439-.693,2.09,2.09,0,0,0-.68-.465,2.166,2.166,0,0,0-.878-.173" transform="translate(74.531 53.215)" fill="#003b7c"/>
    <path id="Path_457" data-name="Path 457" d="M68.721,51.038h-.472a1.928,1.928,0,0,1-1.4-.481,1.886,1.886,0,0,1-.494-1.414V44.5h.933V45.5h1.433v.719H67.288V49.1c0,.8.358,1.2,1.079,1.2h.354Z" transform="translate(78.634 52.733)" fill="#003b7c"/>
    <path id="Path_458" data-name="Path 458" d="M70.864,50.7a3.39,3.39,0,0,1-1.263-.229,3.155,3.155,0,0,1-1-.621,2.826,2.826,0,0,1-.651-.916,2.786,2.786,0,0,1,0-2.244,2.816,2.816,0,0,1,.658-.924,3.121,3.121,0,0,1,1.005-.627,3.441,3.441,0,0,1,1.27-.229,3.407,3.407,0,0,1,1.263.229,3.211,3.211,0,0,1,1,.621,2.79,2.79,0,0,1,.658.916,2.682,2.682,0,0,1,.236,1.112,2.65,2.65,0,0,1-.243,1.125,2.942,2.942,0,0,1-.662.924,3.109,3.109,0,0,1-1.007.634,3.43,3.43,0,0,1-1.267.229m-.011-5.074a2.253,2.253,0,0,0-.887.166,1.9,1.9,0,0,0-.671.461,2.041,2.041,0,0,0-.417.688,2.413,2.413,0,0,0-.144.841,2.319,2.319,0,0,0,.155.848,1.987,1.987,0,0,0,.439.686,2.084,2.084,0,0,0,.673.461,2.137,2.137,0,0,0,.874.173,2.26,2.26,0,0,0,.887-.166,1.944,1.944,0,0,0,.671-.457,2.049,2.049,0,0,0,.422-.682,2.408,2.408,0,0,0,0-1.689,2.127,2.127,0,0,0-.439-.693,2.09,2.09,0,0,0-.68-.465,2.166,2.166,0,0,0-.878-.173" transform="translate(80.249 53.215)" fill="#003b7c"/>
    <path id="Path_459" data-name="Path 459" d="M74.034,44.909v.824H73.7a1.621,1.621,0,0,0-.68.144,1.793,1.793,0,0,0-.551.391,1.935,1.935,0,0,0-.376.568,1.7,1.7,0,0,0-.138.675v3.039h-.9V47.511a2.493,2.493,0,0,1,.21-1.014,2.621,2.621,0,0,1,1.407-1.385,2.618,2.618,0,0,1,1.027-.2Z" transform="translate(84.207 53.22)" fill="#003b7c"/>
    <path id="Path_460" data-name="Path 460" d="M77.579,50.208a3.191,3.191,0,0,1-.787.339,3.723,3.723,0,0,1-1,.122,3.268,3.268,0,0,1-1.173-.21,2.906,2.906,0,0,1-.957-.581,2.751,2.751,0,0,1-.647-.911,2.818,2.818,0,0,1-.243-1.178,2.876,2.876,0,0,1,.221-1.123,2.815,2.815,0,0,1,1.519-1.532,3.163,3.163,0,0,1,2.36.007,2.617,2.617,0,0,1,.885.621,2.712,2.712,0,0,1,.551.926,3.341,3.341,0,0,1,.192,1.145v.118a1.12,1.12,0,0,1-.011.14h-4.8a2.017,2.017,0,0,0,.234.791,2.023,2.023,0,0,0,1.136.948,2.389,2.389,0,0,0,.76.122,2.635,2.635,0,0,0,1-.175,2.8,2.8,0,0,0,.765-.468ZM75.652,45.6a1.886,1.886,0,0,0-.739.144,1.931,1.931,0,0,0-.6.4,2.128,2.128,0,0,0-.424.594,2.281,2.281,0,0,0-.208.749h3.9a2.576,2.576,0,0,0-.166-.717,1.819,1.819,0,0,0-.376-.6,1.761,1.761,0,0,0-.588-.413,1.953,1.953,0,0,0-.8-.155" transform="translate(86.238 53.22)" fill="#003b7c"/>
    <path id="Path_461" data-name="Path 461" d="M78.155,47.395c.236.063.47.138.7.219a2.983,2.983,0,0,1,.627.3,1.59,1.59,0,0,1,.448.439,1.093,1.093,0,0,1,.173.629v.022a1.489,1.489,0,0,1-.166.706,1.548,1.548,0,0,1-.461.522,2.132,2.132,0,0,1-.684.326,3.069,3.069,0,0,1-.841.114,4.013,4.013,0,0,1-1.055-.144,5.175,5.175,0,0,1-1-.391v-.878a4.252,4.252,0,0,0,1.023.518A3.383,3.383,0,0,0,78,49.956a1.586,1.586,0,0,0,.9-.234.734.734,0,0,0,.354-.64V49.06a.529.529,0,0,0-.125-.352,1.067,1.067,0,0,0-.33-.262,2.844,2.844,0,0,0-.483-.2c-.181-.057-.374-.109-.572-.16-.236-.063-.472-.133-.712-.208a2.962,2.962,0,0,1-.647-.288,1.529,1.529,0,0,1-.465-.433,1.1,1.1,0,0,1-.177-.64V46.5a1.366,1.366,0,0,1,.155-.647,1.542,1.542,0,0,1,.428-.5,2.115,2.115,0,0,1,.647-.326,2.743,2.743,0,0,1,.826-.118,3.654,3.654,0,0,1,.732.076,5.773,5.773,0,0,1,.723.192v.8a3.439,3.439,0,0,0-1.477-.352,1.414,1.414,0,0,0-.857.229.685.685,0,0,0-.31.57v.022a.491.491,0,0,0,.129.336,1.114,1.114,0,0,0,.347.251,3.676,3.676,0,0,0,.5.192c.186.057.38.114.579.17" transform="translate(89.751 53.214)" fill="#003b7c"/>
    <path id="Path_462" data-name="Path 462" d="M78.913,47.711v-.739h.824V47.5a1.749,1.749,0,0,1-.424,1.278,2.471,2.471,0,0,1-1.278.616l-.181-.483a1.859,1.859,0,0,0,.813-.47,1.06,1.06,0,0,0,.247-.728" transform="translate(92.26 55.664)" fill="#003b7c"/>
    <path id="Path_463" data-name="Path 463" d="M85.225,51.715a5.989,5.989,0,0,1-.631.033,4.438,4.438,0,0,1-1.643-.3,4.108,4.108,0,0,1-1.3-.819,3.717,3.717,0,0,1-.863-1.221,3.834,3.834,0,0,1,0-3.022,3.8,3.8,0,0,1,.863-1.237,4.017,4.017,0,0,1,1.311-.835,4.434,4.434,0,0,1,1.669-.306,5.321,5.321,0,0,1,.6.033v.78c-.1-.013-.2-.024-.3-.031s-.2-.011-.31-.011a3.345,3.345,0,0,0-1.267.236,3,3,0,0,0-1.007.656,3.085,3.085,0,0,0-.9,2.2,3.1,3.1,0,0,0,.243,1.224,2.948,2.948,0,0,0,.669.988,3.04,3.04,0,0,0,1.012.656,3.314,3.314,0,0,0,1.256.236c.107,0,.21,0,.31-.011s.2-.017.3-.031Z" transform="translate(95.364 52.152)" fill="#003b7c"/>
    <path id="Path_464" data-name="Path 464" d="M84.018,44.72h-.953V44h.953Zm-.953,1.348h.953v5.554h-.953Z" transform="translate(98.436 52.146)" fill="#003b7c"/>
    <path id="Path_465" data-name="Path 465" d="M87.823,50.663a3.912,3.912,0,0,1-.516.033,3.66,3.66,0,0,1-1.315-.232,3.373,3.373,0,0,1-1.053-.621,2.82,2.82,0,0,1-.7-.916,2.527,2.527,0,0,1-.251-1.112,2.569,2.569,0,0,1,.251-1.119,2.95,2.95,0,0,1,.7-.931,3.237,3.237,0,0,1,1.053-.631,3.707,3.707,0,0,1,1.315-.229,3.92,3.92,0,0,1,.516.031v.739a2.736,2.736,0,0,0-.524-.052,2.47,2.47,0,0,0-.916.166,2.231,2.231,0,0,0-.732.461,2.118,2.118,0,0,0-.487.693,2.054,2.054,0,0,0-.177.848,2,2,0,0,0,.181.848,2.173,2.173,0,0,0,.5.69,2.2,2.2,0,0,0,.749.461,2.61,2.61,0,0,0,.946.168,2.248,2.248,0,0,0,.461-.044Z" transform="translate(99.532 53.215)" fill="#003b7c"/>
    <rect id="Rectangle_30" data-name="Rectangle 30" width="0.909" height="7.825" transform="translate(188.535 95.956)" fill="#003b7c"/>
    <path id="Path_466" data-name="Path 466" d="M90.228,50.7a3.39,3.39,0,0,1-1.263-.229,3.179,3.179,0,0,1-1-.621,2.859,2.859,0,0,1-.651-.916,2.785,2.785,0,0,1,0-2.244,2.815,2.815,0,0,1,.658-.924,3.121,3.121,0,0,1,1.005-.627,3.441,3.441,0,0,1,1.27-.229,3.407,3.407,0,0,1,1.263.229,3.176,3.176,0,0,1,1,.621,2.765,2.765,0,0,1,.66.916,2.747,2.747,0,0,1,0,2.237,2.984,2.984,0,0,1-.664.924,3.109,3.109,0,0,1-1.007.634,3.43,3.43,0,0,1-1.267.229m-.011-5.074a2.272,2.272,0,0,0-.889.166,1.9,1.9,0,0,0-.669.461,2.076,2.076,0,0,0-.417.688,2.413,2.413,0,0,0-.144.841,2.319,2.319,0,0,0,.155.848,2.02,2.02,0,0,0,.439.686,2.084,2.084,0,0,0,.673.461,2.13,2.13,0,0,0,.874.173,2.261,2.261,0,0,0,.887-.166,1.944,1.944,0,0,0,.671-.457,2.049,2.049,0,0,0,.422-.682,2.441,2.441,0,0,0,0-1.689,2.1,2.1,0,0,0-.441-.693,2.035,2.035,0,0,0-.677-.465,2.166,2.166,0,0,0-.878-.173" transform="translate(103.196 53.215)" fill="#003b7c"/>
    <path id="Path_467" data-name="Path 467" d="M97.388,44.9a2.622,2.622,0,0,1,1.034.208,2.719,2.719,0,0,1,.843.564,2.6,2.6,0,0,1,.568.828,2.519,2.519,0,0,1,.21,1.023v3.05h-.9V49.479h-.011V47.524a2.281,2.281,0,0,0-.111-.7,1.833,1.833,0,0,0-.332-.614,1.672,1.672,0,0,0-.546-.433,1.794,1.794,0,0,0-1.508,0,1.745,1.745,0,0,0-.553.433,1.854,1.854,0,0,0-.337.607,2.243,2.243,0,0,0-.111.695v3.055h-.9V47.513a2.243,2.243,0,0,0-.111-.695,1.855,1.855,0,0,0-.337-.607,1.745,1.745,0,0,0-.553-.433,1.794,1.794,0,0,0-1.508,0,1.649,1.649,0,0,0-.546.433,1.833,1.833,0,0,0-.332.614,2.284,2.284,0,0,0-.114.7v3.044h-.909v-3.05a2.519,2.519,0,0,1,.21-1.023,2.632,2.632,0,0,1,.566-.828,2.7,2.7,0,0,1,.846-.564,2.662,2.662,0,0,1,3.238.948,2.721,2.721,0,0,1,.935-.839,2.576,2.576,0,0,1,1.27-.317" transform="translate(107.038 53.203)" fill="#003b7c"/>
    <path id="Path_468" data-name="Path 468" d="M98.389,50.7a3.39,3.39,0,0,1-1.263-.229,3.18,3.18,0,0,1-1-.621,2.859,2.859,0,0,1-.651-.916,2.785,2.785,0,0,1,0-2.244,2.815,2.815,0,0,1,.658-.924,3.121,3.121,0,0,1,1.005-.627,3.441,3.441,0,0,1,1.27-.229,3.407,3.407,0,0,1,1.263.229,3.176,3.176,0,0,1,1,.621,2.765,2.765,0,0,1,.66.916,2.747,2.747,0,0,1,0,2.237,2.984,2.984,0,0,1-.664.924,3.109,3.109,0,0,1-1.007.634,3.43,3.43,0,0,1-1.267.229m-.011-5.074a2.271,2.271,0,0,0-.889.166,1.9,1.9,0,0,0-.669.461,2.077,2.077,0,0,0-.417.688,2.413,2.413,0,0,0-.144.841,2.319,2.319,0,0,0,.155.848,2.019,2.019,0,0,0,.439.686,2.084,2.084,0,0,0,.673.461,2.13,2.13,0,0,0,.874.173,2.261,2.261,0,0,0,.887-.166,1.944,1.944,0,0,0,.671-.457,2.049,2.049,0,0,0,.422-.682,2.441,2.441,0,0,0,0-1.689,2.1,2.1,0,0,0-.441-.693,2.035,2.035,0,0,0-.677-.465,2.166,2.166,0,0,0-.878-.173" transform="translate(112.868 53.215)" fill="#003b7c"/>
    <path id="Path_469" data-name="Path 469" d="M101.07,51.038h-.47a1.93,1.93,0,0,1-1.4-.481,1.894,1.894,0,0,1-.492-1.414V44.5h.931V45.5h1.433v.719H99.637V49.1c0,.8.358,1.2,1.082,1.2h.352Z" transform="translate(116.971 52.733)" fill="#003b7c"/>
    <path id="Path_470" data-name="Path 470" d="M103.214,50.7a3.39,3.39,0,0,1-1.263-.229,3.18,3.18,0,0,1-1-.621,2.859,2.859,0,0,1-.651-.916,2.785,2.785,0,0,1,0-2.244,2.815,2.815,0,0,1,.658-.924,3.121,3.121,0,0,1,1.005-.627,3.441,3.441,0,0,1,1.27-.229,3.407,3.407,0,0,1,1.263.229,3.176,3.176,0,0,1,1,.621,2.765,2.765,0,0,1,.66.916,2.747,2.747,0,0,1,0,2.237,2.984,2.984,0,0,1-.664.924,3.109,3.109,0,0,1-1.007.634,3.43,3.43,0,0,1-1.267.229m-.011-5.074a2.272,2.272,0,0,0-.889.166,1.9,1.9,0,0,0-.669.461,2.076,2.076,0,0,0-.417.688,2.413,2.413,0,0,0-.144.841,2.319,2.319,0,0,0,.155.848,2.02,2.02,0,0,0,.439.686,2.084,2.084,0,0,0,.673.461,2.13,2.13,0,0,0,.874.173,2.261,2.261,0,0,0,.887-.166,1.944,1.944,0,0,0,.671-.457,2.049,2.049,0,0,0,.422-.682,2.441,2.441,0,0,0,0-1.689,2.1,2.1,0,0,0-.441-.693,2.035,2.035,0,0,0-.677-.465,2.166,2.166,0,0,0-.878-.173" transform="translate(118.585 53.215)" fill="#003b7c"/>
    <path id="Path_471" data-name="Path 471" d="M106.384,44.909v.824h-.332a1.614,1.614,0,0,0-.68.144,1.776,1.776,0,0,0-.553.391,1.928,1.928,0,0,0-.374.568,1.661,1.661,0,0,0-.14.675v3.039h-.9V47.511a2.493,2.493,0,0,1,.21-1.014,2.643,2.643,0,0,1,2.434-1.589Z" transform="translate(122.544 53.22)" fill="#003b7c"/>
    <path id="Path_472" data-name="Path 472" d="M109.93,50.208a3.171,3.171,0,0,1-.789.339,3.717,3.717,0,0,1-1,.122,3.268,3.268,0,0,1-1.173-.21,2.916,2.916,0,0,1-.959-.581,2.751,2.751,0,0,1-.647-.911,2.871,2.871,0,0,1,1.5-3.833,3.163,3.163,0,0,1,2.36.007,2.586,2.586,0,0,1,.883.621,2.716,2.716,0,0,1,.553.926,3.4,3.4,0,0,1,.192,1.145v.118a1.118,1.118,0,0,1-.011.14h-4.807a2.018,2.018,0,0,0,.236.791,2,2,0,0,0,1.136.948,2.366,2.366,0,0,0,.758.122,2.619,2.619,0,0,0,1-.175,2.81,2.81,0,0,0,.767-.468ZM108,45.6a1.878,1.878,0,0,0-.739.144,1.906,1.906,0,0,0-.6.4,2.085,2.085,0,0,0-.424.594,2.232,2.232,0,0,0-.21.749h3.9a2.577,2.577,0,0,0-.168-.717,1.814,1.814,0,0,0-.374-.6,1.783,1.783,0,0,0-.588-.413,1.96,1.96,0,0,0-.8-.155" transform="translate(124.576 53.22)" fill="#003b7c"/>
    <path id="Path_473" data-name="Path 473" d="M110.506,47.395c.236.063.47.138.7.219a3.017,3.017,0,0,1,.625.3,1.57,1.57,0,0,1,.45.439,1.109,1.109,0,0,1,.17.629v.022a1.488,1.488,0,0,1-.164.706,1.549,1.549,0,0,1-.461.522,2.132,2.132,0,0,1-.684.326,3.069,3.069,0,0,1-.841.114,4.013,4.013,0,0,1-1.055-.144,5.174,5.174,0,0,1-1-.391v-.878a4.173,4.173,0,0,0,1.023.518,3.38,3.38,0,0,0,1.075.177,1.589,1.589,0,0,0,.9-.234.734.734,0,0,0,.354-.64V49.06a.529.529,0,0,0-.125-.352,1.067,1.067,0,0,0-.33-.262,2.922,2.922,0,0,0-.483-.2c-.184-.057-.374-.109-.572-.16-.236-.063-.472-.133-.712-.208a3.028,3.028,0,0,1-.649-.288,1.5,1.5,0,0,1-.463-.433,1.1,1.1,0,0,1-.177-.64V46.5a1.341,1.341,0,0,1,.155-.647,1.517,1.517,0,0,1,.428-.5,2.115,2.115,0,0,1,.647-.326,2.729,2.729,0,0,1,.824-.118,3.676,3.676,0,0,1,.734.076,5.875,5.875,0,0,1,.723.192v.8a3.446,3.446,0,0,0-1.477-.352,1.421,1.421,0,0,0-.859.229.69.69,0,0,0-.31.57v.022a.491.491,0,0,0,.129.336,1.14,1.14,0,0,0,.347.251,3.709,3.709,0,0,0,.5.192c.186.057.378.114.579.17" transform="translate(128.088 53.214)" fill="#003b7c"/>
    <path id="Path_474" data-name="Path 474" d="M116.8,50.208a3.171,3.171,0,0,1-.789.339,3.717,3.717,0,0,1-1,.122,3.268,3.268,0,0,1-1.173-.21,2.916,2.916,0,0,1-.959-.581,2.751,2.751,0,0,1-.647-.911,2.871,2.871,0,0,1,1.5-3.833,3.163,3.163,0,0,1,2.36.007,2.586,2.586,0,0,1,.883.621,2.716,2.716,0,0,1,.553.926,3.394,3.394,0,0,1,.192,1.145v.118a1.121,1.121,0,0,1-.011.14H112.9a2.019,2.019,0,0,0,.236.791,2,2,0,0,0,1.136.948,2.366,2.366,0,0,0,.758.122,2.619,2.619,0,0,0,1-.175,2.81,2.81,0,0,0,.767-.468ZM114.87,45.6a1.878,1.878,0,0,0-.739.144,1.906,1.906,0,0,0-.6.4,2.085,2.085,0,0,0-.424.594,2.231,2.231,0,0,0-.21.749h3.9a2.578,2.578,0,0,0-.168-.717,1.814,1.814,0,0,0-.374-.6,1.783,1.783,0,0,0-.588-.413,1.96,1.96,0,0,0-.8-.155" transform="translate(132.714 53.22)" fill="#003b7c"/>
    <path id="Path_475" data-name="Path 475" d="M18.38,57.27l-2.172-2.91H14.067v2.91h-.846V49.777h3.221a3.629,3.629,0,0,1,1.119.162,2.522,2.522,0,0,1,.852.454,2.05,2.05,0,0,1,.546.706,2.16,2.16,0,0,1,.192.916,2.209,2.209,0,0,1-.151.839,1.92,1.92,0,0,1-.422.642,2.45,2.45,0,0,1-.649.454,2.97,2.97,0,0,1-.813.256l2.3,3.063Zm-.085-5.233a1.312,1.312,0,0,0-.5-1.1,2.262,2.262,0,0,0-1.414-.391H14.067v3.039h2.3a2.622,2.622,0,0,0,.771-.107,1.855,1.855,0,0,0,.61-.3,1.42,1.42,0,0,0,.4-.487,1.443,1.443,0,0,0,.144-.653" transform="translate(15.668 58.988)" fill="#003b7c"/>
    <path id="Path_476" data-name="Path 476" d="M21.2,55.923a3.191,3.191,0,0,1-.787.339,3.723,3.723,0,0,1-1,.122,3.268,3.268,0,0,1-1.173-.21,2.906,2.906,0,0,1-.957-.581,2.751,2.751,0,0,1-.647-.911A2.818,2.818,0,0,1,16.4,53.5a2.876,2.876,0,0,1,.221-1.123,2.815,2.815,0,0,1,1.519-1.532,3.163,3.163,0,0,1,2.36.007,2.617,2.617,0,0,1,.885.621,2.712,2.712,0,0,1,.551.926,3.341,3.341,0,0,1,.192,1.145v.118a1.118,1.118,0,0,1-.011.14h-4.8a2.017,2.017,0,0,0,.234.791,2.023,2.023,0,0,0,1.136.948,2.389,2.389,0,0,0,.76.122,2.635,2.635,0,0,0,1-.175,2.8,2.8,0,0,0,.765-.468ZM19.275,51.31a1.886,1.886,0,0,0-.739.144,1.931,1.931,0,0,0-.6.4,2.129,2.129,0,0,0-.424.594,2.281,2.281,0,0,0-.208.749h3.9a2.575,2.575,0,0,0-.166-.717,1.819,1.819,0,0,0-.376-.6,1.761,1.761,0,0,0-.588-.413,1.952,1.952,0,0,0-.8-.155" transform="translate(19.429 59.992)" fill="#003b7c"/>
    <path id="Path_477" data-name="Path 477" d="M20.593,51.606v.406H22.38v.739H20.6v4.711h-.931v-5.9a1.983,1.983,0,0,1,.492-1.457,1.9,1.9,0,0,1,1.4-.492h.824v.749h-.706c-.73,0-1.093.413-1.093,1.241" transform="translate(23.313 58.796)" fill="#003b7c"/>
    <path id="Path_478" data-name="Path 478" d="M24.407,50.624v.824h-.332a1.621,1.621,0,0,0-.68.144,1.793,1.793,0,0,0-.551.391,1.935,1.935,0,0,0-.376.568,1.7,1.7,0,0,0-.138.675v3.039h-.9V53.226a2.493,2.493,0,0,1,.21-1.014,2.62,2.62,0,0,1,1.407-1.385,2.618,2.618,0,0,1,1.027-.2Z" transform="translate(25.397 59.992)" fill="#003b7c"/>
    <path id="Path_479" data-name="Path 479" d="M24.3,50.435h-.953v-.717H24.3Zm-.953,1.35H24.3v5.554h-.953Z" transform="translate(27.667 58.918)" fill="#003b7c"/>
    <path id="Path_480" data-name="Path 480" d="M30.356,50.739v4.58h-.011a2.506,2.506,0,0,1-.819,1.991,3.3,3.3,0,0,1-2.146.7V57.29a2.415,2.415,0,0,0,1.44-.465,1.761,1.761,0,0,0,.638-1.27,2.91,2.91,0,0,1-.922.6,3.07,3.07,0,0,1-1.208.225,3.237,3.237,0,0,1-1.237-.229,3.009,3.009,0,0,1-.964-.621,2.848,2.848,0,0,1-.614-3.136,2.842,2.842,0,0,1,.625-.926,2.965,2.965,0,0,1,.964-.627,3.27,3.27,0,0,1,1.248-.229,3.048,3.048,0,0,1,1.193.221,2.85,2.85,0,0,1,.916.592v-.684Zm-3,4.923a2.228,2.228,0,0,0,.881-.166,1.941,1.941,0,0,0,.66-.457,1.971,1.971,0,0,0,.417-.682,2.363,2.363,0,0,0,.144-.841,2.319,2.319,0,0,0-.155-.848,1.982,1.982,0,0,0-.437-.686,2.132,2.132,0,0,0-.673-.461,2.087,2.087,0,0,0-.859-.173,2.244,2.244,0,0,0-.881.166,1.917,1.917,0,0,0-.664.457,2.049,2.049,0,0,0-.422.682,2.365,2.365,0,0,0-.149.841,2.232,2.232,0,0,0,.157.848,1.977,1.977,0,0,0,.435.686,2.1,2.1,0,0,0,1.545.634" transform="translate(28.78 59.976)" fill="#003b7c"/>
    <path id="Path_481" data-name="Path 481" d="M32.366,55.923a3.191,3.191,0,0,1-.787.339,3.723,3.723,0,0,1-1,.122,3.268,3.268,0,0,1-1.173-.21,2.906,2.906,0,0,1-.957-.581,2.751,2.751,0,0,1-.647-.911,2.818,2.818,0,0,1-.243-1.178,2.876,2.876,0,0,1,.221-1.123A2.815,2.815,0,0,1,29.3,50.849a3.163,3.163,0,0,1,2.36.007,2.617,2.617,0,0,1,.885.621,2.712,2.712,0,0,1,.551.926,3.341,3.341,0,0,1,.192,1.145v.118a1.119,1.119,0,0,1-.011.14h-4.8a2.017,2.017,0,0,0,.234.791,2.023,2.023,0,0,0,1.136.948,2.389,2.389,0,0,0,.76.122,2.635,2.635,0,0,0,1-.175,2.8,2.8,0,0,0,.765-.468ZM30.439,51.31a1.886,1.886,0,0,0-.739.144,1.931,1.931,0,0,0-.6.4,2.129,2.129,0,0,0-.424.594,2.281,2.281,0,0,0-.208.749h3.9a2.575,2.575,0,0,0-.166-.717,1.819,1.819,0,0,0-.376-.6,1.761,1.761,0,0,0-.588-.413,1.953,1.953,0,0,0-.8-.155" transform="translate(32.659 59.992)" fill="#003b7c"/>
    <path id="Path_482" data-name="Path 482" d="M33.66,50.624v.824h-.332a1.621,1.621,0,0,0-.68.144,1.793,1.793,0,0,0-.551.391,1.935,1.935,0,0,0-.376.568,1.7,1.7,0,0,0-.138.675v3.039h-.9V53.226a2.493,2.493,0,0,1,.21-1.014A2.62,2.62,0,0,1,32.3,50.827a2.618,2.618,0,0,1,1.027-.2Z" transform="translate(36.362 59.992)" fill="#003b7c"/>
    <path id="Path_483" data-name="Path 483" d="M35.238,50.61a2.855,2.855,0,0,1,1.916.572,2.109,2.109,0,0,1,.669,1.7v3.4h-.867v-.846a2.021,2.021,0,0,1-.406.365,3.3,3.3,0,0,1-.551.3,3.446,3.446,0,0,1-.675.214,3.52,3.52,0,0,1-.765.081,2.994,2.994,0,0,1-.815-.111,2.225,2.225,0,0,1-.695-.332,1.63,1.63,0,0,1-.481-.553,1.714,1.714,0,0,1,.492-2.135,3.175,3.175,0,0,1,1.829-.465,9.754,9.754,0,0,1,1.119.063,7.018,7.018,0,0,1,.948.173v-.151a1.4,1.4,0,0,0-.476-1.156,2.056,2.056,0,0,0-1.329-.385,3.786,3.786,0,0,0-.981.118,6,6,0,0,0-.854.3v-.793a5.662,5.662,0,0,1,.894-.267,4.878,4.878,0,0,1,1.029-.1m1.728,3.05a8.773,8.773,0,0,0-.881-.162,8.249,8.249,0,0,0-1.095-.074,2.059,2.059,0,0,0-1.27.317,1.031,1.031,0,0,0-.406.861.976.976,0,0,0,.406.841,1.7,1.7,0,0,0,1.014.293,3.078,3.078,0,0,0,.822-.111,2.423,2.423,0,0,0,.715-.317,1.794,1.794,0,0,0,.5-.481,1.064,1.064,0,0,0,.192-.621Z" transform="translate(38.377 59.976)" fill="#003b7c"/>
    <path id="Path_484" data-name="Path 484" d="M38.64,51.337a2.47,2.47,0,0,0-.916.166,2.231,2.231,0,0,0-.732.461,2.157,2.157,0,0,0-.487.688,2.08,2.08,0,0,0,0,1.689,2.162,2.162,0,0,0,.5.693,2.366,2.366,0,0,0,.756.461,2.579,2.579,0,0,0,.937.166c.076,0,.155,0,.234-.011a1.741,1.741,0,0,0,.225-.033v.749a3.877,3.877,0,0,1-.513.033h-.14l-.385.92H36.886l.758-1.049a3.308,3.308,0,0,1-.935-.411,3.35,3.35,0,0,1-.728-.631,2.729,2.729,0,0,1-.472-.8,2.6,2.6,0,0,1,.085-2.03,2.9,2.9,0,0,1,.7-.924,3.308,3.308,0,0,1,1.049-.627,3.666,3.666,0,0,1,1.311-.229,4.3,4.3,0,0,1,.513.031v.741c-.079-.015-.162-.028-.247-.039a2.687,2.687,0,0,0-.277-.015" transform="translate(41.883 59.987)" fill="#003b7c"/>
    <path id="Path_485" data-name="Path 485" d="M40.3,51.621a2.855,2.855,0,0,1,1.916.572,2.109,2.109,0,0,1,.669,1.7v3.4H42.02v-.846a2.021,2.021,0,0,1-.406.365,3.3,3.3,0,0,1-.551.3,3.446,3.446,0,0,1-.675.214,3.52,3.52,0,0,1-.765.081,2.967,2.967,0,0,1-.813-.111,2.214,2.214,0,0,1-.7-.332,1.654,1.654,0,0,1-.481-.553,1.714,1.714,0,0,1,.492-2.135,3.175,3.175,0,0,1,1.829-.465,9.753,9.753,0,0,1,1.119.063,7.018,7.018,0,0,1,.948.173V53.9a1.4,1.4,0,0,0-.476-1.156,2.056,2.056,0,0,0-1.329-.385,3.786,3.786,0,0,0-.981.118,6,6,0,0,0-.854.3v-.793a5.662,5.662,0,0,1,.894-.267,4.878,4.878,0,0,1,1.029-.1m1.4-1.488a1.468,1.468,0,0,1-.369.642.819.819,0,0,1-.562.192,1.146,1.146,0,0,1-.38-.068c-.131-.046-.262-.1-.391-.151s-.249-.107-.363-.153a.9.9,0,0,0-.312-.068.427.427,0,0,0-.31.1,1.3,1.3,0,0,0-.223.345l-.439-.385a1.442,1.442,0,0,1,.369-.642.8.8,0,0,1,.551-.194,1.151,1.151,0,0,1,.38.07c.131.046.262.1.391.151s.251.1.369.149a.842.842,0,0,0,.315.07.44.44,0,0,0,.31-.1.956.956,0,0,0,.214-.343Zm.332,4.538a8.774,8.774,0,0,0-.881-.162,8.249,8.249,0,0,0-1.095-.074,2.059,2.059,0,0,0-1.27.317,1.031,1.031,0,0,0-.406.861.976.976,0,0,0,.406.841,1.7,1.7,0,0,0,1.014.293,3.078,3.078,0,0,0,.822-.111,2.423,2.423,0,0,0,.715-.317,1.794,1.794,0,0,0,.5-.481,1.064,1.064,0,0,0,.192-.621Z" transform="translate(44.379 58.965)" fill="#003b7c"/>
    <path id="Path_486" data-name="Path 486" d="M43.29,56.41a3.39,3.39,0,0,1-1.263-.229,3.155,3.155,0,0,1-1-.621,2.826,2.826,0,0,1-.651-.916,2.785,2.785,0,0,1,0-2.244,2.815,2.815,0,0,1,.658-.924,3.121,3.121,0,0,1,1.005-.627,3.441,3.441,0,0,1,1.27-.229,3.407,3.407,0,0,1,1.263.229,3.211,3.211,0,0,1,1,.621,2.79,2.79,0,0,1,.658.916A2.682,2.682,0,0,1,46.47,53.5a2.65,2.65,0,0,1-.243,1.125,2.942,2.942,0,0,1-.662.924,3.109,3.109,0,0,1-1.007.634,3.43,3.43,0,0,1-1.267.229m-.011-5.074a2.253,2.253,0,0,0-.887.166,1.9,1.9,0,0,0-.671.461,2.041,2.041,0,0,0-.417.688,2.413,2.413,0,0,0-.144.841,2.319,2.319,0,0,0,.155.848,1.987,1.987,0,0,0,.439.686,2.108,2.108,0,0,0,.673.461,2.137,2.137,0,0,0,.874.173,2.261,2.261,0,0,0,.887-.166,1.944,1.944,0,0,0,.671-.457,2.049,2.049,0,0,0,.422-.682,2.408,2.408,0,0,0,0-1.689,2.127,2.127,0,0,0-.439-.693,2.09,2.09,0,0,0-.68-.465,2.166,2.166,0,0,0-.878-.173" transform="translate(47.573 59.987)" fill="#003b7c"/>
    <path id="Path_487" data-name="Path 487" d="M51.132,49.63v7.814H50.2v-.706a2.864,2.864,0,0,1-.935.614,3.159,3.159,0,0,1-1.237.232,3.373,3.373,0,0,1-1.291-.24,3.165,3.165,0,0,1-1-.649,2.865,2.865,0,0,1-.647-.953,2.949,2.949,0,0,1-.229-1.156,2.873,2.873,0,0,1,.229-1.145,2.933,2.933,0,0,1,.642-.942,3.027,3.027,0,0,1,.99-.642,3.364,3.364,0,0,1,1.285-.236,3.231,3.231,0,0,1,1.248.229,2.933,2.933,0,0,1,.946.627V49.63Zm-3.125,7.182a2.27,2.27,0,0,0,.894-.17,2.076,2.076,0,0,0,.69-.476,2.211,2.211,0,0,0,.45-.708,2.361,2.361,0,0,0,.16-.872,2.539,2.539,0,0,0-.149-.867,2.029,2.029,0,0,0-.435-.706,2.057,2.057,0,0,0-.684-.472,2.3,2.3,0,0,0-.9-.17,2.236,2.236,0,0,0-.9.177,2.19,2.19,0,0,0-.7.476,2.094,2.094,0,0,0-.454.712,2.375,2.375,0,0,0-.16.872,2.335,2.335,0,0,0,.155.861,2.074,2.074,0,0,0,.439.7,1.99,1.99,0,0,0,.69.472,2.324,2.324,0,0,0,.909.17" transform="translate(53.162 58.814)" fill="#003b7c"/>
    <path id="Path_488" data-name="Path 488" d="M51.26,56.41A3.39,3.39,0,0,1,50,56.181a3.155,3.155,0,0,1-1-.621,2.826,2.826,0,0,1-.651-.916,2.785,2.785,0,0,1,0-2.244,2.815,2.815,0,0,1,.658-.924,3.121,3.121,0,0,1,1.005-.627,3.441,3.441,0,0,1,1.27-.229,3.407,3.407,0,0,1,1.263.229,3.211,3.211,0,0,1,1,.621,2.79,2.79,0,0,1,.658.916A2.682,2.682,0,0,1,54.44,53.5a2.65,2.65,0,0,1-.243,1.125,2.942,2.942,0,0,1-.662.924,3.109,3.109,0,0,1-1.007.634,3.43,3.43,0,0,1-1.267.229m-.011-5.074a2.253,2.253,0,0,0-.887.166,1.9,1.9,0,0,0-.671.461,2.041,2.041,0,0,0-.417.688,2.413,2.413,0,0,0-.144.841,2.319,2.319,0,0,0,.155.848,1.987,1.987,0,0,0,.439.686,2.084,2.084,0,0,0,.673.461,2.137,2.137,0,0,0,.874.173,2.261,2.261,0,0,0,.887-.166,1.944,1.944,0,0,0,.671-.457,2.049,2.049,0,0,0,.422-.682,2.408,2.408,0,0,0,0-1.689,2.127,2.127,0,0,0-.439-.693,2.09,2.09,0,0,0-.68-.465,2.166,2.166,0,0,0-.878-.173" transform="translate(57.017 59.987)" fill="#003b7c"/>
    <path id="Path_489" data-name="Path 489" d="M58.448,50.548H53.877v2.559h4.09v.771h-4.09V56.5H58.5v.769H53.032V49.777h5.417Z" transform="translate(62.845 58.988)" fill="#003b7c"/>
    <path id="Path_490" data-name="Path 490" d="M58.032,53.11c.236.063.47.138.7.219a3.036,3.036,0,0,1,.627.3,1.59,1.59,0,0,1,.448.439,1.093,1.093,0,0,1,.173.629v.022a1.489,1.489,0,0,1-.166.706,1.548,1.548,0,0,1-.461.522,2.132,2.132,0,0,1-.684.326,3.069,3.069,0,0,1-.841.114,4.012,4.012,0,0,1-1.055-.144,5.174,5.174,0,0,1-1-.391v-.878a4.252,4.252,0,0,0,1.023.518,3.383,3.383,0,0,0,1.077.177,1.586,1.586,0,0,0,.9-.234.734.734,0,0,0,.354-.64v-.022A.529.529,0,0,0,59,54.423a1.067,1.067,0,0,0-.33-.262,2.844,2.844,0,0,0-.483-.2c-.181-.057-.374-.109-.572-.16-.236-.063-.472-.133-.712-.208a2.962,2.962,0,0,1-.647-.288,1.529,1.529,0,0,1-.465-.433,1.1,1.1,0,0,1-.177-.64v-.022a1.366,1.366,0,0,1,.155-.647,1.543,1.543,0,0,1,.428-.5,2.115,2.115,0,0,1,.647-.326,2.743,2.743,0,0,1,.826-.118,3.654,3.654,0,0,1,.732.076,5.773,5.773,0,0,1,.723.192v.8a3.439,3.439,0,0,0-1.477-.352,1.414,1.414,0,0,0-.857.229.685.685,0,0,0-.31.57v.022a.491.491,0,0,0,.129.336,1.114,1.114,0,0,0,.347.251,3.675,3.675,0,0,0,.5.192c.186.057.38.114.579.17" transform="translate(65.904 59.986)" fill="#003b7c"/>
    <path id="Path_491" data-name="Path 491" d="M60.653,56.753h-.472a1.928,1.928,0,0,1-1.4-.481,1.886,1.886,0,0,1-.494-1.414V50.213h.933v1.005h1.433v.719H59.22v2.878c0,.8.358,1.2,1.079,1.2h.354Z" transform="translate(69.073 59.505)" fill="#003b7c"/>
    <path id="Path_492" data-name="Path 492" d="M62.6,50.61a2.853,2.853,0,0,1,1.914.572,2.109,2.109,0,0,1,.669,1.7v3.4h-.867v-.846a2.021,2.021,0,0,1-.406.365,3.3,3.3,0,0,1-.551.3,3.446,3.446,0,0,1-.675.214,3.52,3.52,0,0,1-.765.081,3.006,3.006,0,0,1-.815-.111,2.249,2.249,0,0,1-.695-.332,1.653,1.653,0,0,1-.481-.553,1.582,1.582,0,0,1-.181-.769,1.55,1.55,0,0,1,.673-1.366,3.178,3.178,0,0,1,1.831-.465,9.715,9.715,0,0,1,1.117.063,7.019,7.019,0,0,1,.948.173v-.151a1.4,1.4,0,0,0-.476-1.156,2.056,2.056,0,0,0-1.329-.385,3.786,3.786,0,0,0-.981.118,6,6,0,0,0-.854.3v-.793a5.662,5.662,0,0,1,.894-.267,4.885,4.885,0,0,1,1.031-.1m1.728,3.05a8.833,8.833,0,0,0-.883-.162,8.249,8.249,0,0,0-1.095-.074,2.063,2.063,0,0,0-1.27.317,1.031,1.031,0,0,0-.406.861.976.976,0,0,0,.406.841,1.7,1.7,0,0,0,1.014.293,3.078,3.078,0,0,0,.822-.111,2.423,2.423,0,0,0,.715-.317,1.794,1.794,0,0,0,.5-.481,1.066,1.066,0,0,0,.194-.621Z" transform="translate(70.798 59.976)" fill="#003b7c"/>
    <path id="Path_493" data-name="Path 493" d="M69,49.63v7.814h-.931v-.706a2.864,2.864,0,0,1-.935.614,3.158,3.158,0,0,1-1.237.232,3.373,3.373,0,0,1-1.291-.24,3.166,3.166,0,0,1-1-.649,2.866,2.866,0,0,1-.647-.953,2.949,2.949,0,0,1-.229-1.156,2.873,2.873,0,0,1,.229-1.145A2.933,2.933,0,0,1,63.6,52.5a3.027,3.027,0,0,1,.99-.642,3.372,3.372,0,0,1,1.285-.236,3.231,3.231,0,0,1,1.248.229,2.932,2.932,0,0,1,.946.627V49.63Zm-3.125,7.182a2.27,2.27,0,0,0,.894-.17,2.076,2.076,0,0,0,.69-.476,2.211,2.211,0,0,0,.45-.708,2.361,2.361,0,0,0,.16-.872,2.539,2.539,0,0,0-.149-.867,2.028,2.028,0,0,0-.435-.706,2.057,2.057,0,0,0-.684-.472,2.3,2.3,0,0,0-.9-.17,2.236,2.236,0,0,0-.9.177,2.19,2.19,0,0,0-.7.476,2.094,2.094,0,0,0-.454.712,2.375,2.375,0,0,0-.16.872,2.335,2.335,0,0,0,.155.861,2.074,2.074,0,0,0,.439.7,1.99,1.99,0,0,0,.69.472,2.324,2.324,0,0,0,.909.17" transform="translate(74.333 58.814)" fill="#003b7c"/>
    <path id="Path_494" data-name="Path 494" d="M69.125,56.41a3.39,3.39,0,0,1-1.263-.229,3.154,3.154,0,0,1-1-.621,2.826,2.826,0,0,1-.651-.916,2.785,2.785,0,0,1,0-2.244,2.816,2.816,0,0,1,.658-.924,3.121,3.121,0,0,1,1.005-.627,3.441,3.441,0,0,1,1.27-.229,3.407,3.407,0,0,1,1.263.229,3.211,3.211,0,0,1,1,.621,2.79,2.79,0,0,1,.658.916A2.682,2.682,0,0,1,72.3,53.5a2.651,2.651,0,0,1-.243,1.125,2.943,2.943,0,0,1-.662.924,3.109,3.109,0,0,1-1.007.634,3.43,3.43,0,0,1-1.267.229m-.011-5.074a2.253,2.253,0,0,0-.887.166,1.9,1.9,0,0,0-.671.461,2.041,2.041,0,0,0-.417.688,2.413,2.413,0,0,0-.144.841,2.319,2.319,0,0,0,.155.848,1.987,1.987,0,0,0,.439.686,2.108,2.108,0,0,0,.673.461,2.137,2.137,0,0,0,.874.173,2.261,2.261,0,0,0,.887-.166,1.944,1.944,0,0,0,.671-.457,2.049,2.049,0,0,0,.422-.682,2.408,2.408,0,0,0,0-1.689,2.127,2.127,0,0,0-.439-.693,2.09,2.09,0,0,0-.68-.465,2.166,2.166,0,0,0-.878-.173" transform="translate(78.188 59.987)" fill="#003b7c"/>
    <path id="Path_495" data-name="Path 495" d="M76.967,49.63v7.814h-.931v-.706a2.864,2.864,0,0,1-.935.614,3.159,3.159,0,0,1-1.237.232,3.373,3.373,0,0,1-1.291-.24,3.165,3.165,0,0,1-1-.649,2.866,2.866,0,0,1-.647-.953,2.949,2.949,0,0,1-.229-1.156,2.873,2.873,0,0,1,.229-1.145,2.933,2.933,0,0,1,.642-.942,3.027,3.027,0,0,1,.99-.642,3.364,3.364,0,0,1,1.285-.236,3.231,3.231,0,0,1,1.248.229,2.933,2.933,0,0,1,.946.627V49.63Zm-3.125,7.182a2.27,2.27,0,0,0,.894-.17,2.076,2.076,0,0,0,.69-.476,2.211,2.211,0,0,0,.45-.708,2.361,2.361,0,0,0,.16-.872,2.539,2.539,0,0,0-.149-.867,2.029,2.029,0,0,0-.435-.706,2.057,2.057,0,0,0-.684-.472,2.3,2.3,0,0,0-.9-.17,2.236,2.236,0,0,0-.9.177,2.19,2.19,0,0,0-.7.476,2.094,2.094,0,0,0-.454.712,2.375,2.375,0,0,0-.16.872,2.334,2.334,0,0,0,.155.861,2.073,2.073,0,0,0,.439.7,1.99,1.99,0,0,0,.69.472,2.324,2.324,0,0,0,.909.17" transform="translate(83.778 58.814)" fill="#003b7c"/>
    <path id="Path_496" data-name="Path 496" d="M77.1,56.41a3.39,3.39,0,0,1-1.263-.229,3.155,3.155,0,0,1-1-.621,2.826,2.826,0,0,1-.651-.916,2.785,2.785,0,0,1,0-2.244,2.815,2.815,0,0,1,.658-.924,3.121,3.121,0,0,1,1.005-.627,3.441,3.441,0,0,1,1.27-.229,3.407,3.407,0,0,1,1.263.229,3.211,3.211,0,0,1,1,.621,2.79,2.79,0,0,1,.658.916,2.682,2.682,0,0,1,.236,1.112,2.651,2.651,0,0,1-.243,1.125,2.942,2.942,0,0,1-.662.924,3.109,3.109,0,0,1-1.007.634,3.43,3.43,0,0,1-1.267.229m-.011-5.074a2.253,2.253,0,0,0-.887.166,1.905,1.905,0,0,0-.671.461,2.041,2.041,0,0,0-.417.688,2.412,2.412,0,0,0-.144.841,2.319,2.319,0,0,0,.155.848,1.987,1.987,0,0,0,.439.686,2.084,2.084,0,0,0,.673.461,2.137,2.137,0,0,0,.874.173,2.261,2.261,0,0,0,.887-.166,1.944,1.944,0,0,0,.671-.457,2.049,2.049,0,0,0,.422-.682,2.408,2.408,0,0,0,0-1.689,2.127,2.127,0,0,0-.439-.693,2.09,2.09,0,0,0-.68-.465,2.166,2.166,0,0,0-.878-.173" transform="translate(87.633 59.987)" fill="#003b7c"/>
    <path id="Path_497" data-name="Path 497" d="M83.276,57.43a5.987,5.987,0,0,1-.631.033,4.43,4.43,0,0,1-1.643-.3,4.109,4.109,0,0,1-1.3-.819,3.717,3.717,0,0,1-.863-1.221,3.834,3.834,0,0,1,0-3.022,3.8,3.8,0,0,1,.863-1.237,4.03,4.03,0,0,1,1.309-.835,4.453,4.453,0,0,1,1.672-.306,5.321,5.321,0,0,1,.6.033v.78c-.1-.013-.2-.024-.3-.031s-.2-.011-.31-.011a3.357,3.357,0,0,0-1.27.236,3.012,3.012,0,0,0-1.005.656,3.061,3.061,0,0,0-.9,2.2,3.1,3.1,0,0,0,.24,1.224,2.948,2.948,0,0,0,.669.988,3.085,3.085,0,0,0,1.012.656,3.333,3.333,0,0,0,1.259.236c.107,0,.21,0,.31-.011s.2-.017.3-.031Z" transform="translate(93.055 58.924)" fill="#003b7c"/>
    <path id="Path_498" data-name="Path 498" d="M85.721,55.923a3.171,3.171,0,0,1-.789.339,3.717,3.717,0,0,1-1,.122,3.268,3.268,0,0,1-1.173-.21,2.916,2.916,0,0,1-.959-.581,2.751,2.751,0,0,1-.647-.911,2.871,2.871,0,0,1,1.5-3.833,3.163,3.163,0,0,1,2.36.007,2.586,2.586,0,0,1,.883.621,2.716,2.716,0,0,1,.553.926,3.4,3.4,0,0,1,.192,1.145v.118a1.12,1.12,0,0,1-.011.14H81.823a2.019,2.019,0,0,0,.236.791,2,2,0,0,0,1.136.948,2.366,2.366,0,0,0,.758.122,2.619,2.619,0,0,0,1-.175,2.81,2.81,0,0,0,.767-.468ZM83.794,51.31a1.878,1.878,0,0,0-.739.144,1.906,1.906,0,0,0-.6.4,2.085,2.085,0,0,0-.424.594,2.231,2.231,0,0,0-.21.749h3.9a2.579,2.579,0,0,0-.168-.717,1.814,1.814,0,0,0-.374-.6,1.783,1.783,0,0,0-.588-.413,1.96,1.96,0,0,0-.8-.155" transform="translate(95.887 59.992)" fill="#003b7c"/>
    <path id="Path_499" data-name="Path 499" d="M86.715,50.61a2.861,2.861,0,0,1,1.918.572,2.115,2.115,0,0,1,.666,1.7v3.4h-.867v-.846a2.022,2.022,0,0,1-.406.365,3.3,3.3,0,0,1-.551.3,3.493,3.493,0,0,1-.675.214,3.535,3.535,0,0,1-.765.081,2.979,2.979,0,0,1-.813-.111,2.191,2.191,0,0,1-.7-.332,1.653,1.653,0,0,1-.481-.553,1.722,1.722,0,0,1,.492-2.135,3.175,3.175,0,0,1,1.829-.465,9.754,9.754,0,0,1,1.119.063,7.019,7.019,0,0,1,.948.173v-.151a1.407,1.407,0,0,0-.474-1.156,2.064,2.064,0,0,0-1.329-.385,3.791,3.791,0,0,0-.983.118,6.1,6.1,0,0,0-.854.3v-.793a5.662,5.662,0,0,1,.894-.267,4.878,4.878,0,0,1,1.029-.1m1.728,3.05a8.773,8.773,0,0,0-.881-.162,8.216,8.216,0,0,0-1.093-.074,2.057,2.057,0,0,0-1.272.317,1.031,1.031,0,0,0-.406.861.976.976,0,0,0,.406.841,1.7,1.7,0,0,0,1.014.293,3.078,3.078,0,0,0,.822-.111,2.423,2.423,0,0,0,.715-.317,1.765,1.765,0,0,0,.5-.481,1.064,1.064,0,0,0,.192-.621Z" transform="translate(99.383 59.976)" fill="#003b7c"/>
    <path id="Path_500" data-name="Path 500" d="M89.96,50.624v.824h-.332a1.614,1.614,0,0,0-.68.144,1.777,1.777,0,0,0-.553.391,1.928,1.928,0,0,0-.374.568,1.662,1.662,0,0,0-.14.675v3.039h-.9V53.226a2.493,2.493,0,0,1,.21-1.014,2.643,2.643,0,0,1,2.434-1.589Z" transform="translate(103.08 59.992)" fill="#003b7c"/>
    <path id="Path_501" data-name="Path 501" d="M91.537,51.684a2.867,2.867,0,0,1,1.916.572,2.12,2.12,0,0,1,.666,1.7v3.4h-.865v-.846a2.082,2.082,0,0,1-.406.363,3.153,3.153,0,0,1-.551.306,3.823,3.823,0,0,1-.675.214,3.676,3.676,0,0,1-.765.079,3,3,0,0,1-.815-.111,2.134,2.134,0,0,1-.695-.332,1.643,1.643,0,0,1-.481-.551,1.716,1.716,0,0,1,.489-2.135,3.187,3.187,0,0,1,1.831-.465,9.754,9.754,0,0,1,1.119.063,7.405,7.405,0,0,1,.948.17v-.149a1.4,1.4,0,0,0-.474-1.156,2.056,2.056,0,0,0-1.329-.387,3.779,3.779,0,0,0-.983.118,6.286,6.286,0,0,0-.854.3v-.791a5.707,5.707,0,0,1,.891-.267,4.906,4.906,0,0,1,1.031-.1m1.728,3.053a8.3,8.3,0,0,0-.881-.162A7.874,7.874,0,0,0,91.29,54.5a2.07,2.07,0,0,0-1.27.315,1.036,1.036,0,0,0-.406.863.975.975,0,0,0,.406.839,1.678,1.678,0,0,0,1.014.295,3.006,3.006,0,0,0,.822-.114,2.478,2.478,0,0,0,.715-.315,1.8,1.8,0,0,0,.5-.483,1.055,1.055,0,0,0,.192-.621Zm-2.559-3.747L91.711,49.7h1.125L91.39,50.989Z" transform="translate(105.094 58.902)" fill="#003b7c"/>
    <path id="Path_502" data-name="Path 502" d="M127.1,48.409a22.35,22.35,0,0,1-2.279.116,15.916,15.916,0,0,1-5.928-1.082,14.709,14.709,0,0,1-4.711-2.954,13.688,13.688,0,0,1-3.109-15.313,13.867,13.867,0,0,1,3.109-4.46,14.614,14.614,0,0,1,4.731-3.013,16.071,16.071,0,0,1,6.024-1.1,19.767,19.767,0,0,1,2.163.116v2.821c-.361-.05-.719-.09-1.082-.116s-.734-.039-1.119-.039a12.045,12.045,0,0,0-4.578.854,10.867,10.867,0,0,0-3.629,2.362,11.071,11.071,0,0,0-3.262,7.945,11.193,11.193,0,0,0,.87,4.418,10.844,10.844,0,0,0,2.412,3.566,11.162,11.162,0,0,0,3.649,2.364,11.971,11.971,0,0,0,4.538.85c.385,0,.76-.011,1.119-.037s.721-.063,1.082-.116Z" transform="translate(130.3 24.415)" fill="#a27012"/>
    <path id="Path_503" data-name="Path 503" d="M138.931,23.577H122.443v9.23h14.751v2.782H122.443v9.461h16.681v2.782H119.39V20.8h19.541Z" transform="translate(141.483 24.646)" fill="#a27012"/>
  </g>
</svg>
