<svg id="Group_198" data-name="Group 198" xmlns="http://www.w3.org/2000/svg" xmlns:xlink="http://www.w3.org/1999/xlink" width="243.602" height="311.566" viewBox="0 0 243.602 311.566">
  <defs>
    <clipPath id="clip-path">
      <rect id="Rectangle_64" data-name="Rectangle 64" width="243.602" height="311.566" fill="none"/>
    </clipPath>
  </defs>
  <g id="Group_197" data-name="Group 197" clip-path="url(#clip-path)">
    <path id="Path_373" data-name="Path 373" d="M2.28,337.281c.1-.123.2-.265.305-.387.2-.265.428-.428.713-.183a5.621,5.621,0,0,0,3.44,1.547,2.455,2.455,0,0,0,2.727-2.239c0-1.405-1.221-2.24-3.561-3.217-2.24-.977-3.584-1.894-3.584-4.214,0-1.385,1.1-3.624,4.336-3.624A6.657,6.657,0,0,1,10.138,326a.453.453,0,0,1,.122.692c-.081.121-.163.264-.244.386a.462.462,0,0,1-.713.183,5.685,5.685,0,0,0-2.666-.936c-2.158,0-2.809,1.384-2.809,2.239,0,1.365,1.038,2.158,2.749,2.871,2.748,1.12,4.519,2.158,4.519,4.519,0,2.117-2.016,3.664-4.4,3.664a6.637,6.637,0,0,1-4.3-1.649.448.448,0,0,1-.123-.692" transform="translate(-0.368 -55.2)" fill="#1a1818"/>
    <path id="Path_374" data-name="Path 374" d="M15.2,326.677a.967.967,0,1,1,.957.957.96.96,0,0,1-.957-.957m.286,5.11a.4.4,0,0,1,.387-.388H16.5a.4.4,0,0,1,.387.388v7.369a.4.4,0,0,1-.387.387H15.87a.4.4,0,0,1-.387-.387Z" transform="translate(-2.582 -55.325)" fill="#1a1818"/>
    <path id="Path_375" data-name="Path 375" d="M20.119,339.527c.081-.122.224-.407.286-.508a.376.376,0,0,1,.549-.061,3.437,3.437,0,0,0,1.914.712c.834,0,1.323-.428,1.323-.977,0-.713-.611-1.038-1.791-1.629-1.079-.53-2.32-1.242-2.32-2.626a2.289,2.289,0,0,1,2.585-2.118,4.149,4.149,0,0,1,2.259.632.49.49,0,0,1,.123.631l-.164.325a.447.447,0,0,1-.59.183,4.051,4.051,0,0,0-1.628-.488c-.916,0-1.161.467-1.161.814,0,.672.672.977,1.506,1.384,1.405.672,2.667,1.3,2.667,2.769a2.579,2.579,0,0,1-2.809,2.3,4.13,4.13,0,0,1-2.646-.916.405.405,0,0,1-.1-.427" transform="translate(-3.411 -56.45)" fill="#1a1818"/>
    <path id="Path_376" data-name="Path 376" d="M29.79,333.238H28.752a.387.387,0,0,1-.387-.387V332.4a.375.375,0,0,1,.387-.388H29.79v-2.259a.4.4,0,0,1,.387-.387l.651-.041a.382.382,0,0,1,.367.386v2.3h2.362a.375.375,0,0,1,.387.388v.447a.387.387,0,0,1-.387.387H31.194V338c0,.814.2.977.672.977a3.887,3.887,0,0,0,1.486-.448c.3-.163.386-.04.488.123l.305.509c.142.244.081.366-.143.509a5.323,5.323,0,0,1-2.34.692c-1.63,0-1.874-.977-1.874-2.24Z" transform="translate(-4.818 -55.942)" fill="#1a1818"/>
    <path id="Path_377" data-name="Path 377" d="M41.106,332.322a3.594,3.594,0,0,1,3.684,3.725,4.9,4.9,0,0,1-.041.55.373.373,0,0,1-.366.345H38.521a2.857,2.857,0,0,0,2.727,2.647,3.877,3.877,0,0,0,2.016-.611c.286-.163.408-.265.57-.041.122.163.223.306.346.468.142.183.224.3-.081.529a5.055,5.055,0,0,1-2.993.936,4.285,4.285,0,0,1,0-8.55m2.28,3.481a2.351,2.351,0,0,0-2.28-2.239,2.532,2.532,0,0,0-2.565,2.239Z" transform="translate(-6.305 -56.45)" fill="#1a1818"/>
    <path id="Path_378" data-name="Path 378" d="M49.032,332.912a.4.4,0,0,1,.387-.388h.387a.3.3,0,0,1,.325.245l.183.631a3.716,3.716,0,0,1,2.646-1.079,2.864,2.864,0,0,1,2.606,1.323,4.978,4.978,0,0,1,3.033-1.323c2.361,0,3.155,1.547,3.155,3.665v4.3a.4.4,0,0,1-.387.387h-.651a.4.4,0,0,1-.387-.387v-4.3c0-1.527-.652-2.3-1.833-2.3a3.642,3.642,0,0,0-2.483,1.141,6.616,6.616,0,0,1,.1,1.161v4.3a.4.4,0,0,1-.386.387h-.652a.4.4,0,0,1-.387-.387v-4.3c0-1.547-.692-2.3-1.933-2.3a3.146,3.146,0,0,0-2.321,1.161v5.435a.4.4,0,0,1-.387.387h-.631a.4.4,0,0,1-.387-.387Z" transform="translate(-8.329 -56.45)" fill="#1a1818"/>
    <path id="Path_379" data-name="Path 379" d="M70.26,335.5a6.677,6.677,0,0,1,1.73.265c.021-1.506-.163-2.2-1.323-2.2a7.155,7.155,0,0,0-2.442.447c-.2.081-.325-.02-.387-.2l-.163-.509c-.081-.245.041-.366.224-.448a7.635,7.635,0,0,1,2.829-.53c2.077,0,2.585,1.059,2.585,3.441v4.519a.4.4,0,0,1-.386.387H72.54c-.224,0-.286-.122-.346-.306l-.163-.55a3.53,3.53,0,0,1-2.524,1.058A2.472,2.472,0,0,1,67,338.2c0-1.547,1.161-2.707,3.257-2.707m-.529,4.153a2.887,2.887,0,0,0,2.239-1.14V336.9a3.652,3.652,0,0,0-1.71-.325c-1.139,0-1.954.569-1.954,1.628a1.374,1.374,0,0,0,1.425,1.446" transform="translate(-11.381 -56.45)" fill="#1a1818"/>
    <path id="Path_380" data-name="Path 380" d="M82.419,337.281c.1-.123.2-.266.305-.387.2-.266.428-.427.713-.183a5.622,5.622,0,0,0,3.44,1.547,2.454,2.454,0,0,0,2.727-2.238c0-1.405-1.221-2.24-3.561-3.217-2.24-.978-3.584-1.894-3.584-4.214,0-1.385,1.1-3.624,4.336-3.624A6.653,6.653,0,0,1,90.277,326a.452.452,0,0,1,.122.691c-.081.122-.163.264-.244.386a.462.462,0,0,1-.713.184,5.685,5.685,0,0,0-2.666-.936c-2.158,0-2.809,1.384-2.809,2.239,0,1.365,1.038,2.158,2.749,2.87,2.748,1.121,4.519,2.158,4.519,4.52,0,2.117-2.016,3.663-4.4,3.663a6.633,6.633,0,0,1-4.3-1.649.447.447,0,0,1-.123-.691" transform="translate(-13.981 -55.2)" fill="#1a1818"/>
    <path id="Path_381" data-name="Path 381" d="M95.337,326.676a.967.967,0,1,1,.957.957.96.96,0,0,1-.957-.957m.286,5.111a.4.4,0,0,1,.387-.389h.631a.4.4,0,0,1,.387.389v7.369a.4.4,0,0,1-.387.387h-.631a.4.4,0,0,1-.387-.387Z" transform="translate(-16.194 -55.325)" fill="#1a1818"/>
    <path id="Path_382" data-name="Path 382" d="M100.854,332.912a.4.4,0,0,1,.387-.388h.387a.3.3,0,0,1,.325.246l.183.63a4.545,4.545,0,0,1,2.85-1.078c2.362,0,3.156,1.547,3.156,3.665v4.3a.4.4,0,0,1-.388.387H107.1a.4.4,0,0,1-.387-.387v-4.3c0-1.548-.692-2.3-1.831-2.3a4.012,4.012,0,0,0-2.627,1.161v5.436a.4.4,0,0,1-.387.387h-.631a.4.4,0,0,1-.387-.387Z" transform="translate(-17.132 -56.45)" fill="#1a1818"/>
    <path id="Path_383" data-name="Path 383" d="M116.449,332.321a3.513,3.513,0,0,1,2.91,1.425.4.4,0,0,1-.081.569l-.388.327c-.3.285-.407.081-.59-.081a2.511,2.511,0,0,0-1.873-.855,2.919,2.919,0,0,0-.02,5.821,2.707,2.707,0,0,0,2.158-1.058c.244-.245.387-.2.611-.041l.223.164a.408.408,0,0,1,.143.569,3.649,3.649,0,0,1-3.115,1.71,4.184,4.184,0,0,1-4.173-4.254,4.29,4.29,0,0,1,4.194-4.3" transform="translate(-19.068 -56.45)" fill="#1a1818"/>
    <path id="Path_384" data-name="Path 384" d="M127.142,332.321a4.281,4.281,0,1,1-4.051,4.254,4.173,4.173,0,0,1,4.051-4.254m0,7.226a2.8,2.8,0,0,0,2.646-2.972,2.658,2.658,0,1,0-5.293,0,2.8,2.8,0,0,0,2.646,2.972" transform="translate(-20.909 -56.45)" fill="#1a1818"/>
    <path id="Path_385" data-name="Path 385" d="M137.049,346.389a.4.4,0,0,1-.388.387h-.631a.4.4,0,0,1-.387-.387V332.912a.4.4,0,0,1,.387-.388h.428c.183,0,.244.061.326.266l.142.386a3.631,3.631,0,0,1,2.361-.854,4.295,4.295,0,0,1-.061,8.549,3.7,3.7,0,0,1-2.177-.671Zm1.994-6.882a2.973,2.973,0,0,0,.1-5.9,2.767,2.767,0,0,0-2.077,1v4.193a3.413,3.413,0,0,0,1.975.712" transform="translate(-23.041 -56.45)" fill="#1a1818"/>
    <path id="Path_386" data-name="Path 386" d="M150.715,332.322a3.593,3.593,0,0,1,3.684,3.724,4.9,4.9,0,0,1-.041.55.373.373,0,0,1-.366.346H148.13a2.857,2.857,0,0,0,2.727,2.646,3.877,3.877,0,0,0,2.016-.61c.286-.164.408-.266.57-.041.122.162.223.3.346.468.142.183.224.3-.081.528a5.049,5.049,0,0,1-2.993.936,4.284,4.284,0,0,1,0-8.549M153,335.8a2.352,2.352,0,0,0-2.28-2.24,2.532,2.532,0,0,0-2.565,2.24Z" transform="translate(-24.923 -56.45)" fill="#1a1818"/>
    <path id="Path_387" data-name="Path 387" d="M162.123,332.321a3.516,3.516,0,0,1,2.911,1.425.4.4,0,0,1-.081.569l-.387.327c-.305.285-.407.081-.591-.081a2.511,2.511,0,0,0-1.873-.855,2.919,2.919,0,0,0-.02,5.821,2.706,2.706,0,0,0,2.158-1.058c.244-.245.387-.2.611-.041l.223.164a.409.409,0,0,1,.144.569,3.621,3.621,0,0,1-2.809,1.689v.9a2.17,2.17,0,0,1,2.137,2.1,2.1,2.1,0,0,1-3.684,1.4.361.361,0,0,1,0-.53l.284-.223a.368.368,0,0,1,.469,0,1.182,1.182,0,0,0,.834.366.882.882,0,0,0,.9-.956c0-.937-1-1.16-1.689-1.283a.4.4,0,0,1-.346-.408v-1.425a4.166,4.166,0,0,1-3.379-4.172,4.29,4.29,0,0,1,4.194-4.3" transform="translate(-26.827 -56.45)" fill="#1a1818"/>
    <path id="Path_388" data-name="Path 388" d="M172.047,335.5a6.7,6.7,0,0,1,1.73.264c.021-1.505-.163-2.2-1.323-2.2a7.157,7.157,0,0,0-2.442.447c-.2.082-.325-.02-.387-.2l-.163-.509c-.081-.246.041-.366.224-.448a7.635,7.635,0,0,1,2.829-.53c2.077,0,2.585,1.059,2.585,3.44v4.52a.4.4,0,0,1-.386.387h-.387c-.224,0-.286-.123-.346-.306l-.163-.549a3.53,3.53,0,0,1-2.524,1.058,2.472,2.472,0,0,1-2.5-2.667c0-1.547,1.161-2.706,3.257-2.706m-.529,4.152a2.885,2.885,0,0,0,2.239-1.14V336.9a3.652,3.652,0,0,0-1.71-.325c-1.139,0-1.954.57-1.954,1.628a1.373,1.373,0,0,0,1.425,1.446" transform="translate(-28.672 -56.45)" fill="#1a1818"/>
    <path id="Path_389" data-name="Path 389" d="M179.2,339.527c.081-.121.224-.407.286-.507a.376.376,0,0,1,.549-.061,3.439,3.439,0,0,0,1.914.711c.834,0,1.323-.428,1.323-.977,0-.712-.611-1.038-1.791-1.629-1.079-.53-2.32-1.241-2.32-2.626a2.289,2.289,0,0,1,2.585-2.117,4.142,4.142,0,0,1,2.259.632.489.489,0,0,1,.123.63l-.164.325a.446.446,0,0,1-.59.183,4.051,4.051,0,0,0-1.628-.488c-.916,0-1.161.468-1.161.814,0,.673.672.978,1.506,1.385,1.405.672,2.667,1.3,2.667,2.769a2.578,2.578,0,0,1-2.809,2.3,4.125,4.125,0,0,1-2.646-.916.4.4,0,0,1-.1-.427" transform="translate(-30.433 -56.45)" fill="#1a1818"/>
    <path id="Path_390" data-name="Path 390" d="M1.044,364.477l6.189-13.7a.363.363,0,0,1,.345-.223h.2a.366.366,0,0,1,.347.223l6.147,13.7a.359.359,0,0,1-.346.53h-.814a.374.374,0,0,1-.347-.223l-1.506-3.36H4.036l-1.486,3.36a.373.373,0,0,1-.345.223H1.391a.36.36,0,0,1-.347-.53m9.67-4.316c-1-2.217-1.975-4.457-2.973-6.676H7.579l-2.972,6.676Z" transform="translate(-0.17 -59.547)" fill="#1a1818"/>
    <path id="Path_391" data-name="Path 391" d="M18.3,365.116c.081-.123.224-.407.286-.509a.377.377,0,0,1,.549-.061,3.435,3.435,0,0,0,1.914.713c.834,0,1.323-.428,1.323-.977,0-.714-.611-1.039-1.791-1.629-1.079-.53-2.32-1.243-2.32-2.626a2.29,2.29,0,0,1,2.585-2.118,4.156,4.156,0,0,1,2.259.632.491.491,0,0,1,.123.632l-.164.325a.448.448,0,0,1-.59.183,4.055,4.055,0,0,0-1.628-.487c-.916,0-1.161.467-1.161.814,0,.672.672.976,1.506,1.383,1.405.673,2.667,1.3,2.667,2.769a2.58,2.58,0,0,1-2.809,2.3,4.134,4.134,0,0,1-2.646-.916.406.406,0,0,1-.1-.428" transform="translate(-3.102 -60.796)" fill="#1a1818"/>
    <path id="Path_392" data-name="Path 392" d="M27.033,365.116c.081-.123.223-.407.286-.509a.376.376,0,0,1,.548-.061,3.438,3.438,0,0,0,1.914.713c.833,0,1.322-.428,1.322-.977,0-.714-.61-1.039-1.791-1.629-1.079-.53-2.32-1.243-2.32-2.626a2.291,2.291,0,0,1,2.585-2.118,4.16,4.16,0,0,1,2.26.632.489.489,0,0,1,.122.632l-.163.325a.448.448,0,0,1-.59.183,4.051,4.051,0,0,0-1.629-.487c-.916,0-1.16.467-1.16.814,0,.672.672.976,1.506,1.383,1.405.673,2.666,1.3,2.666,2.769a2.579,2.579,0,0,1-2.808,2.3,4.132,4.132,0,0,1-2.646-.916.4.4,0,0,1-.1-.428" transform="translate(-4.585 -60.796)" fill="#1a1818"/>
    <path id="Path_393" data-name="Path 393" d="M39.7,357.908a4.282,4.282,0,1,1-4.051,4.256,4.174,4.174,0,0,1,4.051-4.256m0,7.228a2.8,2.8,0,0,0,2.646-2.972,2.659,2.659,0,1,0-5.293,0,2.8,2.8,0,0,0,2.646,2.972" transform="translate(-6.055 -60.796)" fill="#1a1818"/>
    <path id="Path_394" data-name="Path 394" d="M49.6,371.976a.4.4,0,0,1-.388.387h-.631a.4.4,0,0,1-.387-.387V358.5a.4.4,0,0,1,.387-.386h.428c.183,0,.244.061.326.264l.142.386a3.631,3.631,0,0,1,2.361-.854,4.3,4.3,0,0,1-.061,8.55,3.7,3.7,0,0,1-2.177-.672ZM51.6,365.1a2.974,2.974,0,0,0,.1-5.9,2.768,2.768,0,0,0-2.077,1v4.194a3.413,3.413,0,0,0,1.975.712" transform="translate(-8.187 -60.796)" fill="#1a1818"/>
    <path id="Path_395" data-name="Path 395" d="M63.27,357.909a3.594,3.594,0,0,1,3.684,3.726,4.892,4.892,0,0,1-.041.55.374.374,0,0,1-.366.345H60.685a2.857,2.857,0,0,0,2.727,2.646,3.877,3.877,0,0,0,2.016-.611c.286-.162.408-.264.57-.041.122.164.223.306.346.468.142.183.224.3-.081.53a5.061,5.061,0,0,1-2.993.936,4.285,4.285,0,0,1,0-8.55m2.28,3.481a2.35,2.35,0,0,0-2.28-2.238,2.531,2.531,0,0,0-2.565,2.238Z" transform="translate(-10.07 -60.796)" fill="#1a1818"/>
    <path id="Path_396" data-name="Path 396" d="M74.677,357.909a3.516,3.516,0,0,1,2.911,1.425.4.4,0,0,1-.081.57l-.387.325c-.305.285-.407.082-.591-.081a2.511,2.511,0,0,0-1.873-.855,2.92,2.92,0,0,0-.02,5.823,2.706,2.706,0,0,0,2.158-1.059c.244-.243.387-.2.611-.041l.223.164a.411.411,0,0,1,.144.57,3.625,3.625,0,0,1-2.809,1.689v.9a2.168,2.168,0,0,1,2.137,2.1,2.105,2.105,0,0,1-3.684,1.4.361.361,0,0,1,0-.53l.284-.225a.372.372,0,0,1,.469,0,1.177,1.177,0,0,0,.834.368.883.883,0,0,0,.9-.957c0-.936-1-1.161-1.689-1.282a.4.4,0,0,1-.346-.408v-1.425a4.166,4.166,0,0,1-3.379-4.172,4.29,4.29,0,0,1,4.194-4.3" transform="translate(-11.973 -60.796)" fill="#1a1818"/>
    <path id="Path_397" data-name="Path 397" d="M84.6,361.084a6.659,6.659,0,0,1,1.73.266c.021-1.507-.163-2.2-1.323-2.2a7.156,7.156,0,0,0-2.442.447c-.2.08-.325-.02-.387-.2l-.163-.509c-.081-.244.041-.366.224-.448a7.636,7.636,0,0,1,2.829-.53c2.077,0,2.585,1.059,2.585,3.442v4.518a.4.4,0,0,1-.386.387h-.387c-.224,0-.286-.121-.346-.3l-.163-.55a3.531,3.531,0,0,1-2.524,1.059,2.473,2.473,0,0,1-2.5-2.667c0-1.547,1.161-2.708,3.257-2.708m-.529,4.154a2.888,2.888,0,0,0,2.239-1.141V362.49a3.641,3.641,0,0,0-1.71-.325c-1.139,0-1.954.569-1.954,1.628a1.374,1.374,0,0,0,1.425,1.446" transform="translate(-13.817 -60.796)" fill="#1a1818"/>
    <path id="Path_398" data-name="Path 398" d="M91.757,365.116c.081-.123.224-.407.285-.509a.378.378,0,0,1,.55-.061,3.435,3.435,0,0,0,1.914.713c.833,0,1.323-.428,1.323-.977,0-.714-.611-1.039-1.792-1.629-1.078-.53-2.32-1.243-2.32-2.626a2.29,2.29,0,0,1,2.585-2.118,4.154,4.154,0,0,1,2.259.632.492.492,0,0,1,.124.632l-.164.325a.449.449,0,0,1-.591.183,4.05,4.05,0,0,0-1.628-.487c-.916,0-1.16.467-1.16.814,0,.672.672.976,1.505,1.383,1.405.673,2.668,1.3,2.668,2.769a2.58,2.58,0,0,1-2.809,2.3,4.137,4.137,0,0,1-2.647-.916.405.405,0,0,1-.1-.428" transform="translate(-15.579 -60.796)" fill="#1a1818"/>
    <path id="Path_399" data-name="Path 399" d="M106.45,364.354l6.189-13.7a.363.363,0,0,1,.345-.223h.2a.366.366,0,0,1,.347.223l6.147,13.7a.359.359,0,0,1-.346.53h-.814a.374.374,0,0,1-.347-.223l-1.506-3.36h-7.227l-1.486,3.36a.373.373,0,0,1-.345.223H106.8a.36.36,0,0,1-.347-.53m9.67-4.316c-1-2.217-1.975-4.457-2.973-6.676h-.163l-2.972,6.676Z" transform="translate(-18.075 -59.526)" fill="#1a1818"/>
    <path id="Path_400" data-name="Path 400" d="M123.71,364.993c.081-.123.224-.407.286-.509a.377.377,0,0,1,.549-.061,3.435,3.435,0,0,0,1.914.713c.834,0,1.323-.428,1.323-.977,0-.714-.611-1.039-1.791-1.629-1.079-.53-2.32-1.243-2.32-2.626a2.29,2.29,0,0,1,2.585-2.118,4.157,4.157,0,0,1,2.259.632.491.491,0,0,1,.123.632l-.164.325a.448.448,0,0,1-.59.183,4.055,4.055,0,0,0-1.628-.487c-.916,0-1.161.467-1.161.814,0,.672.672.976,1.506,1.383,1.405.673,2.667,1.3,2.667,2.769a2.58,2.58,0,0,1-2.809,2.3,4.134,4.134,0,0,1-2.646-.917.405.405,0,0,1-.1-.428" transform="translate(-21.007 -60.775)" fill="#1a1818"/>
    <path id="Path_401" data-name="Path 401" d="M132.438,364.993c.081-.123.224-.407.286-.509a.377.377,0,0,1,.549-.061,3.434,3.434,0,0,0,1.913.713c.834,0,1.323-.428,1.323-.977,0-.714-.61-1.039-1.791-1.629-1.079-.53-2.32-1.243-2.32-2.626a2.29,2.29,0,0,1,2.585-2.118,4.162,4.162,0,0,1,2.26.632.49.49,0,0,1,.122.632l-.163.325a.448.448,0,0,1-.59.183,4.056,4.056,0,0,0-1.629-.487c-.916,0-1.161.467-1.161.814,0,.672.672.976,1.507,1.383,1.4.673,2.666,1.3,2.666,2.769a2.58,2.58,0,0,1-2.809,2.3,4.134,4.134,0,0,1-2.646-.917.4.4,0,0,1-.1-.428" transform="translate(-22.49 -60.775)" fill="#1a1818"/>
    <path id="Path_402" data-name="Path 402" d="M145.1,357.785a4.282,4.282,0,1,1-4.051,4.256,4.174,4.174,0,0,1,4.051-4.256m0,7.228a2.8,2.8,0,0,0,2.646-2.972,2.659,2.659,0,1,0-5.293,0,2.8,2.8,0,0,0,2.646,2.972" transform="translate(-23.96 -60.775)" fill="#1a1818"/>
    <path id="Path_403" data-name="Path 403" d="M153.579,358.376a.4.4,0,0,1,.387-.387h.387a.3.3,0,0,1,.325.244l.183.632a3.714,3.714,0,0,1,2.646-1.08,2.864,2.864,0,0,1,2.606,1.323,4.983,4.983,0,0,1,3.033-1.323c2.361,0,3.155,1.548,3.155,3.665v4.3a.4.4,0,0,1-.387.387h-.651a.4.4,0,0,1-.387-.387v-4.3c0-1.526-.652-2.3-1.833-2.3a3.639,3.639,0,0,0-2.483,1.141,6.609,6.609,0,0,1,.1,1.16v4.3a.4.4,0,0,1-.386.387h-.652a.4.4,0,0,1-.387-.387v-4.3c0-1.547-.692-2.3-1.933-2.3a3.146,3.146,0,0,0-2.321,1.161v5.435a.4.4,0,0,1-.387.387h-.631a.4.4,0,0,1-.387-.387Z" transform="translate(-26.088 -60.775)" fill="#1a1818"/>
    <path id="Path_404" data-name="Path 404" d="M175.6,357.785a4.282,4.282,0,1,1-4.052,4.256,4.175,4.175,0,0,1,4.052-4.256m0,7.228a2.8,2.8,0,0,0,2.646-2.972,2.658,2.658,0,1,0-5.292,0,2.8,2.8,0,0,0,2.646,2.972" transform="translate(-29.14 -60.775)" fill="#1a1818"/>
    <path id="Path_405" data-name="Path 405" d="M184.425,358.7h-1.038a.386.386,0,0,1-.387-.387v-.447a.375.375,0,0,1,.387-.387h1.038v-2.26a.4.4,0,0,1,.387-.387l.651-.041a.383.383,0,0,1,.367.386v2.3h2.361a.375.375,0,0,1,.388.387v.447a.387.387,0,0,1-.388.387H185.83v4.763c0,.814.2.978.672.978a3.881,3.881,0,0,0,1.486-.448c.305-.163.387-.041.489.123l.305.509c.142.244.081.366-.143.508a5.311,5.311,0,0,1-2.341.693c-1.629,0-1.873-.978-1.873-2.24Z" transform="translate(-31.085 -60.267)" fill="#1a1818"/>
    <path id="Path_406" data-name="Path 406" d="M195.8,357.785a4.282,4.282,0,1,1-4.051,4.256,4.174,4.174,0,0,1,4.051-4.256m0,7.228a2.8,2.8,0,0,0,2.646-2.972,2.659,2.659,0,1,0-5.293,0,2.8,2.8,0,0,0,2.646,2.972" transform="translate(-32.572 -60.775)" fill="#1a1818"/>
    <path id="Path_407" data-name="Path 407" d="M203.684,364.993c.081-.123.224-.407.286-.509a.377.377,0,0,1,.549-.061,3.435,3.435,0,0,0,1.914.713c.834,0,1.323-.428,1.323-.977,0-.714-.611-1.039-1.791-1.629-1.079-.53-2.32-1.243-2.32-2.626a2.29,2.29,0,0,1,2.585-2.118,4.156,4.156,0,0,1,2.259.632.491.491,0,0,1,.123.632l-.164.325a.448.448,0,0,1-.59.183,4.055,4.055,0,0,0-1.628-.487c-.916,0-1.161.467-1.161.814,0,.672.672.976,1.506,1.383,1.405.673,2.667,1.3,2.667,2.769a2.58,2.58,0,0,1-2.809,2.3,4.134,4.134,0,0,1-2.646-.917.405.405,0,0,1-.1-.428" transform="translate(-34.592 -60.775)" fill="#1a1818"/>
    <path id="Path_408" data-name="Path 408" d="M0,280.6l8.8-10.467c7.97,6.9,15.939,10.824,26.287,10.824,9.041,0,14.751-4.163,14.751-10.467v-.238c0-5.947-3.331-9.159-18.794-12.728C13.322,253.239,3.331,248,3.331,232.66v-.237c0-14.275,11.9-24.147,28.428-24.147a46.155,46.155,0,0,1,30.214,10.467l-7.851,11.062c-7.493-5.591-14.986-8.565-22.6-8.565-8.565,0-13.56,4.4-13.56,9.874v.238c0,6.423,3.806,9.277,19.746,13.084,17.6,4.283,26.764,10.587,26.764,24.385v.238c0,15.582-12.252,24.858-29.738,24.858A51.286,51.286,0,0,1,0,280.6" transform="translate(0 -35.379)" fill="#323233"/>
    <path id="Path_409" data-name="Path 409" d="M81.2,280.6,90,270.129c7.971,6.9,15.94,10.824,26.287,10.824,9.042,0,14.751-4.163,14.751-10.467v-.238c0-5.947-3.33-9.159-18.793-12.728C94.524,253.239,84.532,248,84.532,232.66v-.237c0-14.275,11.894-24.147,28.428-24.147a46.152,46.152,0,0,1,30.213,10.467l-7.85,11.062c-7.494-5.591-14.988-8.565-22.6-8.565-8.564,0-13.559,4.4-13.559,9.874v.238c0,6.423,3.806,9.277,19.746,13.084,17.6,4.283,26.764,10.587,26.764,24.385v.238c0,15.582-12.253,24.858-29.739,24.858A51.286,51.286,0,0,1,81.2,280.6" transform="translate(-13.793 -35.379)" fill="#323233"/>
    <path id="Path_410" data-name="Path 410" d="M194.444,208.992H208l36.636,83.859H229.179l-8.447-20.1H181.36l-8.563,20.1H157.808Zm20.936,50.79-14.394-33.3-14.273,33.3Z" transform="translate(-26.806 -35.5)" fill="#323233"/>
    <path id="Path_411" data-name="Path 411" d="M261.926,292.851h10.239l-36.636-83.859H227.22Z" transform="translate(-38.597 -35.5)" fill="#c0051e"/>
    <path id="Path_412" data-name="Path 412" d="M279.048,292.851h6.058L248.47,208.993h-4.127Z" transform="translate(-41.505 -35.5)" fill="#f77e0b"/>
    <path id="Path_413" data-name="Path 413" d="M197.137,57.16A89.044,89.044,0,0,0,155.967,33.1a24.077,24.077,0,0,1-45.417,0A89.076,89.076,0,0,0,69.371,57.16a89.448,89.448,0,0,0,.243,38.231c.384-.021.77-.031,1.166-.031a24.093,24.093,0,0,1,24.071,24.071c0,.223,0,.446-.01.679a23.953,23.953,0,0,1-5.3,14.382,88.968,88.968,0,0,0,43.714,27.285,89.06,89.06,0,0,0,43.3-26.818,23.8,23.8,0,0,1-4.855-13.349c-.031-.385-.041-.78-.041-1.166a24.1,24.1,0,0,1,24.081-24.071c.315,0,.618.01.922.02a89.46,89.46,0,0,0,.477-39.234m-63.883,71.171A55.825,55.825,0,0,1,98.307,76.56c0-1.835.091-3.649.264-5.443a63.35,63.35,0,0,1,69.366,0c.173,1.794.264,3.609.264,5.443a55.811,55.811,0,0,1-34.947,51.771" transform="translate(-11.453 -5.622)" fill="#c0051e"/>
    <path id="Path_414" data-name="Path 414" d="M162.228,19.48c0,.183,0,.365-.01.547a19.48,19.48,0,0,1-38.93.4c-.02-.314-.031-.628-.031-.942a19.485,19.485,0,0,1,38.971,0" transform="translate(-20.937)" fill="#c0051e"/>
    <path id="Path_415" data-name="Path 415" d="M237.486,134.333c0,.183,0,.365-.01.547a19.477,19.477,0,0,1-35.616,10.348,19.275,19.275,0,0,1-3.314-9.953c-.021-.314-.031-.628-.031-.942a19.5,19.5,0,0,1,19.2-19.47,2.9,2.9,0,0,1,.294-.01,19.5,19.5,0,0,1,19.48,19.48" transform="translate(-33.721 -19.509)" fill="#c0051e"/>
    <path id="Path_416" data-name="Path 416" d="M86.958,133.112c0,.183,0,.365-.01.547a19.48,19.48,0,0,1-38.93.4c-.021-.314-.031-.628-.031-.942a19.51,19.51,0,0,1,19.47-19.48h.021a19.5,19.5,0,0,1,19.48,19.48" transform="translate(-8.151 -19.302)" fill="#c0051e"/>
  </g>
</svg>
