<?xml version="1.0" standalone="no"?><!-- Generator: Gravit.io --><svg xmlns="http://www.w3.org/2000/svg" xmlns:xlink="http://www.w3.org/1999/xlink" style="isolation:isolate" viewBox="120 83 278.506 58" width="278.506" height="58"><g><path d=" M 338.083 98.418 C 338.156 98.332 338.227 98.232 338.298 98.145 C 338.442 97.96 338.599 97.845 338.8 98.017 C 338.9 98.102 339.946 99.105 341.22 99.105 C 342.38 99.105 343.139 98.375 343.139 97.53 C 343.139 96.542 342.28 95.955 340.633 95.267 C 339.058 94.58 338.112 93.935 338.112 92.303 C 338.112 91.328 338.886 89.754 341.163 89.754 C 342.566 89.754 343.611 90.484 343.611 90.484 C 343.697 90.526 343.87 90.698 343.697 90.971 C 343.64 91.056 343.583 91.156 343.526 91.243 C 343.397 91.442 343.253 91.501 343.024 91.371 C 342.924 91.313 342.022 90.712 341.148 90.712 C 339.63 90.712 339.171 91.686 339.171 92.288 C 339.171 93.248 339.903 93.806 341.106 94.308 C 343.039 95.095 344.285 95.825 344.285 97.487 C 344.285 98.976 342.867 100.065 341.191 100.065 C 339.502 100.065 338.356 99.077 338.169 98.905 C 338.055 98.805 337.912 98.689 338.083 98.418 Z " fill="rgb(34,31,32)"/><path d=" M 345.814 94.465 C 345.814 94.323 345.944 94.192 346.087 94.192 L 346.531 94.192 C 346.674 94.192 346.803 94.323 346.803 94.465 L 346.803 99.649 C 346.803 99.792 346.674 99.922 346.531 99.922 L 346.087 99.922 C 345.944 99.922 345.814 99.792 345.814 99.649 L 345.814 94.465 Z  M 345.614 90.871 C 345.614 90.484 345.915 90.183 346.287 90.183 C 346.674 90.183 346.974 90.484 346.974 90.871 C 346.974 91.243 346.674 91.544 346.287 91.544 C 345.915 91.544 345.614 91.243 345.614 90.871 Z " fill="rgb(34,31,32)"/><path d=" M 348.492 99.119 C 348.549 99.034 348.65 98.832 348.692 98.761 C 348.765 98.647 348.922 98.618 349.079 98.72 C 349.079 98.72 349.695 99.22 350.425 99.22 C 351.012 99.22 351.357 98.92 351.357 98.532 C 351.357 98.031 350.926 97.802 350.097 97.387 C 349.338 97.014 348.464 96.512 348.464 95.54 C 348.464 94.938 348.95 94.049 350.283 94.049 C 351.028 94.049 351.601 94.308 351.872 94.494 C 352.001 94.58 352.044 94.781 351.958 94.938 L 351.843 95.167 C 351.758 95.324 351.556 95.368 351.428 95.295 C 351.428 95.295 350.812 94.953 350.283 94.953 C 349.638 94.953 349.467 95.281 349.467 95.525 C 349.467 95.998 349.939 96.212 350.526 96.498 C 351.515 96.971 352.402 97.415 352.402 98.447 C 352.402 99.277 351.601 100.065 350.425 100.065 C 349.467 100.065 348.879 99.664 348.564 99.419 C 348.492 99.362 348.449 99.22 348.492 99.119 Z " fill="rgb(34,31,32)"/><path d=" M 354.306 95.052 L 353.576 95.052 C 353.419 95.052 353.303 94.923 353.303 94.781 L 353.303 94.465 C 353.303 94.308 353.419 94.192 353.576 94.192 L 354.306 94.192 L 354.306 92.602 C 354.306 92.46 354.436 92.331 354.578 92.331 L 355.037 92.303 C 355.18 92.303 355.295 92.433 355.295 92.575 L 355.295 94.192 L 356.956 94.192 C 357.113 94.192 357.227 94.308 357.227 94.465 L 357.227 94.781 C 357.227 94.923 357.113 95.052 356.956 95.052 L 355.295 95.052 L 355.295 98.404 C 355.295 98.977 355.438 99.091 355.767 99.091 C 356.126 99.091 356.626 98.877 356.813 98.777 C 357.027 98.661 357.084 98.748 357.156 98.862 L 357.371 99.22 C 357.471 99.392 357.428 99.478 357.27 99.577 C 357.07 99.706 356.297 100.065 355.625 100.065 C 354.479 100.065 354.306 99.378 354.306 98.489 L 354.306 95.052 Z " fill="rgb(34,31,32)"/><path d=" M 362.826 96.498 C 362.783 95.669 362.096 94.924 361.222 94.924 C 360.262 94.924 359.518 95.611 359.418 96.498 L 362.826 96.498 Z  M 361.222 94.049 C 362.726 94.049 363.814 95.167 363.814 96.671 C 363.814 96.772 363.8 96.957 363.786 97.058 C 363.772 97.202 363.656 97.301 363.528 97.301 L 359.403 97.301 C 359.46 98.261 360.306 99.163 361.322 99.163 C 361.923 99.163 362.41 98.934 362.74 98.734 C 362.94 98.619 363.026 98.547 363.142 98.704 C 363.227 98.819 363.299 98.92 363.384 99.034 C 363.485 99.163 363.542 99.248 363.328 99.407 C 362.983 99.679 362.21 100.065 361.222 100.065 C 359.489 100.065 358.415 98.704 358.415 97.058 C 358.415 95.44 359.489 94.049 361.222 94.049 Z " fill="rgb(34,31,32)"/><path d=" M 365.373 94.465 C 365.373 94.323 365.502 94.192 365.646 94.192 L 365.918 94.192 C 366.046 94.192 366.117 94.251 366.146 94.365 L 366.276 94.808 C 366.276 94.808 366.949 94.049 368.137 94.049 C 368.982 94.049 369.599 94.38 369.97 94.98 C 370.042 94.923 370.959 94.049 372.105 94.049 C 373.766 94.049 374.324 95.138 374.324 96.628 L 374.324 99.649 C 374.324 99.792 374.194 99.922 374.052 99.922 L 373.593 99.922 C 373.45 99.922 373.322 99.792 373.322 99.649 L 373.322 96.628 C 373.322 95.553 372.863 95.01 372.032 95.01 C 371.102 95.01 370.486 95.625 370.286 95.811 C 370.329 96.055 370.357 96.327 370.357 96.628 L 370.357 99.649 C 370.357 99.792 370.229 99.922 370.084 99.922 L 369.627 99.922 C 369.483 99.922 369.355 99.792 369.355 99.649 L 369.355 96.628 C 369.355 95.54 368.867 95.01 367.994 95.01 C 366.978 95.01 366.362 95.825 366.362 95.825 L 366.362 99.649 C 366.362 99.792 366.233 99.922 366.089 99.922 L 365.646 99.922 C 365.502 99.922 365.373 99.792 365.373 99.649 L 365.373 94.465 Z " fill="rgb(34,31,32)"/><path d=" M 377.787 99.205 C 378.504 99.205 379.12 98.76 379.363 98.403 L 379.363 97.272 C 379.191 97.172 378.79 97.042 378.159 97.042 C 377.359 97.042 376.785 97.443 376.785 98.187 C 376.785 98.76 377.173 99.205 377.787 99.205 Z  M 378.159 96.283 C 378.775 96.283 379.377 96.471 379.377 96.471 C 379.391 95.411 379.263 94.923 378.447 94.923 C 377.658 94.923 376.986 95.138 376.729 95.238 C 376.584 95.295 376.498 95.223 376.455 95.095 L 376.341 94.737 C 376.284 94.565 376.37 94.479 376.498 94.422 C 376.584 94.379 377.416 94.049 378.49 94.049 C 379.95 94.049 380.308 94.794 380.308 96.471 L 380.308 99.649 C 380.308 99.792 380.18 99.92 380.035 99.92 L 379.764 99.92 C 379.607 99.92 379.564 99.835 379.521 99.706 L 379.405 99.319 C 379.105 99.62 378.518 100.065 377.63 100.065 C 376.627 100.065 375.868 99.335 375.868 98.187 C 375.868 97.099 376.684 96.283 378.159 96.283 Z " fill="rgb(34,31,32)"/><path d=" M 338.083 111.817 C 338.156 111.731 338.227 111.631 338.298 111.545 C 338.442 111.36 338.599 111.246 338.8 111.417 C 338.9 111.503 339.946 112.505 341.22 112.505 C 342.38 112.505 343.139 111.774 343.139 110.93 C 343.139 109.942 342.28 109.355 340.633 108.667 C 339.058 107.98 338.112 107.334 338.112 105.703 C 338.112 104.728 338.886 103.153 341.163 103.153 C 342.566 103.153 343.611 103.883 343.611 103.883 C 343.697 103.925 343.87 104.098 343.697 104.37 C 343.64 104.457 343.583 104.555 343.526 104.643 C 343.397 104.842 343.253 104.9 343.024 104.771 C 342.924 104.714 342.022 104.113 341.148 104.113 C 339.63 104.113 339.171 105.087 339.171 105.688 C 339.171 106.647 339.903 107.205 341.106 107.707 C 343.039 108.496 344.285 109.225 344.285 110.887 C 344.285 112.375 342.867 113.464 341.191 113.464 C 339.502 113.464 338.356 112.477 338.169 112.304 C 338.055 112.204 337.912 112.09 338.083 111.817 Z " fill="rgb(34,31,32)"/><path d=" M 345.814 107.864 C 345.814 107.721 345.944 107.591 346.087 107.591 L 346.531 107.591 C 346.674 107.591 346.803 107.721 346.803 107.864 L 346.803 113.048 C 346.803 113.19 346.674 113.321 346.531 113.321 L 346.087 113.321 C 345.944 113.321 345.814 113.19 345.814 113.048 L 345.814 107.864 Z  M 345.614 104.269 C 345.614 103.882 345.915 103.582 346.287 103.582 C 346.674 103.582 346.974 103.882 346.974 104.269 C 346.974 104.642 346.674 104.941 346.287 104.941 C 345.915 104.941 345.614 104.642 345.614 104.269 Z " fill="rgb(34,31,32)"/><path d=" M 348.837 107.864 C 348.837 107.721 348.966 107.591 349.108 107.591 L 349.381 107.591 C 349.51 107.591 349.581 107.649 349.61 107.763 L 349.738 108.207 C 349.738 108.207 350.555 107.449 351.744 107.449 C 353.405 107.449 353.964 108.536 353.964 110.026 L 353.964 113.048 C 353.964 113.19 353.835 113.321 353.691 113.321 L 353.234 113.321 C 353.089 113.321 352.961 113.19 352.961 113.048 L 352.961 110.026 C 352.961 108.938 352.474 108.408 351.673 108.408 C 350.599 108.408 349.825 109.223 349.825 109.223 L 349.825 113.048 C 349.825 113.19 349.695 113.321 349.552 113.321 L 349.108 113.321 C 348.966 113.321 348.837 113.19 348.837 113.048 L 348.837 107.864 Z " fill="rgb(34,31,32)"/><path d=" M 358.444 107.449 C 359.303 107.449 359.976 107.792 360.492 108.451 C 360.592 108.579 360.563 108.752 360.435 108.851 L 360.162 109.081 C 359.948 109.281 359.876 109.137 359.746 109.023 C 359.461 108.694 358.988 108.424 358.429 108.424 C 357.355 108.424 356.525 109.311 356.525 110.456 C 356.525 111.601 357.341 112.517 358.415 112.517 C 359.275 112.517 359.604 112.089 359.933 111.773 C 360.105 111.601 360.205 111.63 360.363 111.745 L 360.521 111.859 C 360.663 111.959 360.707 112.118 360.62 112.26 C 360.191 112.948 359.403 113.463 358.429 113.463 C 356.839 113.463 355.494 112.188 355.494 110.47 C 355.494 108.781 356.884 107.449 358.444 107.449 Z " fill="rgb(34,31,32)"/><path d=" M 364.672 112.532 C 365.718 112.532 366.534 111.602 366.534 110.442 C 366.534 109.311 365.718 108.393 364.672 108.393 C 363.627 108.393 362.811 109.311 362.811 110.442 C 362.811 111.602 363.627 112.532 364.672 112.532 Z  M 364.672 107.449 C 366.262 107.449 367.522 108.823 367.522 110.442 C 367.522 112.089 366.262 113.463 364.672 113.463 C 363.083 113.463 361.822 112.089 361.822 110.442 C 361.822 108.823 363.083 107.449 364.672 107.449 Z " fill="rgb(34,31,32)"/><path d=" M 371.545 112.505 C 372.648 112.505 373.421 111.602 373.421 110.457 C 373.421 109.34 372.762 108.353 371.617 108.353 C 370.685 108.353 370.155 109.054 370.155 109.054 L 370.155 112.003 C 370.155 112.003 370.756 112.505 371.545 112.505 Z  M 370.141 117.345 C 370.141 117.488 370.012 117.618 369.869 117.618 L 369.425 117.618 C 369.282 117.618 369.154 117.488 369.154 117.345 L 369.154 107.866 C 369.154 107.722 369.282 107.592 369.425 107.592 L 369.725 107.592 C 369.855 107.592 369.898 107.635 369.955 107.778 L 370.055 108.051 C 370.055 108.051 370.685 107.45 371.717 107.45 C 373.278 107.45 374.424 108.824 374.424 110.471 C 374.424 112.147 373.249 113.464 371.674 113.464 C 370.728 113.464 370.141 112.991 370.141 112.991 L 370.141 117.345 Z " fill="rgb(34,31,32)"/><path d=" M 380.037 109.898 C 379.993 109.068 379.306 108.322 378.433 108.322 C 377.473 108.322 376.729 109.01 376.629 109.898 L 380.037 109.898 Z  M 378.433 107.449 C 379.936 107.449 381.025 108.566 381.025 110.069 C 381.025 110.171 381.011 110.356 380.996 110.456 C 380.982 110.6 380.867 110.699 380.739 110.699 L 376.615 110.699 C 376.672 111.659 377.516 112.562 378.533 112.562 C 379.135 112.562 379.622 112.332 379.952 112.133 C 380.152 112.018 380.237 111.945 380.352 112.103 C 380.438 112.217 380.509 112.318 380.596 112.434 C 380.696 112.562 380.753 112.648 380.539 112.805 C 380.195 113.078 379.42 113.464 378.433 113.464 C 376.7 113.464 375.626 112.103 375.626 110.456 C 375.626 108.837 376.7 107.449 378.433 107.449 Z " fill="rgb(34,31,32)"/><path d=" M 385.118 107.449 C 385.978 107.449 386.651 107.792 387.167 108.451 C 387.267 108.579 387.238 108.752 387.108 108.851 L 386.837 109.081 C 386.622 109.281 386.551 109.137 386.421 109.023 C 386.135 108.694 385.662 108.424 385.104 108.424 C 384.03 108.424 383.2 109.311 383.2 110.456 C 383.2 111.601 384.015 112.517 385.09 112.517 C 385.95 112.517 386.278 112.089 386.608 111.773 C 386.78 111.601 386.879 111.63 387.037 111.745 L 387.195 111.859 C 387.338 111.959 387.381 112.118 387.295 112.26 C 386.894 112.905 386.192 113.378 385.32 113.448 L 385.32 114.078 C 386.192 114.193 386.822 114.723 386.822 115.554 C 386.822 116.385 386.164 117.043 385.32 117.043 C 384.888 117.043 384.474 116.828 384.23 116.543 C 384.115 116.413 384.13 116.242 384.23 116.17 L 384.431 116.013 C 384.531 115.94 384.689 115.926 384.76 116.013 C 384.932 116.198 385.175 116.27 385.347 116.27 C 385.734 116.27 385.978 115.983 385.978 115.597 C 385.978 114.938 385.276 114.78 384.788 114.695 C 384.574 114.652 384.545 114.48 384.545 114.408 L 384.545 113.405 C 383.214 113.163 382.168 111.989 382.168 110.47 C 382.168 108.781 383.557 107.449 385.118 107.449 Z " fill="rgb(34,31,32)"/><path d=" M 390.43 112.605 C 391.146 112.605 391.761 112.161 392.005 111.802 L 392.005 110.671 C 391.834 110.571 391.433 110.442 390.802 110.442 C 390 110.442 389.427 110.842 389.427 111.587 C 389.427 112.161 389.814 112.605 390.43 112.605 Z  M 390.802 109.684 C 391.418 109.684 392.02 109.87 392.02 109.87 C 392.034 108.81 391.906 108.322 391.089 108.322 C 390.301 108.322 389.628 108.538 389.37 108.638 C 389.227 108.695 389.141 108.623 389.098 108.496 L 388.984 108.137 C 388.926 107.965 389.013 107.878 389.141 107.823 C 389.227 107.778 390.057 107.45 391.131 107.45 C 392.593 107.45 392.95 108.194 392.95 109.87 L 392.95 113.05 C 392.95 113.192 392.821 113.321 392.678 113.321 L 392.407 113.321 C 392.249 113.321 392.205 113.235 392.163 113.106 L 392.048 112.72 C 391.747 113.021 391.16 113.464 390.273 113.464 C 389.27 113.464 388.511 112.734 388.511 111.587 C 388.511 110.5 389.327 109.684 390.802 109.684 Z " fill="rgb(34,31,32)"/><path d=" M 394.596 112.517 C 394.653 112.434 394.753 112.231 394.796 112.161 C 394.869 112.046 395.026 112.016 395.183 112.118 C 395.183 112.118 395.799 112.619 396.53 112.619 C 397.117 112.619 397.46 112.318 397.46 111.93 C 397.46 111.431 397.03 111.201 396.2 110.785 C 395.442 110.413 394.568 109.911 394.568 108.938 C 394.568 108.336 395.054 107.449 396.386 107.449 C 397.132 107.449 397.704 107.706 397.976 107.894 C 398.105 107.978 398.147 108.179 398.062 108.336 L 397.947 108.566 C 397.862 108.724 397.66 108.766 397.531 108.694 C 397.531 108.694 396.916 108.351 396.386 108.351 C 395.742 108.351 395.57 108.681 395.57 108.923 C 395.57 109.396 396.043 109.611 396.63 109.898 C 397.619 110.37 398.506 110.813 398.506 111.845 C 398.506 112.676 397.704 113.463 396.53 113.463 C 395.57 113.463 394.983 113.064 394.668 112.818 C 394.596 112.762 394.553 112.619 394.596 112.517 Z " fill="rgb(34,31,32)"/><path d=" M 344.156 123.311 C 343.454 121.752 342.767 120.175 342.064 118.614 L 341.95 118.614 L 339.859 123.311 L 344.156 123.311 Z  M 337.353 126.348 L 341.707 116.71 C 341.75 116.624 341.822 116.553 341.95 116.553 L 342.093 116.553 C 342.223 116.553 342.294 116.624 342.337 116.71 L 346.663 126.348 C 346.748 126.534 346.633 126.719 346.419 126.719 L 345.846 126.719 C 345.717 126.719 345.631 126.634 345.603 126.562 L 344.543 124.199 L 339.458 124.199 L 338.413 126.562 C 338.384 126.634 338.298 126.719 338.169 126.719 L 337.596 126.719 C 337.382 126.719 337.267 126.534 337.353 126.348 Z " fill="rgb(34,31,32)"/><path d=" M 347.432 125.918 C 347.489 125.833 347.591 125.632 347.632 125.561 C 347.705 125.445 347.862 125.417 348.019 125.517 C 348.019 125.517 348.635 126.02 349.366 126.02 C 349.953 126.02 350.297 125.719 350.297 125.331 C 350.297 124.83 349.866 124.601 349.037 124.186 C 348.278 123.813 347.404 123.311 347.404 122.339 C 347.404 121.737 347.891 120.848 349.224 120.848 C 349.968 120.848 350.541 121.107 350.812 121.293 C 350.941 121.379 350.985 121.578 350.898 121.737 L 350.784 121.966 C 350.698 122.124 350.496 122.167 350.368 122.093 C 350.368 122.093 349.752 121.752 349.224 121.752 C 348.578 121.752 348.407 122.08 348.407 122.324 C 348.407 122.797 348.879 123.011 349.466 123.298 C 350.455 123.77 351.342 124.213 351.342 125.246 C 351.342 126.075 350.541 126.864 349.366 126.864 C 348.407 126.864 347.819 126.463 347.504 126.219 C 347.432 126.162 347.39 126.02 347.432 125.918 Z " fill="rgb(34,31,32)"/><path d=" M 352.53 125.918 C 352.587 125.833 352.687 125.632 352.73 125.561 C 352.801 125.445 352.959 125.417 353.117 125.517 C 353.117 125.517 353.733 126.02 354.462 126.02 C 355.05 126.02 355.394 125.719 355.394 125.331 C 355.394 124.83 354.964 124.601 354.134 124.186 C 353.374 123.813 352.501 123.311 352.501 122.339 C 352.501 121.737 352.988 120.848 354.32 120.848 C 355.064 120.848 355.637 121.107 355.91 121.293 C 356.038 121.379 356.081 121.578 355.995 121.737 L 355.881 121.966 C 355.795 122.124 355.594 122.167 355.465 122.093 C 355.465 122.093 354.85 121.752 354.32 121.752 C 353.675 121.752 353.504 122.08 353.504 122.324 C 353.504 122.797 353.977 123.011 354.564 123.298 C 355.551 123.77 356.439 124.213 356.439 125.246 C 356.439 126.075 355.637 126.864 354.462 126.864 C 353.504 126.864 352.917 126.463 352.601 126.219 C 352.53 126.162 352.487 126.02 352.53 125.918 Z " fill="rgb(34,31,32)"/><path d=" M 360.406 125.932 C 361.452 125.932 362.268 125.001 362.268 123.841 C 362.268 122.709 361.452 121.793 360.406 121.793 C 359.36 121.793 358.545 122.709 358.545 123.841 C 358.545 125.001 359.36 125.932 360.406 125.932 Z  M 360.406 120.847 C 361.995 120.847 363.256 122.222 363.256 123.841 C 363.256 125.487 361.995 126.863 360.406 126.863 C 358.817 126.863 357.556 125.487 357.556 123.841 C 357.556 122.222 358.817 120.847 360.406 120.847 Z " fill="rgb(34,31,32)"/><path d=" M 367.279 125.904 C 368.382 125.904 369.155 125.001 369.155 123.857 C 369.155 122.738 368.496 121.752 367.351 121.752 C 366.419 121.752 365.889 122.452 365.889 122.452 L 365.889 125.402 C 365.889 125.402 366.49 125.904 367.279 125.904 Z  M 365.875 130.743 C 365.875 130.888 365.746 131.016 365.602 131.016 L 365.159 131.016 C 365.015 131.016 364.887 130.888 364.887 130.743 L 364.887 121.264 C 364.887 121.122 365.015 120.991 365.159 120.991 L 365.459 120.991 C 365.589 120.991 365.632 121.034 365.689 121.176 L 365.789 121.449 C 365.789 121.449 366.419 120.848 367.451 120.848 C 369.012 120.848 370.158 122.224 370.158 123.871 C 370.158 125.545 368.982 126.864 367.408 126.864 C 366.462 126.864 365.875 126.391 365.875 126.391 L 365.875 130.743 Z " fill="rgb(34,31,32)"/><path d=" M 375.769 123.296 C 375.726 122.466 375.039 121.722 374.165 121.722 C 373.206 121.722 372.461 122.409 372.361 123.296 L 375.769 123.296 Z  M 374.165 120.847 C 375.669 120.847 376.758 121.965 376.758 123.469 C 376.758 123.57 376.744 123.755 376.729 123.855 C 376.715 123.999 376.6 124.099 376.471 124.099 L 372.347 124.099 C 372.404 125.059 373.249 125.961 374.265 125.961 C 374.868 125.961 375.355 125.73 375.684 125.531 C 375.884 125.417 375.969 125.345 376.085 125.502 C 376.171 125.616 376.242 125.718 376.328 125.832 C 376.428 125.961 376.485 126.046 376.271 126.205 C 375.928 126.476 375.153 126.863 374.165 126.863 C 372.432 126.863 371.358 125.502 371.358 123.855 C 371.358 122.238 372.432 120.847 374.165 120.847 Z " fill="rgb(34,31,32)"/><path d=" M 380.852 120.848 C 381.711 120.848 382.385 121.192 382.901 121.851 C 383.001 121.98 382.972 122.151 382.842 122.252 L 382.571 122.481 C 382.355 122.681 382.284 122.538 382.155 122.424 C 381.869 122.093 381.396 121.823 380.838 121.823 C 379.764 121.823 378.934 122.711 378.934 123.857 C 378.934 125.001 379.749 125.918 380.824 125.918 C 381.683 125.918 382.012 125.488 382.341 125.173 C 382.514 125.001 382.613 125.031 382.771 125.145 L 382.928 125.259 C 383.072 125.36 383.115 125.517 383.029 125.661 C 382.628 126.306 381.926 126.778 381.053 126.849 L 381.053 127.479 C 381.926 127.593 382.556 128.124 382.556 128.955 C 382.556 129.785 381.898 130.443 381.053 130.443 C 380.622 130.443 380.208 130.229 379.964 129.943 C 379.849 129.813 379.864 129.643 379.964 129.571 L 380.165 129.412 C 380.265 129.341 380.423 129.326 380.494 129.412 C 380.665 129.599 380.909 129.671 381.081 129.671 C 381.468 129.671 381.711 129.384 381.711 128.998 C 381.711 128.338 381.01 128.18 380.522 128.096 C 380.308 128.053 380.279 127.881 380.279 127.808 L 380.279 126.806 C 378.947 126.563 377.902 125.389 377.902 123.872 C 377.902 122.181 379.291 120.848 380.852 120.848 Z " fill="rgb(34,31,32)"/><path d=" M 386.164 126.004 C 386.88 126.004 387.494 125.559 387.737 125.202 L 387.737 124.071 C 387.567 123.971 387.167 123.841 386.535 123.841 C 385.733 123.841 385.16 124.242 385.16 124.986 C 385.16 125.559 385.548 126.004 386.164 126.004 Z  M 386.535 123.082 C 387.152 123.082 387.754 123.27 387.754 123.27 C 387.768 122.208 387.64 121.722 386.823 121.722 C 386.035 121.722 385.36 121.937 385.104 122.037 C 384.961 122.093 384.873 122.022 384.83 121.894 L 384.717 121.537 C 384.659 121.364 384.745 121.277 384.873 121.221 C 384.961 121.176 385.791 120.848 386.865 120.848 C 388.327 120.848 388.684 121.594 388.684 123.27 L 388.684 126.448 C 388.684 126.591 388.555 126.719 388.412 126.719 L 388.14 126.719 C 387.982 126.719 387.939 126.634 387.896 126.506 L 387.78 126.118 C 387.481 126.419 386.894 126.864 386.007 126.864 C 385.004 126.864 384.244 126.134 384.244 124.986 C 384.244 123.898 385.061 123.082 386.535 123.082 Z " fill="rgb(34,31,32)"/><path d=" M 390.33 125.918 C 390.387 125.833 390.487 125.632 390.53 125.561 C 390.603 125.445 390.76 125.417 390.917 125.517 C 390.917 125.517 391.533 126.02 392.263 126.02 C 392.85 126.02 393.194 125.719 393.194 125.331 C 393.194 124.83 392.764 124.601 391.934 124.186 C 391.176 123.813 390.302 123.311 390.302 122.339 C 390.302 121.737 390.788 120.848 392.12 120.848 C 392.866 120.848 393.437 121.107 393.71 121.293 C 393.839 121.379 393.881 121.578 393.796 121.737 L 393.681 121.966 C 393.596 122.124 393.394 122.167 393.265 122.093 C 393.265 122.093 392.65 121.752 392.12 121.752 C 391.476 121.752 391.304 122.08 391.304 122.324 C 391.304 122.797 391.777 123.011 392.363 123.298 C 393.352 123.77 394.24 124.213 394.24 125.246 C 394.24 126.075 393.437 126.864 392.263 126.864 C 391.304 126.864 390.717 126.463 390.402 126.219 C 390.33 126.162 390.287 126.02 390.33 125.918 Z " fill="rgb(34,31,32)"/><path d=" M 344.156 136.71 C 343.454 135.15 342.767 133.573 342.064 132.012 L 341.95 132.012 L 339.859 136.71 L 344.156 136.71 Z  M 337.353 139.746 L 341.707 130.108 C 341.75 130.022 341.822 129.951 341.95 129.951 L 342.093 129.951 C 342.223 129.951 342.294 130.022 342.337 130.108 L 346.663 139.746 C 346.748 139.933 346.633 140.118 346.419 140.118 L 345.846 140.118 C 345.717 140.118 345.631 140.033 345.603 139.96 L 344.543 137.597 L 339.458 137.597 L 338.413 139.96 C 338.384 140.033 338.298 140.118 338.169 140.118 L 337.596 140.118 C 337.382 140.118 337.267 139.933 337.353 139.746 Z " fill="rgb(34,31,32)"/><path d=" M 347.432 139.318 C 347.489 139.231 347.591 139.03 347.632 138.959 C 347.705 138.843 347.862 138.816 348.019 138.916 C 348.019 138.916 348.635 139.418 349.366 139.418 C 349.953 139.418 350.297 139.117 350.297 138.729 C 350.297 138.229 349.866 137.999 349.037 137.585 C 348.278 137.212 347.404 136.71 347.404 135.737 C 347.404 135.135 347.891 134.246 349.224 134.246 C 349.968 134.246 350.541 134.505 350.812 134.691 C 350.941 134.778 350.985 134.978 350.898 135.135 L 350.784 135.365 C 350.698 135.522 350.496 135.565 350.368 135.493 C 350.368 135.493 349.752 135.15 349.224 135.15 C 348.578 135.15 348.407 135.479 348.407 135.722 C 348.407 136.195 348.879 136.409 349.466 136.696 C 350.455 137.169 351.342 137.612 351.342 138.644 C 351.342 139.474 350.541 140.262 349.366 140.262 C 348.407 140.262 347.819 139.862 347.504 139.617 C 347.432 139.56 347.39 139.418 347.432 139.318 Z " fill="rgb(34,31,32)"/><path d=" M 352.53 139.318 C 352.587 139.231 352.687 139.03 352.73 138.959 C 352.801 138.843 352.959 138.816 353.117 138.916 C 353.117 138.916 353.733 139.418 354.462 139.418 C 355.05 139.418 355.394 139.117 355.394 138.729 C 355.394 138.229 354.964 137.999 354.134 137.585 C 353.374 137.212 352.501 136.71 352.501 135.737 C 352.501 135.135 352.988 134.246 354.32 134.246 C 355.064 134.246 355.637 134.505 355.91 134.691 C 356.038 134.778 356.081 134.978 355.995 135.135 L 355.881 135.365 C 355.795 135.522 355.594 135.565 355.465 135.493 C 355.465 135.493 354.85 135.15 354.32 135.15 C 353.675 135.15 353.504 135.479 353.504 135.722 C 353.504 136.195 353.977 136.409 354.564 136.696 C 355.551 137.169 356.439 137.612 356.439 138.644 C 356.439 139.474 355.637 140.262 354.462 140.262 C 353.504 140.262 352.917 139.862 352.601 139.617 C 352.53 139.56 352.487 139.418 352.53 139.318 Z " fill="rgb(34,31,32)"/><path d=" M 360.406 139.332 C 361.452 139.332 362.268 138.401 362.268 137.241 C 362.268 136.109 361.452 135.192 360.406 135.192 C 359.36 135.192 358.545 136.109 358.545 137.241 C 358.545 138.401 359.36 139.332 360.406 139.332 Z  M 360.406 134.246 C 361.995 134.246 363.256 135.622 363.256 137.241 C 363.256 138.887 361.995 140.262 360.406 140.262 C 358.817 140.262 357.556 138.887 357.556 137.241 C 357.556 135.622 358.817 134.246 360.406 134.246 Z " fill="rgb(34,31,32)"/><path d=" M 364.872 134.662 C 364.872 134.52 365.002 134.39 365.144 134.39 L 365.416 134.39 C 365.545 134.39 365.616 134.448 365.646 134.562 L 365.774 135.006 C 365.774 135.006 366.448 134.246 367.636 134.246 C 368.48 134.246 369.097 134.576 369.469 135.177 C 369.542 135.121 370.457 134.246 371.603 134.246 C 373.264 134.246 373.823 135.335 373.823 136.825 L 373.823 139.846 C 373.823 139.99 373.694 140.119 373.55 140.119 L 373.091 140.119 C 372.949 140.119 372.82 139.99 372.82 139.846 L 372.82 136.825 C 372.82 135.751 372.362 135.206 371.531 135.206 C 370.601 135.206 369.985 135.822 369.785 136.009 C 369.827 136.252 369.856 136.525 369.856 136.825 L 369.856 139.846 C 369.856 139.99 369.727 140.119 369.583 140.119 L 369.124 140.119 C 368.982 140.119 368.853 139.99 368.853 139.846 L 368.853 136.825 C 368.853 135.737 368.366 135.206 367.493 135.206 C 366.476 135.206 365.86 136.023 365.86 136.023 L 365.86 139.846 C 365.86 139.99 365.731 140.119 365.587 140.119 L 365.144 140.119 C 365.002 140.119 364.872 139.99 364.872 139.846 L 364.872 134.662 Z " fill="rgb(34,31,32)"/><path d=" M 378.217 139.332 C 379.263 139.332 380.078 138.401 380.078 137.241 C 380.078 136.109 379.263 135.192 378.217 135.192 C 377.171 135.192 376.356 136.109 376.356 137.241 C 376.356 138.401 377.171 139.332 378.217 139.332 Z  M 378.217 134.246 C 379.807 134.246 381.067 135.622 381.067 137.241 C 381.067 138.887 379.807 140.262 378.217 140.262 C 376.627 140.262 375.367 138.887 375.367 137.241 C 375.367 135.622 376.627 134.246 378.217 134.246 Z " fill="rgb(34,31,32)"/><path d=" M 383.056 135.249 L 382.325 135.249 C 382.168 135.249 382.054 135.121 382.054 134.978 L 382.054 134.662 C 382.054 134.505 382.168 134.39 382.325 134.39 L 383.056 134.39 L 383.056 132.8 C 383.056 132.658 383.186 132.528 383.328 132.528 L 383.787 132.499 C 383.929 132.499 384.044 132.63 384.044 132.772 L 384.044 134.39 L 385.705 134.39 C 385.862 134.39 385.978 134.505 385.978 134.662 L 385.978 134.978 C 385.978 135.121 385.862 135.249 385.705 135.249 L 384.044 135.249 L 384.044 138.601 C 384.044 139.173 384.187 139.288 384.517 139.288 C 384.875 139.288 385.377 139.074 385.562 138.974 C 385.777 138.859 385.834 138.945 385.907 139.059 L 386.121 139.418 C 386.221 139.589 386.178 139.675 386.021 139.774 C 385.82 139.905 385.047 140.262 384.374 140.262 C 383.228 140.262 383.056 139.575 383.056 138.688 L 383.056 135.249 Z " fill="rgb(34,31,32)"/><path d=" M 390.016 139.332 C 391.06 139.332 391.877 138.401 391.877 137.241 C 391.877 136.109 391.06 135.192 390.016 135.192 C 388.97 135.192 388.153 136.109 388.153 137.241 C 388.153 138.401 388.97 139.332 390.016 139.332 Z  M 390.016 134.246 C 391.605 134.246 392.866 135.622 392.866 137.241 C 392.866 138.887 391.605 140.262 390.016 140.262 C 388.426 140.262 387.165 138.887 387.165 137.241 C 387.165 135.622 388.426 134.246 390.016 134.246 Z " fill="rgb(34,31,32)"/><path d=" M 394.138 139.318 C 394.195 139.231 394.297 139.03 394.34 138.959 C 394.411 138.843 394.568 138.816 394.725 138.916 C 394.725 138.916 395.342 139.418 396.072 139.418 C 396.66 139.418 397.004 139.117 397.004 138.729 C 397.004 138.229 396.573 137.999 395.743 137.585 C 394.984 137.212 394.111 136.71 394.111 135.737 C 394.111 135.135 394.597 134.246 395.93 134.246 C 396.674 134.246 397.247 134.505 397.518 134.691 C 397.648 134.778 397.691 134.978 397.605 135.135 L 397.491 135.365 C 397.404 135.522 397.203 135.565 397.075 135.493 C 397.075 135.493 396.459 135.15 395.93 135.15 C 395.285 135.15 395.113 135.479 395.113 135.722 C 395.113 136.195 395.585 136.409 396.172 136.696 C 397.161 137.169 398.048 137.612 398.048 138.644 C 398.048 139.474 397.247 140.262 396.072 140.262 C 395.113 140.262 394.526 139.862 394.211 139.617 C 394.138 139.56 394.097 139.418 394.138 139.318 Z " fill="rgb(34,31,32)"/><path d=" M 186.356 132.975 L 191.658 126.669 C 196.461 130.826 201.261 133.19 207.496 133.19 C 212.942 133.19 216.382 130.681 216.382 126.884 L 216.382 126.741 C 216.382 123.158 214.375 121.222 205.059 119.073 C 194.383 116.493 188.363 113.341 188.363 104.096 L 188.363 103.952 C 188.363 95.352 195.529 89.406 205.489 89.406 C 212.798 89.406 218.603 91.627 223.691 95.711 L 218.961 102.376 C 214.447 99.009 209.932 97.216 205.346 97.216 C 200.186 97.216 197.177 99.868 197.177 103.165 L 197.177 103.309 C 197.177 107.177 199.469 108.898 209.072 111.19 C 219.678 113.771 225.196 117.568 225.196 125.88 L 225.196 126.025 C 225.196 135.413 217.814 141 207.28 141 C 199.614 141 192.376 138.349 186.356 132.975 Z " fill="rgb(66,65,67)"/><path d=" M 226.967 132.975 L 232.269 126.669 C 237.07 130.826 241.871 133.19 248.105 133.19 C 253.553 133.19 256.991 130.681 256.991 126.884 L 256.991 126.741 C 256.991 123.158 254.986 121.222 245.67 119.073 C 234.992 116.493 228.974 113.341 228.974 104.096 L 228.974 103.952 C 228.974 95.352 236.138 89.406 246.099 89.406 C 253.408 89.406 259.214 91.627 264.301 95.711 L 259.573 102.376 C 255.057 99.009 250.542 97.216 245.956 97.216 C 240.796 97.216 237.786 99.868 237.786 103.165 L 237.786 103.309 C 237.786 107.177 240.08 108.898 249.682 111.19 C 260.289 113.771 265.806 117.568 265.806 125.88 L 265.806 126.025 C 265.806 135.413 258.425 141 247.891 141 C 240.224 141 232.986 138.349 226.967 132.975 Z " fill="rgb(66,65,67)"/><path d=" M 299.963 120.361 L 291.292 100.297 L 282.692 120.361 L 299.963 120.361 Z  M 287.35 89.763 L 295.519 89.763 L 317.59 140.284 L 308.276 140.284 L 303.187 128.174 L 279.467 128.174 L 274.308 140.284 L 265.279 140.284 L 287.35 89.763 Z " fill="rgb(66,65,67)"/><path d=" M 320.901 140.284 L 327.069 140.284 L 304.997 89.764 L 299.992 89.764 L 320.901 140.284 Z " fill="rgb(205,32,42)"/><path d=" M 329.463 140.284 L 333.112 140.284 L 311.042 89.764 L 308.555 89.764 L 329.463 140.284 Z " fill="rgb(247,147,29)"/><path d=" M 150.444 128.578 C 142.836 125.51 137.464 118.055 137.464 109.348 C 137.464 108.667 137.498 107.994 137.562 107.326 C 141.263 104.898 145.686 103.487 150.444 103.487 C 155.202 103.487 159.626 104.898 163.326 107.326 C 163.39 107.994 163.424 108.667 163.424 109.348 C 163.424 118.055 158.056 125.51 150.444 128.578 Z  M 174.171 102.143 C 170.046 97.901 164.783 94.756 158.88 93.206 C 157.653 96.681 154.336 99.177 150.448 99.177 C 146.556 99.177 143.234 96.681 142.012 93.206 C 136.105 94.756 130.846 97.901 126.716 102.143 C 126.241 104.368 125.993 106.671 125.993 109.036 C 125.993 111.546 126.272 113.989 126.806 116.344 C 126.949 116.336 127.092 116.332 127.239 116.332 C 132.171 116.332 136.18 120.341 136.18 125.273 C 136.18 125.355 136.18 125.438 136.176 125.525 C 136.12 127.538 135.393 129.394 134.207 130.866 C 138.443 135.695 144.059 139.28 150.444 141 C 156.75 139.299 162.31 135.779 166.526 131.039 C 165.469 129.651 164.81 127.942 164.723 126.082 C 164.711 125.938 164.707 125.793 164.707 125.648 C 164.707 120.718 168.721 116.709 173.653 116.709 C 173.769 116.709 173.882 116.712 173.995 116.716 C 174.586 114.249 174.895 111.678 174.895 109.036 C 174.895 106.671 174.645 104.368 174.171 102.143 Z " fill="rgb(205,32,42)"/><path d=" M 157.683 90.235 C 157.683 90.304 157.683 90.371 157.679 90.438 C 157.657 91.27 157.492 92.072 157.209 92.814 C 156.169 95.532 153.531 97.471 150.448 97.471 C 147.365 97.471 144.725 95.536 143.687 92.814 C 143.419 92.118 143.258 91.365 143.22 90.585 C 143.212 90.47 143.209 90.353 143.209 90.235 C 143.209 86.246 146.458 83 150.448 83 C 154.438 83 157.683 86.246 157.683 90.235 Z " fill="rgb(205,32,42)"/><path d=" M 180.888 125.648 C 180.888 125.716 180.888 125.782 180.884 125.851 C 180.779 129.747 177.575 132.883 173.653 132.883 C 171.16 132.883 168.958 131.618 167.656 129.695 C 166.933 128.63 166.49 127.365 166.425 125.998 C 166.417 125.883 166.413 125.765 166.413 125.648 C 166.413 121.695 169.602 118.473 173.544 118.416 C 173.582 118.413 173.615 118.413 173.653 118.413 C 177.642 118.413 180.888 121.658 180.888 125.648 Z " fill="rgb(205,32,42)"/><path d=" M 134.475 125.273 C 134.475 125.341 134.475 125.407 134.471 125.476 C 134.429 126.986 133.926 128.381 133.094 129.524 C 131.775 131.329 129.64 132.508 127.239 132.508 C 123.366 132.508 120.191 129.451 120.011 125.623 C 120.004 125.506 120 125.389 120 125.273 C 120 121.285 123.246 118.041 127.232 118.037 L 127.239 118.037 C 131.229 118.037 134.475 121.283 134.475 125.273 Z " fill="rgb(205,32,42)"/></g></svg>