<svg xmlns="http://www.w3.org/2000/svg" xmlns:xlink="http://www.w3.org/1999/xlink" width="93.145" height="83.475" viewBox="0 0 93.145 83.475">
  <defs>
    <clipPath id="clip-path">
      <rect id="Rectangle_28" data-name="Rectangle 28" width="93.145" height="83.475" fill="#fff"/>
    </clipPath>
  </defs>
  <g id="Group_169" data-name="Group 169" transform="translate(0 0)">
    <g id="Group_168" data-name="Group 168" transform="translate(0 0.001)" clip-path="url(#clip-path)">
      <path id="Path_391" data-name="Path 391" d="M24.785,0A24.2,24.2,0,0,0,7.216,7.534a26.432,26.432,0,0,0,0,36.3L43.958,82.366a3.582,3.582,0,0,0,5.063.121c.043-.04.083-.081.123-.121q18.386-19.243,36.781-38.5a26.42,26.42,0,0,0,0-36.295,24.206,24.206,0,0,0-35.141,0l-4.214,4.364-4.216-4.4A24.2,24.2,0,0,0,24.785,0m0,7.012A17.173,17.173,0,0,1,37.208,12.5L44,19.621a3.582,3.582,0,0,0,5.063.121q.064-.06.121-.121l6.753-7.089a16.791,16.791,0,0,1,24.806,0,19.286,19.286,0,0,1,0,26.412Q63.657,56.82,46.571,74.682L12.4,38.907a19.29,19.29,0,0,1,0-26.41A17.087,17.087,0,0,1,24.785,7.012" transform="translate(0.001 -0.001)" fill="#fff"/>
    </g>
  </g>
</svg>
