<svg xmlns="http://www.w3.org/2000/svg" xmlns:xlink="http://www.w3.org/1999/xlink" width="87.507" height="76.216" viewBox="0 0 87.507 76.216">
  <defs>
    <clipPath id="clip-path">
      <rect id="Rectangle_27" data-name="Rectangle 27" width="87.507" height="76.216" fill="none"/>
    </clipPath>
  </defs>
  <g id="Group_166" data-name="Group 166" transform="translate(0 0)">
    <g id="Group_167" data-name="Group 167" transform="translate(0 0)" clip-path="url(#clip-path)">
      <path id="Path_377" data-name="Path 377" d="M47.524,31.867a1.857,1.857,0,0,1-1.753-1.239L36.489,4.334a1.858,1.858,0,0,1,1.134-2.372L42.882.106a1.86,1.86,0,0,1,2.372,1.134l9.282,26.292A1.857,1.857,0,0,1,53.4,29.9l-5.259,1.858a1.861,1.861,0,0,1-.619.1M40.613,4.849l8.045,22.788,1.753-.62L42.366,4.231Z" transform="translate(32.864 0)" fill="#fff"/>
      <path id="Path_378" data-name="Path 378" d="M8.877,35.06a1.835,1.835,0,0,1-.8-.183,1.854,1.854,0,0,1-.952-1.058L2.792,21.549a1.858,1.858,0,0,1,1.134-2.372L16.2,14.845a1.86,1.86,0,0,1,2.372,1.134L22.9,28.25a1.86,1.86,0,0,1-1.134,2.372L9.5,34.954a1.863,1.863,0,0,1-.619.107m-1.96-13,3.095,8.765,8.765-3.095L15.681,18.97Z" transform="translate(2.425 13.314)" fill="#fff"/>
      <path id="Path_379" data-name="Path 379" d="M6.506,31.613h0A6.507,6.507,0,0,1,4.34,18.972l2.63-.929a1.858,1.858,0,0,1,2.372,1.134l3.095,8.765A1.86,1.86,0,0,1,11.3,30.313l-2.63.927a6.472,6.472,0,0,1-2.166.373m-.051-9.446-.877.31a2.789,2.789,0,0,0-1.7,3.557,2.779,2.779,0,0,0,3.557,1.7l.877-.308Z" transform="translate(0 16.201)" fill="#fff"/>
      <path id="Path_380" data-name="Path 380" d="M24.916,32.935a9.294,9.294,0,0,1-9.281-8.772,1.859,1.859,0,0,1,1.237-1.856l6.6-2.332a1.863,1.863,0,0,1,2.373,1.134l5.386-1.9a1.859,1.859,0,0,1,2.353,1.083,9.295,9.295,0,0,1-8.67,12.644m-5.329-7.644a5.578,5.578,0,0,0,10.906-1.65c0-.076,0-.152-.006-.226l-5.156,1.82A1.857,1.857,0,0,1,22.959,24.1Z" transform="translate(14.121 17.255)" fill="#fff"/>
      <path id="Path_381" data-name="Path 381" d="M24.516,40.053a1.859,1.859,0,0,1-1.753-1.241L15.955,19.529a1.86,1.86,0,0,1,1.134-2.372L57.406,2.925a1.855,1.855,0,0,1,2.372,1.132L66.586,23.34a1.857,1.857,0,0,1-1.134,2.372L25.135,39.946a1.879,1.879,0,0,1-.619.107M20.08,20.045l5.569,15.777,36.812-13L56.89,7.049Z" transform="translate(14.317 2.545)" fill="#fff"/>
      <path id="Path_382" data-name="Path 382" d="M16.236,35.663a1.847,1.847,0,0,1-.8-.183,1.866,1.866,0,0,1-.952-1.058L8.914,18.645a1.858,1.858,0,0,1,1.134-2.372l14.024-4.951a1.86,1.86,0,0,1,2.372,1.134l5.569,15.777a1.858,1.858,0,0,1-1.134,2.372L16.856,35.556a1.882,1.882,0,0,1-.62.107m-3.2-16.5L17.37,31.432l10.518-3.713L23.556,15.448Z" transform="translate(7.955 10.132)" fill="#fff"/>
      <path id="Path_383" data-name="Path 383" d="M21.393,54.16a1.86,1.86,0,0,1-1.86-1.86V26.277a1.86,1.86,0,1,1,3.719,0V52.3a1.86,1.86,0,0,1-1.86,1.86" transform="translate(17.644 22.056)" fill="#fff"/>
      <path id="Path_384" data-name="Path 384" d="M13.578,54.16a1.859,1.859,0,0,1-1.612-2.781L26.836,25.354A1.859,1.859,0,1,1,30.064,27.2L15.194,53.224a1.859,1.859,0,0,1-1.616.936" transform="translate(10.587 22.055)" fill="#fff"/>
      <path id="Path_385" data-name="Path 385" d="M36.266,54.16a1.859,1.859,0,0,1-1.616-.936L19.78,27.2a1.859,1.859,0,1,1,3.228-1.844L37.878,51.38a1.859,1.859,0,0,1-1.612,2.781" transform="translate(17.645 22.055)" fill="#fff"/>
      <path id="Path_386" data-name="Path 386" d="M32.673,41.808H4.79a1.859,1.859,0,1,1,0-3.717H32.673a1.859,1.859,0,1,1,0,3.717" transform="translate(2.647 34.407)" fill="#fff"/>
      <path id="Path_387" data-name="Path 387" d="M26.087,39.951a1.859,1.859,0,1,1,1.86,1.86,1.861,1.861,0,0,1-1.86-1.86m-5.577,0a1.859,1.859,0,1,1,1.86,1.86,1.861,1.861,0,0,1-1.86-1.86" transform="translate(18.527 34.407)" fill="#fff"/>
      <path id="Path_388" data-name="Path 388" d="M53.183,41.808H25.3a1.859,1.859,0,1,1,0-3.717H53.183a1.859,1.859,0,1,1,0,3.717" transform="translate(21.174 34.407)" fill="#fff"/>
      <path id="Path_389" data-name="Path 389" d="M46.6,41.808H42.881a1.859,1.859,0,1,1,0-3.717H46.6a1.859,1.859,0,1,1,0,3.717" transform="translate(37.055 34.407)" fill="#fff"/>
      <path id="Path_390" data-name="Path 390" d="M19.44,22.686a1.859,1.859,0,0,1-.619-3.612L50.424,7.92a1.859,1.859,0,1,1,1.237,3.506l-31.6,11.153a1.847,1.847,0,0,1-.619.107" transform="translate(15.88 7.057)" fill="#fff"/>
    </g>
  </g>
</svg>
